<svg width="53" height="53" viewBox="0 0 53 53" fill="none" xmlns="http://www.w3.org/2000/svg">
<path fill-rule="evenodd" clip-rule="evenodd" d="M39.75 13.25V39.75H13.25V13.25H39.75ZM24.4037 19.875H21.8229L16.9232 33.125H19.2515L20.1765 30.5347H26.0419L26.9471 33.125H29.4157L24.4037 19.875ZM33.5488 19.875H31.2298V33.125H33.5488V19.875ZM23.0938 22.098L25.4037 28.7083H20.8206L23.0938 22.098ZM41.9583 33.125H46.375V37.5417H41.9583V33.125ZM15.4583 41.9583H19.875V46.375H15.4583V41.9583ZM24.2917 41.9583H28.7083V46.375H24.2917V41.9583ZM15.4583 6.625H19.875V11.0417H15.4583V6.625ZM33.125 41.9583H37.5417V46.375H33.125V41.9583ZM24.2917 6.625H28.7083V11.0417H24.2917V6.625ZM33.125 6.625H37.5417V11.0417H33.125V6.625ZM41.9583 24.2917H46.375V28.7083H41.9583V24.2917ZM6.625 33.125H11.0417V37.5417H6.625V33.125ZM41.9583 15.4583H46.375V19.875H41.9583V15.4583ZM6.625 24.2917H11.0417V28.7083H6.625V24.2917ZM6.625 15.4583H11.0417V19.875H6.625V15.4583Z" fill="url(#paint0_linear_1095_401)"/>
<defs>
<linearGradient id="paint0_linear_1095_401" x1="17.5" y1="14" x2="35.5" y2="39.5" gradientUnits="userSpaceOnUse">
<stop stop-color="#4B90E8"/>
<stop offset="1" stop-color="#C7677A"/>
</linearGradient>
</defs>
</svg>
