<svg width="315" height="120" viewBox="0 0 315 120" fill="none" xmlns="http://www.w3.org/2000/svg">
<rect width="314.964" height="120" rx="12" fill="white"/>
<g clip-path="url(#clip0_1095_329)">
<path d="M30.3093 68.6541C35.7505 68.6541 40.1615 64.2406 40.1615 58.7962C40.1615 53.3518 35.7505 48.9383 30.3093 48.9383C24.868 48.9383 20.457 53.3518 20.457 58.7962C20.457 64.2406 24.868 68.6541 30.3093 68.6541Z" fill="url(#paint0_linear_1095_329)"/>
<path d="M110.159 70.3737C115.6 70.3737 120.011 65.9601 120.011 60.5158C120.011 55.0714 115.6 50.6579 110.159 50.6579C104.718 50.6579 100.307 55.0714 100.307 60.5158C100.307 65.9601 104.718 70.3737 110.159 70.3737Z" fill="url(#paint1_linear_1095_329)"/>
<path d="M28.7644 43.6086C27.3896 45.5343 28.6116 46.0922 29.3944 46.1303H37.6428C46.7161 38.4733 56.6218 42.2904 60.4405 45.156C62.5943 46.8525 64.8893 45.8629 65.7676 45.156C68.0588 42.2216 66.7222 39.8832 65.7676 39.0808C49.1333 26.747 34.1678 36.9602 28.7644 43.6086Z" fill="url(#paint2_linear_1095_329)"/>
<path d="M111.927 75.7366C113.305 73.813 112.084 73.2532 111.301 73.2138L103.053 73.2005C93.9674 80.843 84.0678 77.0101 80.2536 74.1382C78.1026 72.4383 75.806 73.4242 74.9266 74.1298C72.6306 77.0605 73.9634 79.401 74.9169 80.2048C91.5313 92.5654 106.513 82.3762 111.927 75.7366Z" fill="url(#paint3_linear_1095_329)"/>
<path d="M28.7646 71.4627C26.29 71.6003 26.9698 73.2394 27.6189 74.0418C34.6301 84.6792 45.9296 86.3833 50.703 85.9057C47.5144 85.8102 43.1763 85.6764 51.3331 85.9057C59.4898 86.1349 67.2189 79.4293 70.0638 76.0478L86.1597 56.4467C87.5344 54.3375 86.7325 52.2055 86.1597 51.4031C84.51 48.8355 81.3863 49.7602 80.0307 50.5434L67.0852 66.763C64.6107 70.2477 60.9754 73.3732 59.4669 74.5003C49.2481 81.5613 39.3996 75.4173 35.7528 71.4627C34.4544 71.4054 31.2391 71.3252 28.7646 71.4627Z" fill="url(#paint4_linear_1095_329)"/>
<path d="M110.809 47.4956C113.284 47.3552 112.602 45.7168 111.952 44.9152C104.928 34.2861 93.6267 32.5953 88.8539 33.0785C92.0426 33.1703 96.3808 33.2989 88.2238 33.0793C80.0667 32.8596 72.3457 39.5744 69.5047 42.9592L53.432 62.5793C52.0596 64.69 52.8641 66.8211 53.4378 67.6228C55.0906 70.1885 58.2132 69.2603 59.5679 68.4753L72.4942 52.2404C74.9646 48.7529 78.5963 45.6231 80.1034 44.4942C90.3139 37.4212 100.17 43.5535 103.821 47.5038C105.12 47.5596 108.335 47.6361 110.809 47.4956Z" fill="url(#paint5_linear_1095_329)"/>
</g>
<path d="M155.91 52.367H141.931V59.8514H154.057V63.8454H141.931V75H136.93V48.373H155.91V52.367ZM160.992 75V55.3716H165.885V75H160.992ZM163.439 52.0252C162.407 52.0252 161.634 51.8033 161.118 51.3595C160.614 50.9157 160.362 50.28 160.362 49.4524C160.362 48.6248 160.614 47.9892 161.118 47.5454C161.634 47.1016 162.407 46.8797 163.439 46.8797C164.47 46.8797 165.238 47.1016 165.742 47.5454C166.257 47.9892 166.515 48.6248 166.515 49.4524C166.515 50.28 166.257 50.9157 165.742 51.3595C165.238 51.8033 164.47 52.0252 163.439 52.0252ZM179.643 83.276C178.492 83.276 177.322 83.198 176.135 83.0421C174.959 82.8982 173.832 82.6763 172.752 82.3764V78.5263C175.067 79.186 177.25 79.5158 179.301 79.5158C180.765 79.5158 181.946 79.3359 182.846 78.9761C183.745 78.6282 184.405 78.0705 184.825 77.3029C185.256 76.5472 185.472 75.5397 185.472 74.2804V72.859H185.238C184.555 73.5787 183.727 74.1364 182.756 74.5322C181.796 74.928 180.723 75.1259 179.535 75.1259C178.012 75.1259 176.639 74.7841 175.415 74.1004C174.192 73.4048 173.214 72.3433 172.483 70.916C171.763 69.4887 171.403 67.7136 171.403 65.5906C171.403 62.1722 172.357 59.5635 174.264 57.7644C176.183 55.9653 179.007 55.0657 182.738 55.0657C184.033 55.0657 185.358 55.1617 186.714 55.3536C188.069 55.5335 189.286 55.7914 190.366 56.1272V73.3988C190.366 75.7017 189.976 77.5787 189.196 79.03C188.417 80.4933 187.241 81.5668 185.67 82.2505C184.099 82.9341 182.09 83.276 179.643 83.276ZM181.226 71.1499C182.03 71.1499 182.804 71.0119 183.547 70.7361C184.291 70.4602 184.933 70.0464 185.472 69.4947V59.1677C184.465 58.9278 183.415 58.8079 182.324 58.8079C180.333 58.8079 178.833 59.3296 177.826 60.3731C176.818 61.4046 176.315 63.0058 176.315 65.1768C176.315 67.3237 176.741 68.859 177.592 69.7825C178.456 70.6941 179.667 71.1499 181.226 71.1499Z" fill="#235BD4"/>
<path d="M197.189 75V48.373H202.191V70.934H215.63V75H197.189ZM220.127 75V55.3716H225.02V75H220.127ZM222.574 52.0252C221.542 52.0252 220.768 51.8033 220.253 51.3595C219.749 50.9157 219.497 50.28 219.497 49.4524C219.497 48.6248 219.749 47.9892 220.253 47.5454C220.768 47.1016 221.542 46.8797 222.574 46.8797C223.605 46.8797 224.373 47.1016 224.876 47.5454C225.392 47.9892 225.65 48.6248 225.65 49.4524C225.65 50.28 225.392 50.9157 224.876 51.3595C224.373 51.8033 223.605 52.0252 222.574 52.0252ZM231.546 55.3716H235.576L235.899 57.4226H236.151C236.967 56.6669 237.92 56.0852 239.012 55.6774C240.103 55.2696 241.267 55.0657 242.502 55.0657C244.709 55.0657 246.442 55.7014 247.702 56.9728C248.973 58.2322 249.609 60.2112 249.609 62.9099V75H244.715V63.1618C244.715 61.7585 244.409 60.7569 243.798 60.1572C243.198 59.5575 242.31 59.2577 241.135 59.2577C240.259 59.2577 239.402 59.4256 238.562 59.7614C237.723 60.0973 237.015 60.601 236.439 61.2727V75H231.546V55.3716ZM270.197 75L263.99 66.9219H260.859V75H255.966V45.9262H260.859V62.9459H263.954L269.675 55.3716H274.965L267.984 64.835L275.594 75H270.197ZM284.776 75.3598C282.353 75.3598 280.177 75.072 278.245 74.4962V70.97C280.272 71.5697 282.437 71.8695 284.74 71.8695C286.264 71.8695 287.361 71.6656 288.033 71.2578C288.704 70.85 289.04 70.2503 289.04 69.4587C289.04 68.835 288.866 68.3612 288.518 68.0374C288.171 67.7016 287.559 67.4497 286.683 67.2818L283.355 66.742C281.4 66.4062 279.985 65.7825 279.109 64.8709C278.245 63.9594 277.814 62.73 277.814 61.1827C277.814 59.9473 278.15 58.8739 278.821 57.9623C279.493 57.0388 280.518 56.3251 281.898 55.8213C283.289 55.3176 285.028 55.0657 287.115 55.0657C288.087 55.0657 289.046 55.1257 289.994 55.2456C290.941 55.3656 291.805 55.5335 292.584 55.7494V59.2757C290.881 58.7959 289.082 58.556 287.187 58.556C285.448 58.556 284.219 58.7779 283.499 59.2217C282.791 59.6535 282.437 60.2532 282.437 61.0208C282.437 61.5845 282.605 62.0403 282.941 62.3881C283.289 62.724 283.889 62.9699 284.74 63.1258L288.069 63.6835C290 64.0194 291.415 64.6191 292.315 65.4826C293.214 66.3342 293.664 67.5816 293.664 69.2248C293.664 70.4962 293.322 71.5937 292.638 72.5172C291.967 73.4288 290.965 74.1304 289.634 74.6222C288.303 75.1139 286.683 75.3598 284.776 75.3598Z" fill="#0F0F10"/>
<defs>
<linearGradient id="paint0_linear_1095_329" x1="45.2045" y1="57.4804" x2="20.5983" y2="57.1509" gradientUnits="userSpaceOnUse">
<stop stop-color="#0644CD"/>
<stop offset="1" stop-color="#2158D5"/>
</linearGradient>
<linearGradient id="paint1_linear_1095_329" x1="120.122" y1="59.4002" x2="94.3418" y2="58.801" gradientUnits="userSpaceOnUse">
<stop stop-color="#DC984D"/>
<stop offset="1" stop-color="#BF8243"/>
</linearGradient>
<linearGradient id="paint2_linear_1095_329" x1="82.9517" y1="39.6042" x2="30.7918" y2="42.3006" gradientUnits="userSpaceOnUse">
<stop stop-color="#0644CD"/>
<stop offset="1" stop-color="#2158D5"/>
</linearGradient>
<linearGradient id="paint3_linear_1095_329" x1="72.3475" y1="77.3062" x2="127.615" y2="76.6474" gradientUnits="userSpaceOnUse">
<stop stop-color="#DC984D"/>
<stop offset="1" stop-color="#BF8243"/>
</linearGradient>
<linearGradient id="paint4_linear_1095_329" x1="107.438" y1="60.5399" x2="26.8933" y2="72.5841" gradientUnits="userSpaceOnUse">
<stop stop-color="#0644CD"/>
<stop offset="1" stop-color="#2158D5"/>
</linearGradient>
<linearGradient id="paint5_linear_1095_329" x1="133.164" y1="33.0054" x2="45.9307" y2="36.7504" gradientUnits="userSpaceOnUse">
<stop stop-color="#BF8243"/>
<stop offset="1" stop-color="#DC984D"/>
</linearGradient>
<clipPath id="clip0_1095_329">
<rect width="100.47" height="53.9891" fill="white" transform="translate(20 33.0054)"/>
</clipPath>
</defs>
</svg>
