<svg width="53" height="50" viewBox="0 0 53 50" fill="none" xmlns="http://www.w3.org/2000/svg">
<g clip-path="url(#clip0_1095_396)">
<path d="M53.0234 25.4364C53.0234 21.9254 48.6266 18.5981 41.8854 16.5347C43.4411 9.66391 42.7497 4.19754 39.7032 2.44744C39.001 2.03692 38.18 1.84247 37.2833 1.84247V4.25156C37.7803 4.25156 38.18 4.34879 38.5149 4.53244C39.9841 5.37508 40.6215 8.5836 40.1245 12.7104C40.0057 13.7259 39.8112 14.7954 39.5736 15.8865C37.4562 15.3679 35.1443 14.9682 32.7136 14.709C31.2552 12.7104 29.7428 10.8955 28.2195 9.30741C31.7413 6.03407 35.0471 4.24076 37.2941 4.24076V1.83167C34.3233 1.83167 30.4342 3.94907 26.5018 7.62213C22.5695 3.97068 18.6804 1.87488 15.7095 1.87488V4.28397C17.9458 4.28397 21.2623 6.06648 24.7841 9.31821C23.2717 10.9063 21.7593 12.7104 20.3225 14.709C17.881 14.9682 15.5691 15.3679 13.4517 15.8973C13.2032 14.817 13.0196 13.7691 12.8899 12.7644C12.3822 8.63762 13.0088 5.4291 14.4672 4.57565C14.7913 4.3812 15.2126 4.29477 15.7095 4.29477V1.88568C14.8021 1.88568 13.981 2.08014 13.268 2.49065C10.2324 4.24076 9.55177 9.69632 11.1182 16.5455C4.39869 18.6197 0.0234375 21.9362 0.0234375 25.4364C0.0234375 28.9474 4.4203 32.2748 11.1614 34.3382C9.60579 41.209 10.2972 46.6753 13.3437 48.4254C14.0459 48.8359 14.8669 49.0304 15.7744 49.0304C18.7452 49.0304 22.6343 46.913 26.5667 43.2399C30.499 46.8914 34.3881 48.9872 37.3589 48.9872C38.2664 48.9872 39.0874 48.7927 39.8004 48.3822C42.8361 46.6321 43.5167 41.1765 41.9503 34.3274C48.6482 32.264 53.0234 28.9366 53.0234 25.4364ZM38.9578 18.2308C38.5581 19.6244 38.0611 21.0612 37.4994 22.498C37.0565 21.6337 36.5919 20.7695 36.0842 19.9052C35.5872 19.041 35.0579 18.1984 34.5285 17.3773C36.0626 17.6042 37.5426 17.8851 38.9578 18.2308ZM34.01 29.7361C33.1673 31.1945 32.3031 32.5773 31.4064 33.8629C29.7968 34.0033 28.1655 34.0789 26.5234 34.0789C24.8922 34.0789 23.2609 34.0033 21.662 33.8737C20.7654 32.5881 19.8903 31.2161 19.0477 29.7685C18.2267 28.3533 17.4812 26.9165 16.8006 25.4688C17.4704 24.0212 18.2267 22.5736 19.0369 21.1584C19.8795 19.7 20.7438 18.3172 21.6404 17.0316C23.2501 16.8912 24.8814 16.8156 26.5234 16.8156C28.1547 16.8156 29.786 16.8912 31.3848 17.0208C32.2815 18.3064 33.1565 19.6784 33.9992 21.126C34.8202 22.5412 35.5656 23.978 36.2462 25.4256C35.5656 26.8732 34.8202 28.3209 34.01 29.7361ZM37.4994 28.3317C38.0828 29.7793 38.5797 31.2269 38.9902 32.6313C37.575 32.977 36.0842 33.2687 34.5393 33.4955C35.0687 32.6637 35.598 31.8103 36.095 30.9352C36.5919 30.071 37.0565 29.1959 37.4994 28.3317ZM26.545 39.8586C25.5404 38.8215 24.5357 37.6655 23.5418 36.4016C24.5141 36.4448 25.5079 36.4772 26.5126 36.4772C27.5281 36.4772 28.5328 36.4556 29.5159 36.4016C28.5436 37.6655 27.5389 38.8215 26.545 39.8586ZM18.5075 33.4955C16.9735 33.2687 15.4935 32.9878 14.0783 32.6421C14.478 31.2485 14.9749 29.8117 15.5367 28.3749C15.9796 29.2391 16.4441 30.1034 16.9519 30.9676C17.4596 31.8319 17.9782 32.6745 18.5075 33.4955ZM26.491 11.0143C27.4957 12.0514 28.5004 13.2073 29.4943 14.4713C28.522 14.4281 27.5281 14.3957 26.5234 14.3957C25.5079 14.3957 24.5033 14.4173 23.5202 14.4713C24.4925 13.2073 25.4971 12.0514 26.491 11.0143ZM18.4967 17.3773C17.9674 18.2092 17.438 19.0626 16.9411 19.9377C16.4441 20.8019 15.9796 21.6662 15.5367 22.5304C14.9533 21.0828 14.4564 19.6352 14.0459 18.2308C15.4611 17.8959 16.9519 17.6042 18.4967 17.3773ZM8.71993 30.9028C4.89564 29.2715 2.42173 27.1325 2.42173 25.4364C2.42173 23.7403 4.89564 21.5905 8.71993 19.9701C9.649 19.5704 10.6645 19.2139 11.7124 18.879C12.3282 20.9964 13.1384 23.2002 14.1431 25.458C13.1492 27.7051 12.3498 29.8981 11.7448 32.0047C10.6753 31.6698 9.6598 31.3025 8.71993 30.9028ZM14.532 46.3404C13.0628 45.4978 12.4254 42.2893 12.9223 38.1625C13.0412 37.147 13.2356 36.0775 13.4733 34.9864C15.5907 35.5049 17.9026 35.9046 20.3333 36.1639C21.7917 38.1625 23.3041 39.9774 24.8274 41.5655C21.3055 44.8388 17.9998 46.6321 15.7527 46.6321C15.2666 46.6213 14.8561 46.5241 14.532 46.3404ZM40.157 38.1085C40.6647 42.2353 40.0381 45.4438 38.5797 46.2972C38.2556 46.4917 37.8343 46.5781 37.3373 46.5781C35.1011 46.5781 31.7846 44.7956 28.2627 41.5439C29.7752 39.9558 31.2876 38.1517 32.7244 36.1531C35.1659 35.8938 37.4778 35.4941 39.5952 34.9648C39.8437 36.0559 40.0381 37.1038 40.157 38.1085ZM44.3161 30.9028C43.3871 31.3025 42.3716 31.659 41.3237 31.9939C40.7079 29.8765 39.8977 27.6727 38.893 25.4148C39.8869 23.1678 40.6863 20.9748 41.2913 18.8682C42.3608 19.203 43.3763 19.5704 44.3269 19.9701C48.1512 21.6013 50.6251 23.7403 50.6251 25.4364C50.6143 27.1325 48.1404 29.2823 44.3161 30.9028Z" fill="#61DAFB"/>
<path d="M26.5132 30.3735C29.2398 30.3735 31.4502 28.1631 31.4502 25.4365C31.4502 22.7098 29.2398 20.4995 26.5132 20.4995C23.7865 20.4995 21.5762 22.7098 21.5762 25.4365C21.5762 28.1631 23.7865 30.3735 26.5132 30.3735Z" fill="#61DAFB"/>
</g>
<defs>
<clipPath id="clip0_1095_396">
<rect width="53" height="50" fill="white"/>
</clipPath>
</defs>
</svg>
