<svg width="53" height="53" viewBox="0 0 53 53" fill="none" xmlns="http://www.w3.org/2000/svg">
<path d="M26.5 10.5586C19.4333 10.5586 15.0167 14.0919 13.25 21.1586C15.9 17.6253 18.9917 16.3003 22.525 17.1836C24.541 17.6876 25.9819 19.1501 27.5768 20.769C30.175 23.4063 33.182 26.4586 39.75 26.4586C46.8167 26.4586 51.2333 22.9253 53 15.8586C50.35 19.3919 47.2583 20.7169 43.725 19.8336C41.709 19.3296 40.2681 17.8671 38.6732 16.2481C36.075 13.6109 33.068 10.5586 26.5 10.5586ZM13.25 26.4586C6.18333 26.4586 1.76667 29.9919 0 37.0586C2.65 33.5253 5.74167 32.2003 9.275 33.0836C11.291 33.5876 12.7319 35.0501 14.3268 36.669C16.925 39.3063 19.932 42.3586 26.5 42.3586C33.5667 42.3586 37.9833 38.8253 39.75 31.7586C37.1 35.2919 34.0083 36.6169 30.475 35.7336C28.459 35.2296 27.0181 33.7671 25.4232 32.1481C22.825 29.5109 19.818 26.4586 13.25 26.4586Z" fill="url(#paint0_linear_1095_422)"/>
<defs>
<linearGradient id="paint0_linear_1095_422" x1="-147.222" y1="1028.16" x2="4430.2" y2="3667.39" gradientUnits="userSpaceOnUse">
<stop stop-color="#2298BD"/>
<stop offset="1" stop-color="#0ED7B5"/>
</linearGradient>
</defs>
</svg>
