<svg width="61" height="61" viewBox="0 0 61 61" fill="none" xmlns="http://www.w3.org/2000/svg">
<g clip-path="url(#clip0_1175_839)">
<path d="M30.9351 57.2969C45.8467 57.2969 57.9351 45.2086 57.9351 30.2969C57.9351 15.3852 45.8467 3.29688 30.9351 3.29688C16.0234 3.29688 3.93506 15.3852 3.93506 30.2969C3.93506 45.2086 16.0234 57.2969 30.9351 57.2969Z" fill="#E41E2A"/>
<path d="M27.7061 14.1367C27.7061 14.1367 32.207 18.0823 31.6042 21.5723C31.3327 23.1474 29.2612 25.6987 30.3797 28.1403C31.5847 30.7707 32.2107 35.8464 26.7885 34.5349C21.4428 33.2535 21.8547 26.6933 25.8277 23.2482C29.8007 19.803 28.4934 15.8886 27.7061 14.1367ZM31.8131 25.9729C31.5141 28.635 34.4593 31.2886 32.1163 34.8956C30.5132 37.392 32.9917 40.9042 36.1916 40.264C39.6884 39.5668 40.5686 37.3541 40.4757 34.7828C40.3539 31.5185 39.0519 30.6088 36.1679 28.1598C33.0333 25.5136 35.4475 20.4933 35.4475 20.4933C35.4475 20.4933 32.1595 23.0436 31.8131 25.9729ZM22.4179 37.6436C23.0439 39.3996 24.0126 42.2151 27.8437 43.6442C31.0685 44.8529 35.5852 45.0681 38.1876 41.7305C38.7861 40.9822 37.9988 41.2738 37.211 41.5723C36.2144 41.8863 35.1553 41.9476 34.1292 41.7505C33.103 41.5534 32.142 41.1042 31.3327 40.4433C29.1178 38.5976 29.9821 36.5293 28.8715 36.5056C25.2097 36.427 23.2996 34.9974 22.3114 33.7808C22.0873 33.4939 21.7408 35.7499 22.4179 37.6436Z" fill="white"/>
</g>
<defs>
<clipPath id="clip0_1175_839">
<rect width="54" height="54" fill="white" transform="translate(3.93506 3.29688)"/>
</clipPath>
</defs>
</svg>
