<svg width="61" height="61" viewBox="0 0 61 61" fill="none" xmlns="http://www.w3.org/2000/svg">
<g clip-path="url(#clip0_1175_827)">
<path d="M18.8749 29.0468C18.8749 29.6993 18.9412 30.2293 19.067 30.6202C19.2062 31.0078 19.385 31.4318 19.6302 31.8922C19.7084 32.0139 19.7509 32.155 19.7527 32.2997C19.7527 32.4752 19.6467 32.6541 19.4215 32.8297L18.3085 33.5717C18.1749 33.6681 18.016 33.7234 17.8514 33.7307C17.6725 33.7307 17.4969 33.6445 17.3214 33.4855C17.0833 33.2293 16.8703 32.9509 16.6854 32.6541C16.4883 32.3143 16.3059 31.9661 16.1388 31.6107C14.7641 33.2371 13.0383 34.052 10.958 34.052C9.47736 34.052 8.29479 33.6247 7.43354 32.7767C6.56898 31.9287 6.12842 30.7958 6.12842 29.3813C6.12842 27.8775 6.65842 26.6585 7.73167 25.7376C8.80823 24.8167 10.2359 24.3596 12.0512 24.3596C12.6474 24.3596 13.2669 24.4126 13.9194 24.4987C14.572 24.5882 15.2444 24.7306 15.9467 24.8896V23.5977C15.9467 22.2528 15.6651 21.3154 15.1185 20.7688C14.5554 20.219 13.6014 19.954 12.2433 19.954C11.6272 19.954 10.9945 20.0268 10.3419 20.1858C9.69357 20.3401 9.05706 20.5405 8.43723 20.7854C8.23712 20.876 8.0313 20.9535 7.82111 21.0173C7.73002 21.0474 7.63533 21.0652 7.53954 21.0703C7.29111 21.0703 7.16854 20.8914 7.16854 20.5204V19.6525C7.16854 19.371 7.20167 19.1557 7.29111 19.0364C7.42459 18.8739 7.59493 18.7456 7.78798 18.6621C8.40079 18.3441 9.14279 18.0791 10.0074 17.8671C10.8686 17.6352 11.7862 17.5325 12.7567 17.5325C14.8535 17.5325 16.3872 18.0095 17.3744 18.9635C18.3449 19.9175 18.8385 21.3684 18.8385 23.3162V29.0468H18.8716H18.8749ZM11.7166 31.7332C12.2963 31.7332 12.8959 31.6272 13.5319 31.4152C14.1645 31.2032 14.731 30.8123 15.2047 30.2823C15.4887 29.9569 15.6939 29.5704 15.8042 29.1528C15.9102 28.7255 15.9831 28.2153 15.9831 27.6125V26.8705C15.4481 26.7407 14.9062 26.6412 14.36 26.5723C13.8107 26.5013 13.2576 26.4648 12.7037 26.463C11.5212 26.463 10.6566 26.6949 10.0769 27.1719C9.49392 27.6489 9.21567 28.3213 9.21567 29.2058C9.21567 30.0339 9.42436 30.6533 9.86492 31.0807C10.2889 31.5212 10.905 31.7332 11.7166 31.7332ZM25.8709 33.6445C25.5529 33.6445 25.3409 33.5915 25.2018 33.4657C25.0594 33.3597 24.9368 33.1145 24.8308 32.7767L20.6902 19.106C20.6085 18.8768 20.554 18.6389 20.5279 18.3971C20.5279 18.1155 20.6703 17.9565 20.9519 17.9565H22.681C23.0122 17.9565 23.2441 18.0095 23.3667 18.1321C23.5091 18.2381 23.6151 18.4865 23.7211 18.8211L26.6825 30.5308L29.4319 18.8211C29.518 18.47 29.624 18.2381 29.7631 18.1321C29.9757 18.0019 30.2232 17.9406 30.472 17.9565H31.8798C32.2177 17.9565 32.4429 18.0095 32.5854 18.1321C32.7278 18.2381 32.8504 18.4865 32.9199 18.8211L35.7057 30.6732L38.7532 18.8211C38.8097 18.5646 38.9319 18.3272 39.1077 18.1321C39.3129 18.002 39.5542 17.9405 39.7967 17.9565H41.4364C41.7179 17.9565 41.8769 18.099 41.8769 18.3971C41.8769 18.4865 41.857 18.576 41.8438 18.682C41.8153 18.8323 41.7732 18.9798 41.7179 19.1225L37.468 32.7932C37.362 33.1477 37.2394 33.3795 37.1003 33.4855C36.9003 33.6135 36.6649 33.6749 36.4279 33.6611H34.914C34.5795 33.6611 34.3509 33.6081 34.2085 33.4855C34.066 33.3597 33.9435 33.1311 33.8739 32.7767L31.1411 21.3717L28.4249 32.7634C28.3387 33.1178 28.2327 33.3464 28.0936 33.469C27.9512 33.5948 27.7027 33.6478 27.388 33.6478H25.8709V33.6445ZM48.5218 34.1215C47.607 34.1228 46.6953 34.016 45.8055 33.8035C44.9244 33.5915 44.2387 33.3597 43.7783 33.0947C43.4967 32.9357 43.3046 32.7601 43.2317 32.5978C43.1644 32.4419 43.1295 32.274 43.129 32.1042V31.2032C43.129 30.8322 43.2682 30.6533 43.5332 30.6533C43.6413 30.6536 43.7488 30.6715 43.8512 30.7063C43.9572 30.7428 44.1162 30.8123 44.2917 30.8852C44.888 31.1502 45.5439 31.3622 46.2295 31.5047C46.9351 31.6438 47.6208 31.7167 48.3264 31.7167C49.4394 31.7167 50.3006 31.5212 50.9002 31.1337C51.1882 30.9593 51.4249 30.7117 51.586 30.4161C51.7472 30.1205 51.8272 29.7875 51.8177 29.4509C51.8237 29.2237 51.7846 28.9975 51.7027 28.7854C51.6209 28.5734 51.4978 28.3796 51.3407 28.2153C51.026 27.8775 50.4265 27.576 49.5619 27.2945L47.0047 26.4995C45.7194 26.092 44.7654 25.4892 44.1857 24.6942C43.6183 23.9596 43.3086 23.0585 43.3046 22.1303C43.3046 21.3883 43.4636 20.7324 43.7783 20.166C44.0963 19.6028 44.5203 19.106 45.0503 18.7151C45.5803 18.311 46.1765 18.0095 46.8821 17.7975C47.5877 17.5855 48.3264 17.4961 49.1015 17.4961C49.4924 17.4961 49.8965 17.5127 50.284 17.5657C50.6882 17.6187 51.0592 17.6915 51.4302 17.7644C51.7813 17.8505 52.1192 17.9367 52.4339 18.046C52.7519 18.152 52.997 18.258 53.1759 18.364C53.3839 18.4684 53.5652 18.6191 53.7059 18.8045C53.8192 18.977 53.8739 19.1815 53.8615 19.3875V20.219C53.8615 20.59 53.7224 20.7854 53.4574 20.7854C53.2228 20.7586 52.9956 20.6866 52.7883 20.5734C51.7231 20.1011 50.568 19.866 49.4029 19.8844C48.3992 19.8844 47.6042 20.0434 47.0577 20.3813C46.5111 20.7125 46.2295 21.2293 46.2295 21.9547C46.2295 22.4483 46.4051 22.8723 46.7595 23.2102C47.1107 23.5447 47.7632 23.8793 48.6974 24.1807L51.2016 24.9757C52.4703 25.3832 53.3879 25.9496 53.9344 26.675C54.481 27.4005 54.7427 28.2319 54.7427 29.1528C54.7427 29.9147 54.587 30.6003 54.2855 31.2032C53.9735 31.8082 53.5352 32.3391 53.0003 32.7601C52.4537 33.2007 51.8012 33.522 51.0426 33.7505C50.2476 33.999 49.4195 34.1215 48.5218 34.1215Z" fill="#0F0F10"/>
<path fill-rule="evenodd" clip-rule="evenodd" d="M51.8501 42.7149C46.0533 47.0112 37.6263 49.2935 30.3818 49.2935C20.229 49.2935 11.0799 45.5272 4.17002 39.2666C3.62345 38.7697 4.11702 38.0973 4.76627 38.4881C12.2426 42.8375 21.4613 45.4742 31.0013 45.4742C37.4308 45.4742 44.4997 44.1293 51.0055 41.37C51.976 40.9295 52.8041 42.006 51.8501 42.7149Z" fill="#FF9900"/>
<path fill-rule="evenodd" clip-rule="evenodd" d="M54.2658 39.9551C53.5271 39.0044 49.3666 39.498 47.4818 39.7266C46.9187 39.7994 46.8292 39.3026 47.3393 38.9316C50.6518 36.5962 56.1009 37.2687 56.7336 38.0471C57.3696 38.8421 56.558 44.3077 53.4542 46.9246C52.9805 47.3321 52.5234 47.1234 52.7321 46.5934C53.4377 44.8377 55.0078 40.8959 54.2658 39.9584V39.9551Z" fill="#FF9900"/>
</g>
<defs>
<clipPath id="clip0_1175_827">
<rect width="53" height="53" fill="white" transform="translate(3.93506 3.58398)"/>
</clipPath>
</defs>
</svg>
