<svg width="61" height="61" viewBox="0 0 61 61" fill="none" xmlns="http://www.w3.org/2000/svg">
<g clip-path="url(#clip0_1175_833)">
<path d="M39.5206 39.8514C40.9264 36.5286 39.0094 34.995 37.0924 34.995L18.1783 34.7394C17.6672 34.7394 17.6672 33.9726 18.3061 33.8448L37.4758 33.5892C39.6484 33.4614 42.2044 31.6722 42.9712 29.3718C42.9712 29.3718 44.2491 26.688 44.1213 26.3046C43.5681 23.6352 42.1504 21.2227 40.0877 19.4403C38.0249 17.658 35.4322 16.6053 32.7108 16.4452C29.9895 16.2851 27.2912 17.0266 25.0337 18.5548C22.7763 20.083 21.0855 22.3127 20.2231 24.8988C15.3668 21.7038 10.2549 26.049 11.4051 30.7776C5.27075 31.161 3.09818 36.6564 3.73717 39.9792C3.73717 40.107 3.86497 40.2348 4.12056 40.2348H39.1372C39.265 40.2348 39.5206 40.107 39.5206 39.8514Z" fill="#F38020"/>
<path d="M45.9117 26.8152C45.4005 26.8152 45.1449 26.6874 45.0171 26.943L44.3781 29.6268C43.7392 31.6716 44.7615 33.4608 46.9341 33.5886L51.0236 33.8442C51.5348 33.8442 51.5348 34.611 50.8958 34.7388L46.6785 34.8666C42.0778 35.3778 40.7998 39.8507 40.7998 39.8507C40.7998 40.1063 40.7998 40.2341 41.0554 40.2341H55.4966L55.88 39.9785C56.3145 38.4388 56.3862 36.8192 56.0895 35.2471C55.7928 33.6749 55.1357 32.1929 54.1698 30.9175C53.204 29.642 51.9556 28.6078 50.5228 27.896C49.0899 27.1842 47.5116 26.8143 45.9117 26.8152Z" fill="#FAAE40"/>
</g>
<defs>
<clipPath id="clip0_1175_833">
<rect width="53" height="53" fill="white" transform="translate(3.43848 3.91602)"/>
</clipPath>
</defs>
</svg>
