<svg width="61" height="61" viewBox="0 0 61 61" fill="none" xmlns="http://www.w3.org/2000/svg">
<g clip-path="url(#clip0_1175_859)">
<path fill-rule="evenodd" clip-rule="evenodd" d="M16.8765 21.1446H27.0927L25.5105 27.3756C25.2687 28.2444 24.8169 28.9416 24.1545 29.4684C23.4921 29.9952 22.7229 30.2592 21.8493 30.2592H17.1033C16.0173 30.2592 15.0603 30.5844 14.2323 31.2354C13.4037 31.887 12.8229 32.7696 12.4917 33.8856C12.2805 34.7232 12.2577 35.5134 12.4239 36.2574C12.5901 37.0014 12.8829 37.6608 13.3059 38.2338C13.7337 38.8119 14.291 39.2816 14.9331 39.6054C15.5967 39.9468 16.3191 40.1166 17.1027 40.1166H19.9959C20.5383 40.1166 20.9823 40.3422 21.3291 40.791C21.6759 41.2398 21.7731 41.7444 21.6231 42.3024L19.8147 49.1844H16.6509C14.4807 49.1844 12.4839 48.696 10.6611 47.7198C8.83773 46.7436 7.32273 45.4494 6.11793 43.8366C4.91313 42.2244 4.09053 40.389 3.65433 38.3268C3.21813 36.2652 3.27033 34.1496 3.81273 31.9788L3.99333 31.2816C4.37349 29.8188 4.99197 28.4286 5.82393 27.1668C6.65313 25.9116 7.63233 24.8418 8.76213 23.958C9.90088 23.0699 11.1755 22.3713 12.5367 21.8892C13.9294 21.392 15.3978 21.1396 16.8765 21.1446ZM22.0299 49.1844L30.9351 14.8674C31.1751 13.9998 31.6275 13.3026 32.2911 12.7746C32.9547 12.2472 33.7221 11.9844 34.5963 11.9844H44.0445C46.2141 11.9844 48.2103 12.4728 50.0337 13.449C51.8577 14.4258 53.3715 15.7206 54.5769 17.3322C55.7829 18.9432 56.6109 20.781 57.0633 22.842C57.5151 24.9036 57.4545 27.0198 56.8821 29.1894L56.7021 29.8872C56.3225 31.3465 55.7118 32.7357 54.8931 34.002C54.1038 35.2309 53.119 36.3227 51.9777 37.2342C50.8437 38.1352 49.5682 38.8421 48.2031 39.3264C46.8104 39.8233 45.342 40.075 43.8633 40.0704H35.6817L37.3089 33.7926C37.5495 32.9556 38.0019 32.2746 38.6649 31.7466C39.3285 31.2192 40.0959 30.9564 40.9701 30.9564H43.5921C44.6769 30.9564 45.6489 30.6156 46.5081 29.9334C47.3661 29.2512 47.9319 28.3686 48.2031 27.2832C48.4131 26.5086 48.4359 25.7484 48.2709 25.0044C48.1059 24.2604 47.8113 23.6022 47.3889 23.028C46.9677 22.4544 46.4247 21.99 45.7623 21.633C45.0999 21.2766 44.3757 21.0984 43.5921 21.0984H38.5293L31.9293 46.3482C31.6875 47.1846 31.2357 47.8674 30.5733 48.3942C29.9347 48.9124 29.1355 49.1918 28.3131 49.1844H22.0299Z" fill="#FF6C2C"/>
</g>
<defs>
<clipPath id="clip0_1175_859">
<rect width="54" height="54" fill="white" transform="translate(3.3623 3.58398)"/>
</clipPath>
</defs>
</svg>
