<svg width="61" height="61" viewBox="0 0 61 61" fill="none" xmlns="http://www.w3.org/2000/svg">
<path d="M9.94971 30.3277C9.94971 38.3227 14.596 45.2319 21.3334 48.5061L11.6984 22.1074C10.5777 24.6195 9.94971 27.3994 9.94971 30.3277Z" fill="#21759B"/>
<path d="M43.7831 29.3094C43.7831 26.8131 42.8865 25.0843 42.1174 23.7388C41.0935 22.075 40.1338 20.666 40.1338 19.0022C40.1338 17.1454 41.542 15.4171 43.5256 15.4171C43.6152 15.4171 43.7001 15.4282 43.7874 15.4332C40.1938 12.141 35.4061 10.1309 30.1476 10.1309C23.0911 10.1309 16.8829 13.7513 13.2712 19.2351C13.7451 19.2493 14.1917 19.2593 14.5711 19.2593C16.6838 19.2593 19.9541 19.0029 19.9541 19.0029C21.043 18.9387 21.1713 20.538 20.0836 20.6667C20.0836 20.6667 18.9894 20.7955 17.7718 20.8593L25.1273 42.7378L29.5476 29.4808L26.4006 20.8585C25.313 20.7947 24.2825 20.666 24.2825 20.666C23.1941 20.6022 23.3217 18.938 24.4101 19.0022C24.4101 19.0022 27.7458 19.2585 29.7305 19.2585C31.8429 19.2585 35.1136 19.0022 35.1136 19.0022C36.2032 18.938 36.3312 20.5372 35.2431 20.666C35.2431 20.666 34.1466 20.7947 32.9313 20.8585L40.2307 42.5714L42.2454 35.8389C43.1186 33.0451 43.7831 31.0385 43.7831 29.3094Z" fill="#21759B"/>
<path d="M30.5024 32.0938L24.4421 49.7038C26.2516 50.2357 28.1652 50.5266 30.148 50.5266C32.5002 50.5266 34.7559 50.12 36.8555 49.3817C36.8013 49.2952 36.7521 49.2034 36.7118 49.1034L30.5024 32.0938Z" fill="#21759B"/>
<path d="M47.8716 20.6367C47.9584 21.2801 48.0076 21.9708 48.0076 22.7137C48.0076 24.7634 47.6248 27.0675 46.4718 29.9485L40.302 47.7868C46.3069 44.2851 50.3459 37.7794 50.3459 30.3278C50.3463 26.8161 49.4493 23.5139 47.8716 20.6367Z" fill="#21759B"/>
<path d="M30.1484 6.7832C17.1658 6.7832 6.60303 17.3452 6.60303 30.3278C6.60303 43.3119 17.1658 53.8735 30.1484 53.8735C43.1306 53.8735 53.6949 43.3119 53.6949 30.3278C53.6945 17.3452 43.1306 6.7832 30.1484 6.7832ZM30.1484 52.7943C17.7611 52.7943 7.68263 42.7158 7.68263 30.3278C7.68263 17.9406 17.7608 7.86281 30.1484 7.86281C42.5352 7.86281 52.613 17.9406 52.613 30.3278C52.613 42.7158 42.5352 52.7943 30.1484 52.7943Z" fill="#21759B"/>
</svg>
