<svg width="61" height="61" viewBox="0 0 61 61" fill="none" xmlns="http://www.w3.org/2000/svg">
<g clip-path="url(#clip0_1175_855)">
<path d="M30.3623 56.584C44.7217 56.584 56.3623 44.9434 56.3623 30.584C56.3623 16.2246 44.7217 4.58398 30.3623 4.58398C16.0029 4.58398 4.3623 16.2246 4.3623 30.584C4.3623 44.9434 16.0029 56.584 30.3623 56.584Z" fill="#6D45CE"/>
<path d="M19.2534 29.7573V17.584L25.3893 20.8599V26.3443L33.5108 26.3488L39.7457 29.7573H19.2534ZM35.1708 25.3393V17.584L41.4712 20.7786V29.0052L35.1708 25.3393ZM35.1708 40.2182V34.7811L26.9869 34.775C26.9955 34.8115 20.6489 31.3117 20.6489 31.3117L41.4692 31.4097V43.584L35.1708 40.2197V40.2182ZM19.2534 40.2182V32.2654L25.3893 35.8449V43.4149L19.2534 40.2182Z" fill="white"/>
</g>
<defs>
<clipPath id="clip0_1175_855">
<rect width="52" height="52" fill="white" transform="translate(4.3623 4.58398)"/>
</clipPath>
</defs>
</svg>
