<svg width="61" height="61" viewBox="0 0 61 61" fill="none" xmlns="http://www.w3.org/2000/svg">
<g clip-path="url(#clip0_1183_682)">
<path d="M5.35173 8.09754C5.19324 8.0335 5.02991 7.98214 4.86329 7.94395C4.73386 7.91448 4.60673 7.87568 4.4829 7.82787C4.40466 7.79849 4.33542 7.74925 4.28199 7.68499C4.23497 7.6173 4.21145 7.53606 4.21502 7.45372C4.21502 7.31353 4.26234 7.20548 4.35699 7.12512C4.45343 7.04475 4.59362 7.00279 4.77043 7.00279C5.20797 7.00279 5.41871 7.20816 5.41871 7.62517V7.65463H5.72231V7.62517C5.72231 7.33139 5.63926 7.10458 5.48032 6.95546C5.31959 6.80366 5.08207 6.72687 4.76953 6.72687C4.61214 6.72357 4.45598 6.75529 4.31235 6.81973C4.18985 6.87412 4.0864 6.96387 4.01528 7.07748C3.94416 7.19108 3.90861 7.32334 3.9132 7.45729C3.9132 7.62517 3.94892 7.75911 4.01946 7.85912C4.0909 7.95734 4.18912 8.03771 4.31056 8.09039C4.42932 8.14397 4.59095 8.19487 4.78918 8.24398C4.96062 8.28863 5.09457 8.33059 5.18922 8.3681C5.26927 8.39739 5.34056 8.44655 5.39638 8.51097C5.44371 8.56901 5.46782 8.64937 5.46782 8.74849C5.46782 8.90744 5.41424 9.03156 5.30709 9.11639C5.20172 9.20568 5.04188 9.24854 4.83651 9.24854C4.6222 9.24854 4.45254 9.19318 4.33467 9.08335C4.21859 8.97441 4.15876 8.80118 4.15876 8.5708V8.54133H3.85962V8.5708C3.85962 8.87975 3.94624 9.11817 4.1159 9.28247C4.28556 9.44588 4.52755 9.52803 4.83651 9.52803C5.12046 9.52803 5.34906 9.4566 5.51514 9.3173C5.59837 9.24744 5.6645 9.15946 5.70846 9.06009C5.75242 8.96072 5.77304 8.8526 5.76874 8.74403C5.77531 8.59844 5.73527 8.45454 5.65444 8.33327C5.57583 8.22948 5.47106 8.14843 5.35084 8.09843M11.7827 8.54758C11.7637 8.74216 11.6749 8.92329 11.5327 9.05745C11.3893 9.18378 11.2032 9.25082 11.0121 9.24497C10.8524 9.24804 10.6956 9.2019 10.563 9.11281C10.4304 9.01545 10.3285 8.88222 10.2692 8.72885C10.2022 8.56097 10.1674 8.35828 10.1674 8.1279C10.1674 7.89752 10.2031 7.69392 10.2692 7.52694C10.3285 7.37304 10.4311 7.23966 10.5647 7.14298C10.6995 7.05356 10.8584 7.00745 11.0201 7.01082C11.2291 7.01082 11.4041 7.07333 11.5381 7.19388C11.672 7.31799 11.7488 7.48319 11.7684 7.69214L11.7711 7.71803H12.0801L12.0783 7.68857C12.071 7.51424 12.021 7.34438 11.9327 7.19388C11.8448 7.04787 11.7181 6.92915 11.5666 6.85098C11.3975 6.76515 11.2098 6.72251 11.0201 6.72687C10.7817 6.72687 10.5737 6.78401 10.3978 6.89653C10.2181 7.01551 10.0774 7.18476 9.99326 7.38318C9.89548 7.61901 9.84803 7.87267 9.85396 8.1279C9.85396 8.41364 9.90129 8.66366 9.99326 8.87261C10.0861 9.08156 10.2219 9.24497 10.3951 9.35927C10.5692 9.47178 10.7782 9.52893 11.0121 9.52893C11.213 9.52893 11.3943 9.48874 11.5523 9.40838C11.7077 9.32801 11.8336 9.21372 11.9247 9.06727C12.0158 8.92083 12.072 8.74849 12.0917 8.55562L12.0961 8.52347H11.7863L11.7827 8.54758ZM17.8092 8.46632C17.8092 8.72528 17.7485 8.92172 17.6324 9.05209C17.5163 9.17978 17.3484 9.24497 17.1341 9.24497C16.9198 9.24497 16.7502 9.17978 16.6341 9.05209C16.5153 8.92172 16.4555 8.72438 16.4555 8.46632V6.77598H16.159V8.47079C16.159 8.811 16.243 9.07531 16.4091 9.25479C16.576 9.43606 16.8198 9.52893 17.1341 9.52893C17.4493 9.52893 17.6931 9.43784 17.8592 9.25658C18.0244 9.07799 18.1074 8.81368 18.1074 8.47079V6.77598H17.8092V8.46632ZM23.0044 6.77598H22.2025V9.4816H23.0044C23.4419 9.4816 23.7848 9.36105 24.025 9.12799C24.2634 8.89404 24.3857 8.55651 24.3857 8.1279C24.3857 7.69839 24.2634 7.36086 24.025 7.1269C23.7839 6.89474 23.4401 6.77598 23.0044 6.77598ZM24.0723 8.1279C24.0723 8.47257 23.9794 8.74046 23.7964 8.92529C23.6133 9.11013 23.3455 9.203 23.0044 9.203H22.4998V7.051H23.0044C23.3455 7.051 23.6133 7.14476 23.7964 7.3296C23.9794 7.51444 24.0732 7.78233 24.0732 8.1279M28.8755 8.22969H30.2113V7.95466H28.8755V7.0519H30.281V6.77598H28.5754V9.47892H30.3247V9.203H28.8746L28.8755 8.22969ZM36.1083 8.31273C36.0636 8.25712 36.006 8.21328 35.9404 8.18504C36.0649 8.14556 36.1741 8.06851 36.253 7.96449C36.3534 7.83502 36.4058 7.67468 36.4012 7.51087C36.4012 7.27424 36.3226 7.09119 36.1646 6.9635C36.011 6.83848 35.7752 6.77598 35.4654 6.77598H34.66V9.47892H34.9591V8.31273H35.477C35.6172 8.31273 35.7252 8.3422 35.7967 8.39935C35.8699 8.4565 35.9342 8.56722 35.9896 8.72438L36.2485 9.47892H36.5726L36.2815 8.66902C36.2407 8.54275 36.1824 8.42283 36.1083 8.31273ZM36.0958 7.52159C36.0988 7.59148 36.0867 7.66121 36.0602 7.72595C36.0337 7.7907 35.9934 7.84893 35.9422 7.89662C35.8422 7.9886 35.6842 8.03771 35.4815 8.03771H34.9591V7.0519H35.4618C35.8869 7.0519 36.0958 7.20638 36.0958 7.52159ZM41.6214 9.47981H41.9196V6.77598H41.6214V9.47981ZM48.1166 6.77598H47.7487L46.6772 9.4816H46.9978L47.3282 8.62437H48.5327L48.8551 9.46106L48.864 9.48071H49.1846L48.1166 6.77598ZM47.9291 7.06976L48.3309 8.10825L48.422 8.34399H47.4371L47.53 8.10825C47.6541 7.79036 47.7818 7.46176 47.9077 7.12601L47.9291 7.06976ZM33.8385 38.2041C34.0117 38.3853 34.2206 38.4425 34.459 38.3576V41.5008C34.459 41.5008 34.459 41.4946 34.0903 41.4946C31.4064 41.4372 28.804 40.5614 26.6315 38.9845C27.7762 37.9165 29.0424 36.2405 29.7916 34.5966C30.2685 34.6126 30.8596 34.6055 31.6552 34.5126C32.0633 34.4653 32.3035 34.4608 32.7116 34.4456C32.8767 34.4394 33.1741 34.3412 33.1295 34.0349C33.1027 33.8518 33.0044 33.6 32.9276 33.4027C32.8375 33.1723 33.1348 33.0402 33.2509 33.2214C33.3179 33.3286 33.4643 33.6733 33.5134 33.7875C33.6099 34.0081 33.8706 34.2697 34.0581 34.4081C34.2206 34.526 34.3956 34.6189 34.585 34.6876C34.9653 34.8234 35.2984 35.0448 35.5895 35.3216C35.6806 35.4082 35.761 35.5074 35.836 35.6074C36.0985 35.9503 36.1708 36.1199 35.8092 36.5316C35.5016 36.8963 35.0694 37.1338 34.5966 37.1977C34.2697 37.2423 34.0179 37.1361 33.8777 36.8191C33.8507 36.762 33.8209 36.7063 33.7884 36.6521C33.7277 36.5432 33.6688 36.4316 33.5982 36.3271C33.4973 36.1771 33.3572 36.0922 33.1696 36.1217C32.8687 36.1663 32.5696 36.2146 32.2704 36.2717C32.2186 36.2806 32.0945 36.3619 32.1276 36.3896C32.2883 36.6664 32.4633 36.9164 32.666 37.1423C32.7101 37.1947 32.7659 37.2359 32.8289 37.2626C32.8919 37.2893 32.9603 37.3007 33.0285 37.2959C33.3205 37.2843 33.3322 37.2959 33.4518 37.5602C33.509 37.6844 33.5643 37.8103 33.6331 37.9263C33.6902 38.0246 33.7599 38.1192 33.8385 38.2041ZM34.9377 35.6252C34.6698 35.635 34.4073 35.6842 34.1322 35.7502C34.1412 35.9913 34.2269 36.1931 34.3171 36.3896C34.3974 36.5628 34.4778 36.6101 34.6653 36.586C34.768 36.5726 34.8725 36.5414 34.9636 36.4941C35.1448 36.3914 35.2091 36.2146 35.1627 36.0092C35.1255 35.8625 35.0474 35.7294 34.9377 35.6252ZM42.5938 31.7025C42.5244 31.48 42.3858 31.2854 42.1982 31.1471C42.0375 31.0292 41.8803 30.9087 41.716 30.7962C41.6464 30.7489 41.5651 30.7239 41.4865 30.6917C41.3865 30.6506 41.3017 30.6846 41.2365 30.7667C41.1793 30.8417 41.132 30.9248 41.0731 30.9989C41.0017 31.0917 40.9052 31.1176 40.7936 31.0837C40.6909 31.0542 40.6373 30.9739 40.6329 30.8426C40.6294 30.7897 40.633 30.7365 40.6436 30.6846C40.7329 30.3336 40.8775 30.0104 41.1008 29.7246C41.133 29.6838 41.1705 29.6475 41.2124 29.6166C41.3213 29.5336 41.424 29.5371 41.5276 29.6202C41.9044 30.0006 42.2259 30.3042 42.5679 30.5819C42.9384 30.881 43.0394 31.3105 43.1036 31.7463C43.092 31.8088 43.0902 31.8624 43.0724 31.9097C43.0604 31.9449 43.0381 31.9756 43.0082 31.9978C42.9784 32.0199 42.9426 32.0325 42.9054 32.0338C42.8304 32.0401 42.7536 32.032 42.7116 31.9588C42.667 31.8784 42.6232 31.7918 42.5938 31.7025ZM41.8276 33.7438C41.9705 33.7045 42.0678 33.7849 42.0893 33.9331C42.0982 33.9956 42.0982 34.0572 42.0991 34.0867C42.0991 34.5046 41.983 34.7028 41.4883 34.7385C41.282 34.7269 41.2204 34.6716 41.2008 34.5653C41.1561 34.2956 41.2365 34.0653 41.4571 33.9054C41.5642 33.8268 41.6981 33.7804 41.8276 33.7438ZM56.3433 15.0196L53.2645 23.5642H49.3355V28.2584C49.3319 28.3852 49.3373 28.5111 49.3355 28.637C49.2864 35.6413 43.6573 41.3204 36.7048 41.4901L36.0565 41.4999V37.6031L36.2932 37.4986C36.4896 37.4156 36.6593 37.2995 36.77 37.1084C36.8941 36.8977 37.0772 36.8137 37.3236 36.8146C37.6629 36.8173 37.7254 36.7539 37.7906 36.4324C37.8496 36.0824 37.8951 35.7904 37.9558 35.5029C38.013 35.2332 37.9835 34.9787 37.8335 34.7466C37.5701 34.3305 37.3058 33.9126 37.0298 33.5054C36.8387 33.225 36.7387 33.2107 36.478 33.4456L36.7164 33.8893C36.9057 34.1528 37.0986 34.4171 37.2825 34.6867C37.3452 34.7703 37.3888 34.8666 37.4102 34.9689C37.4821 35.3764 37.4131 35.7962 37.2147 36.1592C37.1897 36.2039 37.1263 36.2298 37.0673 36.2735C37.0343 36.2039 37.0004 36.161 36.9905 36.1128C36.9738 36.0194 36.9657 35.9246 36.9664 35.8297C36.9664 35.4815 36.8548 35.1779 36.6343 34.901C36.3637 34.5671 36.1137 34.2162 35.8619 33.8679C35.6154 33.5304 35.6476 33.1741 35.944 32.8767C36.0726 32.7517 36.2065 32.6339 36.3387 32.5124C36.5217 32.3463 36.6575 32.1499 36.7405 31.9186C36.8057 31.7418 36.8646 31.5605 36.9057 31.3775C36.9997 30.9239 37.0407 30.4609 37.028 29.9979L37.0316 29.6514C37.0316 29.5648 37.0638 29.488 37.1245 29.4246C37.2227 29.3246 37.3745 29.3326 37.4495 29.4523C37.4944 29.5225 37.527 29.5998 37.546 29.6809C37.637 30.0827 37.6861 30.489 37.6406 30.9007C37.5845 31.4123 37.4784 31.9171 37.3236 32.4079C37.2924 32.5044 37.2388 32.5973 37.2629 32.7232C37.3433 32.7232 37.4147 32.7312 37.4852 32.7232C37.6308 32.7053 37.7763 32.6758 37.9228 32.658C38.4193 32.6026 38.8506 32.416 39.1997 32.0472C39.3586 31.8793 39.5337 31.7284 39.7033 31.5686C39.7685 31.507 39.8435 31.4775 39.9319 31.515C40.0149 31.5507 40.0641 31.6409 40.0364 31.7534C40.0096 31.8758 39.9739 31.9981 39.9185 32.1106C39.8274 32.299 39.7274 32.4847 39.6131 32.6598C39.3702 33.0303 39.1658 33.4188 39.0104 33.834C38.9157 34.0903 38.805 34.3403 38.7157 34.5966C38.6282 34.8564 38.6907 34.9296 38.9532 34.8957C39.1613 34.8707 39.2184 34.9153 39.2327 35.1225C39.239 35.2055 39.2309 35.2904 39.2327 35.3725C39.2345 35.4672 39.2327 35.5636 39.2488 35.6565C39.3131 36.0324 39.7247 36.2726 40.0819 36.1413C40.2489 36.0788 40.407 35.9931 40.5641 35.911C40.6847 35.8458 40.7963 35.7672 40.9124 35.694C41.2365 35.4886 41.5892 35.3591 41.9732 35.3279C42.1307 35.317 42.2886 35.314 42.4464 35.3189C42.5727 35.3264 42.6989 35.3033 42.8144 35.2517C42.9298 35.2001 43.0312 35.1215 43.1099 35.0225C43.2045 34.9118 43.3028 34.7993 43.4135 34.7028C43.601 34.5358 43.7403 34.5242 43.9555 34.6582C44.1252 34.7618 44.2859 34.8814 44.4493 34.9966C44.7083 35.1779 44.9779 35.3413 45.269 35.4636C45.5333 35.5734 45.8075 35.6422 46.0968 35.6127C46.1343 35.6074 46.1682 35.5895 46.2343 35.5654C46.1656 35.5029 46.1245 35.4582 46.0771 35.4225C45.945 35.3198 45.7994 35.2305 45.6753 35.1189C45.4944 34.9591 45.3238 34.7879 45.1646 34.6064C44.9681 34.376 44.7886 34.1295 44.6056 33.8849C44.4966 33.7438 44.3886 33.6018 44.2957 33.45C44.251 33.3681 44.2253 33.2771 44.2207 33.1839C44.2184 33.1549 44.2237 33.1258 44.2359 33.0994C44.2481 33.073 44.2669 33.0502 44.2905 33.0332C44.3141 33.0161 44.3417 33.0054 44.3706 33.0021C44.3995 32.9988 44.4287 33.003 44.4556 33.0143C44.544 33.0472 44.6256 33.0959 44.6967 33.158C44.944 33.3866 45.186 33.6197 45.4271 33.8545C45.5762 34.0019 45.7146 34.1608 45.8664 34.3046C46.0414 34.4724 46.2343 34.618 46.4709 34.693C46.7272 34.7716 46.8665 34.7698 47.1844 34.6483C47.2201 34.6037 47.021 34.5144 47.021 34.5144C46.3531 34.1751 45.8584 33.7197 45.4226 33.1089C45.1286 32.6862 44.876 32.2361 44.6681 31.765C44.4216 31.2203 44.2404 30.6488 44.0394 30.0845C43.7957 29.4032 43.5492 28.7237 43.2929 28.0459C43.1233 27.5985 42.8554 27.2101 42.5563 26.8404C42.1598 26.3529 41.674 25.9734 41.1633 25.618C40.6454 25.2564 40.09 24.9626 39.5381 24.6554C38.6202 24.1464 37.6603 23.7151 36.778 23.1419C36.6262 23.0526 36.5548 23.0177 36.4842 22.9883C36.3938 22.9514 36.301 22.9204 36.2065 22.8954L36.0565 22.8686V15.0196H56.3433ZM36.2878 25.635C36.2215 25.5837 36.1629 25.5233 36.1137 25.4555C36.0792 25.4084 36.0597 25.3521 36.0576 25.2939C36.0556 25.2356 36.071 25.178 36.1021 25.1287C36.1292 25.0772 36.1705 25.0346 36.2212 25.0059C36.2719 24.9772 36.3297 24.9638 36.3878 24.967C36.4387 24.9688 36.4941 24.9724 36.5414 24.992C36.6477 25.034 36.7584 25.0724 36.8539 25.1349C37.3218 25.4341 37.696 25.8243 37.9674 26.3065C38.088 26.519 38.1505 26.7574 38.1532 26.9449C38.1407 27.0253 38.1532 27.128 38.0442 27.1753C37.9674 27.2065 37.8853 27.1735 37.8156 27.0592C37.5227 26.5681 37.0968 26.2181 36.6396 25.8966C36.5188 25.8138 36.402 25.7266 36.2878 25.635ZM25.2894 37.8719C24.8676 38.2728 24.4192 38.6448 23.9473 38.9854C21.6934 40.6224 18.9787 41.503 16.193 41.5008C8.89315 41.5008 2.95329 35.5583 2.95329 28.2584C2.95329 20.9577 8.89315 15.0196 16.193 15.0196C18.9789 15.0156 21.6943 15.8958 23.9482 17.5333C21.8895 19.5312 20.449 22.0792 19.7987 24.8733C19.3367 24.3798 18.7783 23.9864 18.1581 23.7176C17.5378 23.4488 16.869 23.3103 16.193 23.3106C13.4641 23.3106 11.2443 25.5305 11.2443 28.2593C11.2443 30.9882 13.4641 33.208 16.193 33.208C17.6136 33.208 18.8941 32.6071 19.7987 31.6454C20.6645 30.7304 21.1462 29.5181 21.1444 28.2584C21.1432 26.3117 21.5726 24.3889 22.4015 22.6275C23.2305 20.8661 24.4386 19.3098 25.9395 18.0699C26.1645 17.8824 26.3949 17.7056 26.6315 17.5342C28.8121 15.9519 31.4757 15.0196 34.4608 15.0196L34.4582 23.1186C34.4582 23.1186 34.3974 23.1812 34.2912 23.2258C34.144 23.2803 33.9913 23.3187 33.8358 23.3401C32.667 23.4705 31.5833 24.0142 30.7801 24.8733C29.9154 25.7889 29.4339 27.0008 29.4344 28.2602C29.4344 32.0401 27.8405 35.4582 25.2894 37.8719ZM30.8221 47.0174L30.3095 48.4399H28.996V52.4063H27.5691L27.5718 48.4399H26.2574L25.7475 47.0174H30.8221ZM25.2564 50.6919H22.9258L22.3096 52.4063H21.8917L23.8259 47.0174H24.3545L26.2913 52.4063H25.8734L25.2564 50.6919ZM24.0902 47.4487L23.0633 50.3061H25.1171L24.0902 47.4487ZM43.5081 50.1561H44.5422C44.7806 50.1561 44.9842 50.0731 45.1512 49.9061C45.3181 49.7391 45.403 49.5355 45.403 49.2989C45.403 49.0623 45.319 48.8596 45.1512 48.6917C44.9833 48.5238 44.7806 48.4399 44.5422 48.4399H43.5081V50.1561ZM46.1584 47.6853C46.6031 48.1309 46.8254 48.6702 46.8254 49.2989C46.8254 50.0177 46.5459 50.607 45.9888 51.0642L46.7844 52.4063H45.1279L44.6413 51.5786L44.5431 51.5821H43.5073V52.4063H42.0839V47.0165H44.5422C45.1726 47.0165 45.7119 47.2406 46.1584 47.6853ZM15.2304 47.8318C15.0971 47.695 14.9372 47.5869 14.7606 47.5141C14.5841 47.4413 14.3945 47.4054 14.2035 47.4085H12.3167V50.307H14.2044C14.6035 50.307 14.9491 50.1633 15.2313 49.8784C15.5126 49.5971 15.6536 49.2542 15.6536 48.8569C15.6536 48.4568 15.5126 48.1139 15.2304 47.8318ZM15.5 47.5621C15.859 47.9166 16.0403 48.3541 16.0403 48.8569C16.0403 49.3596 15.859 49.7963 15.5 50.1534C15.3325 50.3272 15.131 50.4647 14.9081 50.5575C14.6853 50.6502 14.4458 50.6963 14.2044 50.6928H12.3167V52.4045H11.9301V47.0183H14.2044C14.4461 47.0156 14.6857 47.0624 14.9086 47.156C15.1314 47.2495 15.3327 47.3877 15.5 47.5621ZM32.925 48.839L32.3731 50.482H33.4706L32.925 48.839ZM32.2133 47.0165H33.6358L35.5761 52.4045H34.1438L33.9233 51.7884H31.9258L31.7007 52.4045H30.272L32.2133 47.0165ZM8.56544 52.0197H11.2648V52.4054H8.1788V47.0147H8.56544V52.0197ZM20.7006 47.0156H21.0872V52.4054H20.7015V50.6901H17.21V52.4054H16.8243V47.0165H17.21V50.3026H20.7015L20.7006 47.0156ZM47.8675 47.0174H49.29V52.4037H47.8675V47.0174ZM40.8909 47.0174V49.9963C40.8909 50.3218 40.8268 50.6442 40.7021 50.9449C40.5775 51.2457 40.3948 51.5189 40.1645 51.7491C39.9342 51.9792 39.6609 52.1617 39.36 52.2861C39.0592 52.4105 38.7368 52.4744 38.4112 52.4742C38.0857 52.4743 37.7634 52.4103 37.4627 52.2858C37.1619 52.1614 36.8887 51.9789 36.6585 51.7487C36.4283 51.5186 36.2457 51.2454 36.1211 50.9447C35.9965 50.644 35.9324 50.3218 35.9324 49.9963V47.0165H37.3549V49.9954C37.3549 50.2757 37.4662 50.5445 37.6644 50.7427C37.8626 50.9408 38.1314 51.0522 38.4117 51.0522C38.6919 51.0522 38.9608 50.9408 39.1589 50.7427C39.3571 50.5445 39.4685 50.2757 39.4685 49.9954V47.0165L40.8909 47.0174ZM5.15261 47.4487L4.12572 50.3061H6.17949L5.15261 47.4487ZM6.31701 50.6919H3.98642L3.37208 52.4063H2.95239L4.8883 47.0174H5.41692L7.35372 52.4054H6.93403L6.31701 50.6919Z" fill="#011321"/>
</g>
<defs>
<clipPath id="clip0_1183_682">
<rect width="54" height="46.2672" fill="white" transform="translate(2.64844 6.44922)"/>
</clipPath>
</defs>
</svg>
