<svg width="61" height="61" viewBox="0 0 61 61" fill="none" xmlns="http://www.w3.org/2000/svg">
<path d="M31.1928 55.0574C44.567 55.0574 55.409 44.2155 55.409 30.8412C55.409 17.467 44.567 6.625 31.1928 6.625C17.8185 6.625 6.97656 17.467 6.97656 30.8412C6.97656 44.2155 17.8185 55.0574 31.1928 55.0574Z" fill="#2B2E3A"/>
<path d="M25.9909 20.187C21.071 19.291 17.1809 20.2288 15.6305 22.9142C14.4736 24.9181 14.8043 27.5749 16.4326 30.4148C16.4648 30.4738 16.5084 30.5257 16.5609 30.5676C16.6134 30.6096 16.6738 30.6405 16.7384 30.6588C16.803 30.6771 16.8707 30.6823 16.9374 30.6741C17.004 30.6658 17.0684 30.6444 17.1267 30.611C17.1849 30.5776 17.236 30.5328 17.2767 30.4794C17.3175 30.426 17.3472 30.365 17.364 30.3C17.3809 30.235 17.3846 30.1673 17.375 30.1008C17.3653 30.0343 17.3425 29.9704 17.3078 29.9129C15.8412 27.3547 15.5557 25.0619 16.5043 23.4188C17.7923 21.188 21.2621 20.3514 25.81 21.1797C25.9407 21.2015 26.0747 21.1709 26.1831 21.0947C26.2914 21.0185 26.3655 20.9028 26.3892 20.7724C26.413 20.6421 26.3845 20.5076 26.31 20.3981C26.2354 20.2886 26.1208 20.2128 25.9909 20.187ZM18.991 33.8667C20.9804 36.0528 23.5649 38.1034 26.5124 39.805C33.6492 43.9255 41.2471 45.0268 44.9915 42.4737C45.0475 42.4369 45.0956 42.3894 45.133 42.3338C45.1705 42.2782 45.1965 42.2157 45.2095 42.15C45.2225 42.0843 45.2223 42.0166 45.2089 41.951C45.1955 41.8853 45.1691 41.823 45.1314 41.7677C45.0936 41.7123 45.0452 41.665 44.989 41.6286C44.9328 41.5921 44.8699 41.5672 44.8039 41.5554C44.738 41.5435 44.6703 41.5449 44.6049 41.5594C44.5395 41.574 44.4777 41.6014 44.423 41.6401C41.0717 43.9252 33.8545 42.879 27.017 38.9313C24.1576 37.2805 21.6548 35.2947 19.7374 33.1875C19.6929 33.1382 19.6391 33.0982 19.579 33.0698C19.519 33.0413 19.454 33.025 19.3876 33.0217C19.3213 33.0185 19.2549 33.0283 19.1924 33.0508C19.1299 33.0732 19.0724 33.1078 19.0233 33.1525C18.9742 33.1972 18.9344 33.2512 18.9061 33.3113C18.8779 33.3715 18.8618 33.4366 18.8588 33.5029C18.8558 33.5693 18.866 33.6356 18.8887 33.698C18.9114 33.7604 18.9461 33.8178 18.991 33.8667Z" fill="#9FEAF9"/>
<path d="M43.7974 33.2545C47.0189 29.4487 48.1436 25.621 46.5964 22.9414C45.4581 20.9694 43.0514 19.9283 39.8528 19.8867C39.7202 19.8869 39.593 19.9393 39.4988 20.0325C39.4045 20.1257 39.3507 20.2522 39.349 20.3848C39.3473 20.5173 39.3978 20.6452 39.4896 20.7408C39.5814 20.8364 39.7072 20.892 39.8397 20.8957C42.7163 20.9331 44.7899 21.8301 45.7227 23.4459C47.0077 25.6717 46.0046 29.0851 43.0272 32.6025C42.9835 32.653 42.9502 32.7116 42.9294 32.775C42.9085 32.8384 42.9004 32.9053 42.9055 32.9718C42.9107 33.0383 42.929 33.1032 42.9594 33.1626C42.9898 33.222 43.0317 33.2748 43.0826 33.3179C43.1335 33.361 43.1925 33.3936 43.2562 33.4138C43.3198 33.434 43.3868 33.4413 43.4532 33.4354C43.5197 33.4295 43.5844 33.4105 43.6434 33.3794C43.7025 33.3483 43.7548 33.3059 43.7974 33.2545ZM35.5183 20.3565C32.6055 20.9806 29.5051 22.2009 26.5276 23.9199C19.1602 28.1734 14.3542 34.4456 15.0217 38.9935C15.0306 39.0597 15.0525 39.1234 15.0863 39.1811C15.12 39.2387 15.1648 39.2891 15.2181 39.3293C15.2715 39.3694 15.3323 39.3986 15.397 39.4152C15.4617 39.4317 15.529 39.4352 15.5951 39.4255C15.6611 39.4158 15.7246 39.3931 15.7818 39.3586C15.8391 39.3242 15.8889 39.2788 15.9284 39.225C15.9679 39.1711 15.9964 39.11 16.0121 39.0451C16.0279 38.9802 16.0305 38.9128 16.02 38.8469C15.4273 34.8088 19.983 28.8636 27.0322 24.7937C29.9205 23.126 32.9226 21.9445 35.7296 21.3431C35.7953 21.3301 35.8577 21.3043 35.9133 21.2669C35.9689 21.2296 36.0165 21.1816 36.0533 21.1257C36.0902 21.0698 36.1155 21.0071 36.1279 20.9413C36.1403 20.8755 36.1394 20.8078 36.1254 20.7424C36.1114 20.6769 36.0844 20.6149 36.0462 20.5599C36.008 20.505 35.9592 20.4581 35.9027 20.4222C35.8462 20.3863 35.7831 20.362 35.7171 20.3507C35.6511 20.3394 35.5835 20.3414 35.5183 20.3565Z" fill="#9FEAF9"/>
<path d="M23.5827 42.1447C25.2672 46.848 28.0228 49.7439 31.1213 49.7439C33.3812 49.7439 35.4719 48.2033 37.1023 45.4913C37.1376 45.4345 37.1613 45.3712 37.1719 45.3052C37.1825 45.2392 37.1799 45.1717 37.1642 45.1067C37.1485 45.0417 37.12 44.9804 37.0805 44.9265C37.0409 44.8726 36.991 44.8271 36.9337 44.7926C36.8764 44.7582 36.8128 44.7354 36.7466 44.7258C36.6804 44.7161 36.613 44.7197 36.5482 44.7363C36.4834 44.753 36.4226 44.7823 36.3693 44.8227C36.3159 44.863 36.2712 44.9136 36.2375 44.9714C34.7723 47.4087 32.9725 48.7347 31.1213 48.7347C28.5474 48.7347 26.0896 46.1519 24.5328 41.8047C24.5115 41.7411 24.4777 41.6823 24.4333 41.6319C24.389 41.5815 24.3351 41.5404 24.2747 41.5111C24.2143 41.4818 24.1487 41.4648 24.0816 41.4612C24.0146 41.4576 23.9475 41.4673 23.8843 41.49C23.8211 41.5126 23.7631 41.5476 23.7136 41.5929C23.6641 41.6383 23.6241 41.693 23.596 41.754C23.568 41.815 23.5523 41.8809 23.5501 41.948C23.5478 42.0151 23.559 42.082 23.5829 42.1447H23.5827ZM38.9679 41.2247C39.8401 38.4383 40.3083 35.224 40.3083 31.8744C40.3083 23.5162 37.3829 16.3111 33.2162 14.461C33.0945 14.4101 32.9576 14.4088 32.835 14.4575C32.7123 14.5062 32.6137 14.6011 32.5601 14.7217C32.5066 14.8423 32.5024 14.9791 32.5485 15.1027C32.5946 15.2264 32.6873 15.3271 32.8068 15.3832C36.523 17.0335 39.2992 23.8713 39.2992 31.8744C39.2992 35.1241 38.8457 38.2368 38.0051 40.9233C37.9843 40.9868 37.9762 41.0539 37.9815 41.1205C37.9867 41.1872 38.0052 41.2521 38.0358 41.3116C38.0663 41.3711 38.1084 41.4239 38.1596 41.4669C38.2107 41.51 38.27 41.5424 38.3338 41.5624C38.3976 41.5824 38.4647 41.5895 38.5313 41.5833C38.5979 41.5771 38.6626 41.5577 38.7216 41.5263C38.7806 41.4948 38.8328 41.452 38.8751 41.4002C38.9174 41.3485 38.9491 41.2888 38.9681 41.2247H38.9679ZM48.4698 40.7305C48.4698 39.3969 47.3887 38.3159 46.0551 38.3159C44.7215 38.3159 43.6405 39.3969 43.6405 40.7305C43.6405 42.0641 44.7215 43.1452 46.0551 43.1452C47.3887 43.1452 48.4698 42.0641 48.4698 40.7305ZM47.4608 40.7305C47.4608 40.9151 47.4245 41.0979 47.3538 41.2685C47.2832 41.439 47.1796 41.594 47.0491 41.7245C46.9186 41.855 46.7636 41.9586 46.5931 42.0292C46.4225 42.0998 46.2397 42.1362 46.0551 42.1362C45.8705 42.1362 45.6878 42.0998 45.5172 42.0292C45.3467 41.9586 45.1917 41.855 45.0612 41.7245C44.9306 41.594 44.8271 41.439 44.7565 41.2685C44.6858 41.0979 44.6495 40.9151 44.6495 40.7305C44.6495 40.3577 44.7976 40.0002 45.0612 39.7366C45.3248 39.473 45.6823 39.3249 46.0551 39.3249C46.4279 39.3249 46.7855 39.473 47.0491 39.7366C47.3127 40.0002 47.4608 40.3577 47.4608 40.7305ZM16.1527 43.1452C17.4864 43.1452 18.5675 42.0641 18.5675 40.7305C18.5675 39.3969 17.4863 38.3159 16.1527 38.3159C14.8193 38.3159 13.738 39.3969 13.738 40.7305C13.738 42.0641 14.8193 43.1452 16.1527 43.1452ZM16.1527 42.1362C15.7799 42.1362 15.4223 41.9881 15.1587 41.7245C14.8951 41.4609 14.747 41.1033 14.747 40.7305C14.747 40.3577 14.8951 40.0002 15.1587 39.7366C15.4223 39.473 15.7799 39.3249 16.1527 39.3249C16.5255 39.3249 16.883 39.473 17.1466 39.7366C17.4102 40.0002 17.5583 40.3577 17.5583 40.7305C17.5583 41.1033 17.4102 41.4609 17.1466 41.7245C16.883 41.9881 16.5255 42.1362 16.1527 42.1362Z" fill="#9FEAF9"/>
<path d="M31.1221 16.9249C32.4557 16.9249 33.5368 15.8439 33.5368 14.5103C33.5368 13.1767 32.4557 12.0957 31.1221 12.0957C29.7885 12.0957 28.7075 13.1767 28.7075 14.5103C28.7075 15.8439 29.7885 16.9249 31.1221 16.9249ZM31.1221 15.916C30.7493 15.916 30.3918 15.7679 30.1282 15.5043C29.8646 15.2407 29.7165 14.8831 29.7165 14.5103C29.7165 14.1375 29.8646 13.78 30.1282 13.5164C30.3918 13.2527 30.7493 13.1046 31.1221 13.1046C31.4949 13.1046 31.8525 13.2527 32.1161 13.5164C32.3797 13.78 32.5278 14.1375 32.5278 14.5103C32.5278 14.8831 32.3797 15.2407 32.1161 15.5043C31.8525 15.7679 31.4949 15.916 31.1221 15.916ZM31.4909 33.5829C30.5478 33.7866 29.6187 33.1873 29.4145 32.2442C29.3168 31.7913 29.4029 31.3181 29.6539 30.9287C29.905 30.5393 30.3004 30.2655 30.7532 30.1676C31.6963 29.9639 32.6254 30.5632 32.8298 31.5063C33.0335 32.4494 32.4342 33.3787 31.4909 33.5829Z" fill="#9FEAF9"/>
</svg>
