<svg width="80" height="80" viewBox="0 0 80 80" fill="none" xmlns="http://www.w3.org/2000/svg">
<rect x="0.555556" y="0.555556" width="78.5555" height="78.5555" stroke="#00FF09" stroke-width="1.11111"/>
<g clip-path="url(#clip0_1118_1155)">
<path d="M32.3796 39.8335C36.598 39.8335 40.7605 36.6993 44.8287 36.6993C47.6212 36.6993 49.8526 38.37 50.6392 40.7157C51.0381 41.905 52.5388 42.2811 53.4713 41.4419C53.7596 41.1809 53.9535 40.8319 54.0229 40.4493C54.0923 40.0667 54.0332 39.6719 53.8549 39.3263C52.6791 37.0117 50.9483 35.0243 48.8173 33.5415C46.6863 32.0587 44.2212 31.1267 41.6423 30.8286C39.0633 30.5305 36.4506 30.8757 34.0375 31.8332C31.6244 32.7908 29.486 34.331 27.8131 36.3163C27.6014 36.5659 27.4591 36.8669 27.4006 37.1889C27.3421 37.511 27.3694 37.8428 27.4798 38.1509C27.5902 38.4591 27.7798 38.7327 28.0294 38.9444C28.2791 39.156 28.5801 39.2982 28.9022 39.3566C30.1513 39.581 31.4264 39.8335 32.3796 39.8335Z" fill="white"/>
<path d="M28.2397 66.334H14.1616C13.942 66.334 13.7314 66.2467 13.576 66.0914C13.4207 65.9361 13.3335 65.7255 13.3335 65.5059V56.3965C13.3335 53.5151 13.7873 49.3744 15.9494 46.0112C18.2311 42.4618 21.8089 40.6621 26.5835 40.6621C27.7564 40.6621 31.1236 41.4902 32.3804 41.4902C35.5006 41.4902 38.7084 40.206 41.5386 39.0729C49.7474 35.7864 51.2553 44.7701 46.8726 46.4289C43.6398 47.6524 38.1151 48.5065 35.5107 51.0116L49.3661 47.3655L57.2988 40.2261C58.4146 35.1623 58.6912 28.2402 65.5054 28.2402C65.6251 28.242 65.7431 28.2693 65.8513 28.3204C65.9596 28.3715 66.0557 28.4453 66.1331 28.5366C66.2105 28.628 66.2674 28.7348 66.3001 28.85C66.3327 28.9652 66.3403 29.0861 66.3223 29.2045C66.2363 29.7221 64.0201 44.189 63.6066 44.5602L50.3566 57.8102C50.0702 58.1725 32.0986 62.1528 31.6536 62.2555C30.9173 62.4225 30.2598 62.8356 29.7898 63.4265C29.3197 64.0174 29.0651 64.7508 29.0679 65.5059C29.0679 65.7255 28.9806 65.9361 28.8253 66.0914C28.67 66.2467 28.4594 66.334 28.2397 66.334Z" fill="white"/>
<path d="M55.5036 14.5397C55.2345 14.4521 48.8738 12.4101 44.6401 13.8937C42.2556 14.7293 40.715 15.8959 39.8577 17.1375C39.0191 15.881 37.4841 14.7004 35.0899 13.8611C30.8959 12.3912 24.5831 14.4526 24.316 14.541C24.1969 14.5824 24.0886 14.6502 23.9993 14.7393C23.91 14.8284 23.842 14.9365 23.8003 15.0556C23.7587 15.1747 23.7445 15.3016 23.7588 15.4269C23.7731 15.5523 23.8156 15.6728 23.883 15.7794C25.1777 17.7645 29.4612 23.7442 35.6441 23.7442C36.8622 23.7442 38.0749 23.4301 39.0053 22.7711V28.3422C39.0053 28.5619 39.0925 28.7725 39.2479 28.9278C39.4032 29.0831 39.6138 29.1704 39.8334 29.1704C40.0531 29.1704 40.2637 29.0831 40.419 28.9278C40.5743 28.7725 40.6616 28.5619 40.6616 28.3422V22.8678C42.5634 24.1921 45.6316 23.8469 47.8392 23.0733C52.0721 21.5899 55.7823 16.0194 55.9382 15.7831C56.0063 15.6762 56.0493 15.5552 56.0639 15.4292C56.0785 15.3033 56.0644 15.1757 56.0225 15.056C55.9807 14.9363 55.9123 14.8276 55.8224 14.7382C55.7325 14.6488 55.6235 14.5809 55.5036 14.5397Z" fill="white"/>
</g>
<defs>
<clipPath id="clip0_1118_1155">
<rect width="53" height="53" fill="white" transform="translate(13.3335 13.334)"/>
</clipPath>
</defs>
</svg>
