<svg width="80" height="80" viewBox="0 0 80 80" fill="none" xmlns="http://www.w3.org/2000/svg">
<rect x="0.555556" y="0.555556" width="78.5555" height="78.5555" stroke="#FF9D00" stroke-width="1.11111"/>
<g clip-path="url(#clip0_1118_1162)">
<path d="M15.5418 15.543C14.3222 15.543 13.3335 16.5317 13.3335 17.7513C13.3335 18.9709 14.3222 19.9596 15.5418 19.9596H19.4711C19.7926 19.9596 20.106 20.0608 20.3668 20.2488C20.6277 20.4368 20.8227 20.7021 20.9244 21.0072L28.2052 42.8538C28.5286 43.8238 28.5697 44.8682 28.3217 45.8601L27.7222 48.2625C26.8425 51.7812 29.5815 55.293 33.2085 55.293H59.7085C60.9281 55.293 61.9168 54.3043 61.9168 53.0846C61.9168 51.865 60.9281 50.8763 59.7085 50.8763H33.2085C32.3486 50.8763 31.7966 50.1707 32.0051 49.3365L32.4572 47.5307C32.5339 47.2248 32.7105 46.9532 32.9592 46.7591C33.2078 46.565 33.5142 46.4596 33.8296 46.4596H57.5002C58.451 46.4601 59.2954 45.852 59.5964 44.95L65.4838 27.2834C65.9607 25.8528 64.8956 24.3756 63.3876 24.3763H27.8084C27.4869 24.3763 27.1735 24.2751 26.9127 24.0871C26.6518 23.8991 26.4568 23.6338 26.3551 23.3288L24.263 17.0526C23.9621 16.1506 23.1177 15.5425 22.1668 15.543H15.5418ZM31.0002 57.5013C28.5609 57.5013 26.5835 59.4787 26.5835 61.918C26.5835 64.3572 28.5609 66.3346 31.0002 66.3346C33.4394 66.3346 35.4168 64.3572 35.4168 61.918C35.4168 59.4787 33.4394 57.5013 31.0002 57.5013ZM57.5002 57.5013C55.0609 57.5013 53.0835 59.4787 53.0835 61.918C53.0835 64.3572 55.0609 66.3346 57.5002 66.3346C59.9394 66.3346 61.9168 64.3572 61.9168 61.918C61.9168 59.4787 59.9394 57.5013 57.5002 57.5013Z" fill="white"/>
</g>
<defs>
<clipPath id="clip0_1118_1162">
<rect width="53" height="53" fill="white" transform="translate(13.3335 13.334)"/>
</clipPath>
</defs>
</svg>
