<svg width="80" height="80" viewBox="0 0 80 80" fill="none" xmlns="http://www.w3.org/2000/svg">
<rect x="0.555556" y="0.555556" width="78.5555" height="78.5555" stroke="#07C9FF" stroke-width="1.11111"/>
<g clip-path="url(#clip0_1118_1150)">
<path d="M56.396 43.6934V50.898C56.396 53.5149 54.8557 55.8502 52.4707 56.9434C49.5722 58.2684 45.1832 59.7093 39.8335 59.7093C34.4838 59.7093 30.0947 58.2684 27.1797 56.9434C24.8113 55.8502 23.271 53.5149 23.271 50.898V43.6934L35.0469 49.0762C36.5541 49.7718 38.1772 50.1196 39.8335 50.1196C41.4897 50.1196 43.1129 49.7718 44.6201 49.0762L56.396 43.6934Z" fill="white"/>
<path d="M63.021 40.6621V51.4277C63.021 52.3387 62.2757 53.084 61.3647 53.084C60.4538 53.084 59.7085 52.3387 59.7085 51.4277V42.1859L63.021 40.6621Z" fill="white"/>
<path d="M36.4183 46.0688C37.5032 46.564 38.6675 46.8125 39.8335 46.8125C40.9995 46.8125 42.1622 46.5657 43.2487 46.0688L64.4007 36.3996C65.5932 35.8547 66.3335 34.7003 66.3335 33.3869C66.3335 32.0735 65.5932 30.9174 64.4007 30.3725L43.2487 20.705C41.0773 19.7129 38.5913 19.7129 36.42 20.705L15.2663 30.3709C14.0738 30.9174 13.3335 32.0719 13.3335 33.3853C13.3335 34.6987 14.0738 35.8531 15.2663 36.3996L36.4183 46.0688Z" fill="white"/>
</g>
<defs>
<clipPath id="clip0_1118_1150">
<rect width="53" height="53" fill="white" transform="translate(13.3335 13.334)"/>
</clipPath>
</defs>
</svg>
