<svg width="80" height="80" viewBox="0 0 80 80" fill="none" xmlns="http://www.w3.org/2000/svg">
<rect x="0.555556" y="0.555556" width="78.8889" height="78.8889" stroke="#FD2424" stroke-width="1.11111"/>
<g clip-path="url(#clip0_1118_1144)">
<path d="M57.1812 24.3757C57.1812 18.3453 52.274 13.334 46.2437 13.334C43.8938 13.334 41.698 14.3395 39.9937 16.1492C38.2892 14.3395 36.0934 13.334 33.7437 13.334C27.7133 13.334 22.8062 18.3453 22.8062 24.3757C22.8062 30.4411 27.2571 33.5721 32.4116 37.1991C34.5371 38.6944 36.7359 40.2417 38.9698 42.1796L39.9921 43.0676L41.0159 42.1811C43.5413 39.996 45.943 38.2855 48.0609 36.7764C53.1558 33.1495 57.1812 30.2839 57.1812 24.3757ZM44.6812 29.0632H41.5562V32.1882H38.4312V29.0632H35.3062V25.9382H38.4312V22.8132H41.5562V25.9382H44.6812V29.0632Z" fill="white"/>
<path d="M64.7854 27.625C61.5978 27.625 60.775 42.4375 60.7124 42.7501C60.395 44.9205 58.866 48.1334 56.284 50.068L49.5162 54.9819L47.6424 52.4795L54.4102 47.5671C57.0912 45.5571 58.313 42.125 54.9624 42.125C51.9616 42.125 46.3523 45.5993 44.6894 46.9775C42.7037 48.6233 41.5562 51.0688 41.5562 53.6479V66.6668H50.9312C50.9312 65.1667 51.7437 63.5312 52.9935 61.9687C54.3062 60.25 56.1812 58.5 58.1185 56.7188C61.806 53.25 65.629 49.6875 66.1291 46.0626C66.4259 43.6276 66.6725 39.4514 66.6602 35.7293C66.6467 31.561 66.2935 27.7597 64.7854 27.625Z" fill="white"/>
<path d="M34.9299 46.6876C30.5236 43.6563 27.1801 42.125 25.0238 42.125C21.6732 42.125 22.8951 45.5571 25.576 47.5671L32.3438 52.4795L30.4701 54.9819L23.7022 50.068C21.1199 48.1334 19.591 44.9205 19.2736 42.7501C19.211 42.4375 18.3882 27.625 15.2006 27.625C13.4506 27.7813 13.2631 32.875 13.3569 37.75C13.4195 41.3125 13.7007 44.7813 13.8568 46.0626C14.3569 49.6875 18.1798 53.2501 21.8673 56.7188C23.8048 58.5 25.6797 60.25 26.9923 61.9687C28.2422 63.5312 29.0547 65.1667 29.0547 66.6668H38.4297V53.7103C38.4299 50.9498 37.134 48.3495 34.9299 46.6876Z" fill="white"/>
</g>
<defs>
<clipPath id="clip0_1118_1144">
<rect width="53.3333" height="53.3333" fill="white" transform="translate(13.3335 13.334)"/>
</clipPath>
</defs>
</svg>
