<svg width="32" height="33" viewBox="0 0 32 33" fill="none" xmlns="http://www.w3.org/2000/svg">
<g id="challenge 1" clip-path="url(#clip0_695_7870)">
<path id="Vector" d="M34.0106 11.0592C33.9734 10.9828 33.9215 10.9145 33.8578 10.8582C33.7942 10.8019 33.7201 10.7587 33.6397 10.7312C33.5593 10.7036 33.4743 10.6921 33.3895 10.6974C33.3047 10.7028 33.2218 10.7248 33.1455 10.7622L30.673 11.963C30.5373 12.0278 30.4279 12.1371 30.3631 12.2729L28.6718 16.0172L26.6963 16.5079L28.7234 13.1509C29.1298 12.4795 29.2853 11.6859 29.1624 10.9107L28.4329 6.4563C28.3064 5.65639 27.8878 4.93182 27.258 4.42274C26.493 3.89619 25.3913 2.66529 24.4239 2.52484L20.4989 1.56281C19.7544 1.37658 18.968 1.45888 18.2782 1.79521L14.6049 3.56409C14.2069 3.75708 13.8515 4.0279 13.5599 4.36055C13.2683 4.6932 13.0463 5.08092 12.9071 5.50081L11.4417 9.91654C11.2086 10.6201 11.2177 11.3814 11.4675 12.0792L11.8613 13.1638C11.0908 13.658 10.1964 14.7101 9.1951 14.513L7.38748 14.2419C6.97275 14.1799 6.55008 14.2801 6.20739 14.5218C5.8647 14.7635 5.62839 15.128 5.54762 15.5395L5.0118 18.2186C4.84996 19.0088 4.51238 19.7523 4.02409 20.3942L0.789807 24.655C0.688154 24.79 0.614454 24.944 0.573019 25.1078C0.531584 25.2717 0.523247 25.4422 0.548494 25.6093C0.573742 25.7764 0.632069 25.9368 0.72006 26.0811C0.808051 26.2254 0.92394 26.3507 1.06094 26.4497C0.777316 26.4557 0.104392 26.3671 -0.0752494 26.7015C-0.307614 26.9817 -1.70982 28.822 -1.94098 29.1095C-2.04267 29.245 -2.08706 29.4151 -2.06461 29.5831C-2.04216 29.751 -1.95465 29.9035 -1.82092 30.0075C-1.68719 30.1116 -1.51795 30.159 -1.34961 30.1396C-1.18128 30.1201 -1.02732 30.0353 -0.920874 29.9035L0.744683 27.7473C0.737239 27.7353 2.86795 27.7423 2.86859 27.7408C3.8761 27.7733 4.88463 27.7518 5.88983 27.6763L7.71678 26.8047H13.3074C13.3992 26.8054 13.49 26.7862 13.5736 26.7483C13.6572 26.7104 13.7316 26.6547 13.7915 26.5852L20.131 19.4839C22.6202 18.8642 26.7473 17.8256 29.2851 17.1921C29.3792 17.169 29.4668 17.1251 29.5417 17.0637C29.6165 17.0022 29.6767 16.9248 29.7176 16.8371L31.4413 13.0217L33.7137 11.9178C33.8666 11.843 33.9838 11.7107 34.0394 11.5498C34.095 11.3889 34.0847 11.2125 34.0106 11.0592ZM8.4785 25.5136C8.08142 25.4839 7.68217 25.5056 7.29066 25.5781L5.46371 26.4497H2.52639C2.61677 26.3851 6.67737 22.3954 6.67737 22.3954L7.77483 23.1314C8.09443 23.3479 8.61148 23.6108 8.53009 24.0804C8.42617 24.5511 8.40868 25.0367 8.4785 25.5136ZM13.0233 25.5136H10.5443C10.6457 25.4353 10.7596 23.1225 10.7896 22.9572C10.8039 22.7397 10.7622 22.5222 10.6683 22.3256C10.5745 22.1289 10.4318 21.9596 10.2538 21.8339C9.60739 21.433 8.28824 20.6255 7.64572 20.2264L7.94268 17.5666C7.95248 17.4868 7.97801 17.4096 8.01779 17.3397C8.05757 17.2698 8.11081 17.2084 8.17444 17.1592C8.23807 17.11 8.31083 17.0739 8.3885 17.0529C8.46617 17.032 8.54723 17.0267 8.62698 17.0372L9.49203 17.1535C10.0044 17.2187 10.5226 17.0898 10.9446 16.7919L12.7199 15.5459C12.9263 16.4793 13.4656 17.3055 14.237 17.87C15.1005 18.4276 16.2939 19.4358 17.3808 19.4194L18.4137 19.4775L13.0233 25.5136Z" fill="white"/>
<path id="Vector_2" d="M7.79921 14.0568C8.36471 14.0515 8.90525 13.8231 9.30326 13.4214C9.70127 13.0196 9.92455 12.477 9.92454 11.9114C9.92454 11.3459 9.70124 10.8032 9.30322 10.4015C8.9052 9.99974 8.36466 9.77139 7.79916 9.76611C7.23366 9.7714 6.69312 9.99976 6.29511 10.4015C5.89711 10.8033 5.67382 11.3459 5.67383 11.9115C5.67383 12.477 5.89713 13.0197 6.29515 13.4214C6.69317 13.8232 7.23371 14.0515 7.79921 14.0568Z" fill="white"/>
<path id="Vector_3" d="M25.3305 20.5739L22.028 21.5108C21.8648 21.5569 21.7263 21.6657 21.6428 21.8134L20.0664 24.5911C19.982 24.74 19.9601 24.9163 20.0057 25.0813C20.0513 25.2463 20.1606 25.3865 20.3094 25.4709C20.4583 25.5553 20.6347 25.5772 20.7997 25.5316C20.9647 25.486 21.1048 25.3768 21.1892 25.2279L22.6351 22.6809L25.6829 21.8159C25.8453 21.7671 25.982 21.6565 26.0634 21.5078C26.1449 21.3592 26.1646 21.1844 26.1184 21.0214C26.0721 20.8583 25.9635 20.7199 25.8161 20.6362C25.6687 20.5525 25.4943 20.5301 25.3305 20.5739Z" fill="white"/>
<path id="Vector_4" d="M15.5173 27.274L13.9355 28.4087L9.65206 28.7694C9.56244 28.649 6.656 30.6202 6.52382 30.6688C6.38205 30.7619 6.28257 30.9069 6.24688 31.0727C6.2112 31.2384 6.24217 31.4116 6.33311 31.5547C6.42405 31.6978 6.56765 31.7994 6.73287 31.8375C6.8981 31.8756 7.07167 31.8471 7.21609 31.7583L9.91842 30.0422L14.2214 29.6803C14.3376 29.6708 14.449 29.6298 14.5436 29.5618L16.27 28.323C16.4053 28.2217 16.4955 28.0714 16.5212 27.9044C16.5469 27.7374 16.5061 27.567 16.4076 27.4297C16.3091 27.2924 16.1607 27.1992 15.9942 27.1701C15.8278 27.1409 15.6565 27.1783 15.5173 27.274Z" fill="white"/>
</g>
<defs>
<clipPath id="clip0_695_7870">
<rect width="32" height="32" fill="white" transform="translate(0 0.66333)"/>
</clipPath>
</defs>
</svg>
