<svg width="29" height="29" viewBox="0 0 29 29" fill="none" xmlns="http://www.w3.org/2000/svg">
<g id="downfall 1">
<g id="Group">
<g id="Group_2">
<g id="Group_3">
<path id="Vector" d="M5.76235 25.9591C5.50236 25.9591 5.29102 25.752 5.29102 25.4976C5.29102 25.2429 5.50236 25.0359 5.76235 25.0359C6.02208 25.0359 6.23343 25.2429 6.23343 25.4976C6.23343 25.752 6.02208 25.9591 5.76235 25.9591ZM5.76235 25.1427C5.56244 25.1427 5.40001 25.3018 5.40001 25.4976C5.40001 25.6932 5.56244 25.8523 5.76235 25.8523C5.962 25.8523 6.12443 25.6932 6.12443 25.4976C6.12443 25.3018 5.962 25.1427 5.76235 25.1427Z" fill="white"/>
</g>
</g>
<g id="Group_4">
<g id="Group_5">
<path id="Vector_2" d="M22.3773 22.3114C22.1176 22.3114 21.9062 22.1044 21.9062 21.8499C21.9062 21.5955 22.1176 21.3885 22.3773 21.3885C22.6373 21.3885 22.8487 21.5955 22.8487 21.8499C22.8487 22.1044 22.6373 22.3114 22.3773 22.3114ZM22.3773 21.4953C22.1777 21.4953 22.0152 21.6544 22.0152 21.8499C22.0152 22.0455 22.1777 22.2046 22.3773 22.2046C22.5772 22.2046 22.7397 22.0455 22.7397 21.8499C22.7397 21.6544 22.5772 21.4953 22.3773 21.4953Z" fill="white"/>
</g>
</g>
<g id="Group_6">
<g id="Group_7">
<g id="Group_8">
<g id="Group_9">
<path id="Vector_3" d="M6.36504 6.86839C6.335 6.86839 6.31055 6.84443 6.31055 6.815V5.48167C6.31055 5.45224 6.335 5.42828 6.36504 5.42828C6.39508 5.42828 6.41954 5.45224 6.41954 5.48167V6.815C6.41954 6.84443 6.39508 6.86839 6.36504 6.86839Z" fill="white"/>
</g>
<g id="Group_10">
<path id="Vector_4" d="M5.87481 7.04353C5.84477 7.04353 5.82031 7.01957 5.82031 6.99014V4.14848C5.82031 4.11905 5.84477 4.09509 5.87481 4.09509C5.90485 4.09509 5.92931 4.11905 5.92931 4.14848V6.99014C5.92931 7.01957 5.90485 7.04353 5.87481 7.04353Z" fill="white"/>
</g>
<g id="Group_11">
<path id="Vector_5" d="M5.35723 7.26847C5.32719 7.26847 5.30273 7.24451 5.30273 7.21508V4.91508C5.30273 4.88565 5.32719 4.86169 5.35723 4.86169C5.38727 4.86169 5.41173 4.88565 5.41173 4.91508V7.21508C5.41173 7.24451 5.38727 7.26847 5.35723 7.26847Z" fill="white"/>
</g>
<g id="Group_12">
<path id="Vector_6" d="M4.81036 7.45747C4.78032 7.45747 4.75586 7.43351 4.75586 7.40409V6.14836C4.75586 6.11893 4.78032 6.09497 4.81036 6.09497C4.8404 6.09497 4.86485 6.11893 4.86485 6.14836V7.40409C4.86485 7.43351 4.8404 7.45747 4.81036 7.45747Z" fill="white"/>
</g>
</g>
<g id="Group_13">
<g id="Group_14">
<path id="Vector_7" d="M23.276 7.71392C23.246 7.71392 23.2215 7.68996 23.2215 7.66053V6.85715C23.0397 6.85923 22.4727 6.866 22.3602 6.8561C22.3302 6.8535 22.3081 6.82746 22.3108 6.79829C22.3137 6.76887 22.34 6.74465 22.3698 6.74985C22.4955 6.76079 23.2673 6.75012 23.2752 6.74959C23.2845 6.74751 23.3037 6.7548 23.3143 6.76496C23.3247 6.77512 23.3305 6.78866 23.3305 6.80298V7.66053C23.3305 7.68996 23.3061 7.71392 23.276 7.71392Z" fill="white"/>
</g>
</g>
</g>
</g>
<g id="Group_15">
<g id="Group_16">
<g id="Group_17">
<g id="Group_18">
<g id="Group_19">
<path id="Vector_8" d="M23.3593 13.165L15.3766 26.9949C15.2729 27.1754 15.135 27.3132 14.9971 27.3921C14.8592 27.4697 14.72 27.4871 14.6162 27.4255L13.8503 26.9896C13.8489 26.9896 13.8476 26.9882 13.8462 26.9869L5.81041 22.2164C5.48276 22.0225 5.71895 21.2535 6.18718 20.9887L9.07879 19.3531C9.30678 19.2247 9.48977 18.9144 9.48837 18.6577L9.45697 7.55605C9.45564 7.20565 9.71089 6.8138 9.98667 6.65733C10.0823 6.60383 10.1792 6.57843 10.2706 6.5918L13.8844 7.13745C13.9718 7.15082 14.0701 7.12541 14.1698 7.06924C14.2681 7.01308 14.3677 6.92614 14.4538 6.81514L18.0553 2.18914C18.1454 2.07278 18.2437 1.98719 18.3379 1.93369C18.4812 1.85345 18.6191 1.84141 18.7188 1.89892L19.4888 2.33624C19.5816 2.38974 19.6403 2.50074 19.6417 2.66925L19.6717 13.3616L22.2056 11.9293C22.3599 11.8424 22.4883 11.8383 22.581 11.8905L23.3387 12.3225C23.5394 12.4214 23.5818 12.7785 23.3593 13.165Z" fill="#324566"/>
</g>
</g>
</g>
<g id="Group_20">
<g id="Group_21">
<path id="Vector_9" d="M22.5824 11.8906C22.4899 11.8379 22.361 11.8426 22.2076 11.9293L19.3172 13.5641C19.2033 13.6285 19.1 13.6345 19.0254 13.592L19.7951 14.0303C19.8698 14.0728 19.9731 14.0667 20.087 14.0023L22.9775 12.3676C23.1308 12.2808 23.2596 12.2761 23.3522 12.3288L22.5824 11.8906Z" fill="#C1C1C1"/>
</g>
<g id="Group_22">
<path id="Vector_10" d="M19.4887 2.33673L18.7189 1.89852C18.6193 1.84182 18.4816 1.85307 18.3385 1.934C18.2432 1.98789 18.1455 2.07267 18.0551 2.18883L14.454 6.81514C14.3674 6.9265 14.2686 7.01361 14.1696 7.06955C14.0707 7.12551 13.9717 7.15031 13.8848 7.13706L10.2704 6.59167C10.1796 6.57796 10.0818 6.60373 9.98644 6.65763C9.71046 6.81374 9.45581 7.20583 9.45681 7.55595L9.48894 18.6578C9.48968 18.9139 9.30635 19.225 9.07884 19.3536L6.18749 20.9889C5.71945 21.2536 5.48247 22.0225 5.81045 22.2164L13.8462 26.9873C13.8476 26.9882 13.8491 26.989 13.8505 26.9898L14.6203 27.4281C14.6189 27.4272 14.6174 27.4264 14.6159 27.4255L6.5802 22.6546C6.25222 22.4607 6.4892 21.6918 6.95731 21.4271L9.84859 19.7918C10.0761 19.6632 10.2594 19.3521 10.2587 19.096L10.2266 7.99416C10.2256 7.64405 10.4802 7.25196 10.7563 7.09585C10.8515 7.04195 10.9493 7.01617 11.0401 7.02988L14.6545 7.57528C14.7415 7.58852 14.8405 7.56373 14.9395 7.50777C15.0384 7.45182 15.1372 7.36471 15.2238 7.25335L18.8249 2.62704C18.9153 2.51089 19.0129 2.42611 19.1083 2.37222C19.2514 2.29128 19.3891 2.28003 19.4887 2.33673Z" fill="#C1C1C1"/>
</g>
</g>
<g id="Group_23">
<g id="Group_24">
<path id="Vector_11" d="M19.1041 2.37236C19.3802 2.21621 19.6362 2.31944 19.6372 2.66958L19.6694 13.7715C19.6701 14.0276 19.8546 14.1306 20.0812 14.0024L22.9717 12.3676C23.4398 12.1029 23.6796 12.6022 23.3547 13.1653L15.3728 26.9953C15.269 27.1753 15.131 27.3141 14.9928 27.3922C14.8546 27.4704 14.7163 27.4879 14.6118 27.4256L6.57607 22.6547C6.2481 22.4608 6.48508 21.6919 6.95316 21.4272L9.84447 19.792C10.072 19.6633 10.2553 19.3523 10.2546 19.0962L10.2224 7.9943C10.2214 7.64419 10.4761 7.2521 10.7521 7.09598C10.8474 7.04209 10.9452 7.01631 11.036 7.03002L14.6504 7.57541C14.7373 7.58867 14.8363 7.56387 14.9353 7.50791C15.0342 7.45196 15.1331 7.36485 15.2196 7.2535L18.8208 2.62719C18.9112 2.51103 19.0088 2.42625 19.1041 2.37236Z" fill="white"/>
</g>
</g>
<g id="Group_25">
<g id="Group_26">
<path id="Vector_12" d="M23.3549 13.1655L15.3723 26.9954C15.2686 27.1759 15.1307 27.3137 14.9928 27.3926C14.8549 27.4702 14.7156 27.4876 14.6119 27.426L6.57603 22.6556C6.24838 22.4617 6.48457 21.6927 6.95287 21.4279L9.84448 19.7923C10.0711 19.6639 10.2554 19.3523 10.2541 19.0968L10.2322 11.4082C10.8438 11.7011 11.4076 12.121 12.0357 12.3952C12.2255 12.4781 12.437 12.5476 12.6364 12.4942C12.8453 12.4367 12.9913 12.2588 13.1129 12.0836C13.446 11.6048 13.7054 11.0725 14.0972 10.6392C14.4904 10.2059 15.0679 9.87155 15.6522 9.96383C16.0153 10.02 16.343 10.2353 16.7103 10.2688C17.539 10.345 18.1424 9.49441 18.3581 8.70669C18.5724 7.91897 18.623 7.03496 19.1745 6.42378C19.3111 6.27265 19.4722 6.14828 19.6469 6.04797L19.6688 13.7714C19.6701 14.0281 19.8544 14.1311 20.0811 14.0027L22.9713 12.3684C23.4396 12.1036 23.6798 12.6025 23.3549 13.1655Z" fill="white"/>
</g>
</g>
<g id="Group_27">
<g id="Group_28">
<g id="Group_29">
<path id="Vector_13" d="M14.3209 13.7113C16.4154 12.4456 18.1734 13.3607 18.2522 15.7579C18.3308 18.1506 16.7005 21.1179 14.606 22.3837C12.5153 23.6471 10.7552 22.7287 10.6766 20.336C10.5978 17.9388 12.2302 14.9748 14.3209 13.7113Z" fill="#162830"/>
</g>
</g>
<g id="Group_30">
<g id="Group_31">
<g id="Group_32">
<path id="Vector_14" d="M11.2933 20.4631C11.3321 21.6548 11.7855 22.4783 12.4907 22.8536L12.896 23.07C12.4252 22.8181 13.5471 22.3094 14.3248 21.6432C13.6693 19.4389 12.6614 18.8996 11.298 20.0408C11.2913 20.1831 11.2888 20.3242 11.2933 20.4631Z" fill="#8FB0D8"/>
</g>
<g id="Group_33">
<path id="Vector_15" d="M18.0771 13.7132L17.6687 13.497C16.9697 13.1254 16.0218 13.2025 14.989 13.8069C14.6834 15.2192 15.67 15.4133 17.28 15.0198C17.5205 14.2173 17.7 13.5136 18.0771 13.7132Z" fill="#C6D7F4"/>
</g>
<g id="Group_34">
<path id="Vector_16" d="M12.4108 16.5367C11.7655 17.6457 11.3494 18.8902 11.2949 20.0407L14.3217 21.6431C14.7035 21.3161 15.0027 20.9513 14.9889 20.56C14.9388 19.0216 14.6352 18.4436 14.9744 17.8939C15.0676 15.4854 14.0547 15.3598 12.4108 16.5367C12.4108 16.5367 12.4108 16.5367 12.4108 16.5367Z" fill="#C6D7F4"/>
</g>
<g id="Group_35">
<path id="Vector_17" d="M16.3049 16.8354C16.8026 16.5345 17.0664 15.7376 17.2815 15.0198L14.9905 13.8069C14.9896 13.8069 14.989 13.8069 14.9881 13.8069C13.978 14.4022 13.0748 15.3978 12.4121 16.5367L14.9757 17.8939C15.1654 17.5866 15.5554 17.288 16.3049 16.8354Z" fill="#AAC4E8"/>
</g>
</g>
<g id="Group_36">
<g id="Group_37">
<path id="Vector_18" d="M15.3482 14.0567C17.4427 12.7909 19.2007 13.706 19.2795 16.1032C19.3582 18.496 17.7278 21.4632 15.6333 22.729C13.5426 23.9925 11.7826 23.0741 11.7039 20.6813C11.6251 18.2842 13.2575 15.3201 15.3482 14.0567Z" fill="#DBE7FE"/>
</g>
</g>
<g id="Group_38">
<g id="Group_39">
<path id="Vector_19" d="M13.8968 22.6599C12.5202 22.6995 12.3619 21.1398 12.3461 20.6608C12.2755 18.5097 13.8034 15.7331 15.6826 14.5973C16.1759 14.2993 16.6579 14.1354 17.0767 14.1234C18.4132 14.085 18.6043 15.5093 18.6245 16.1235C18.6951 18.2746 17.1664 21.0518 15.286 22.1881C14.7952 22.4848 14.3148 22.6479 13.8968 22.6599ZM17.0814 14.2777C16.6903 14.2889 16.2351 14.4449 15.7654 14.7288C13.9283 15.839 12.4346 18.5533 12.5038 20.6558C12.5183 21.0987 12.6613 22.541 13.8921 22.5056C14.2825 22.4944 14.7358 22.3391 15.2032 22.0567C17.0414 20.9458 18.536 18.2311 18.4668 16.1285C18.4482 15.5606 18.276 14.2434 17.0814 14.2777Z" fill="white"/>
</g>
</g>
<g id="Group_40">
<g id="Group_41">
<g id="Group_42">
<g id="Group_43">
<path id="Vector_20" d="M15.3906 15.9329L16.7368 17.6123L15.4 19.1726L15.3906 15.9329Z" fill="#8FB0D8"/>
</g>
</g>
<g id="Group_44">
<g id="Group_45">
<path id="Vector_21" d="M13.9297 19.5436L15.3937 19.6278L15.3971 20.8081L13.9297 19.5436Z" fill="#8FB0D8"/>
</g>
</g>
<g id="Group_46">
<g id="Group_47">
<path id="Vector_22" d="M16.8513 17.8906L15.396 20.8082L15.3926 19.6279L16.8513 17.8906Z" fill="#8FB0D8"/>
</g>
</g>
<g id="Group_48">
<g id="Group_49">
<path id="Vector_23" d="M15.3832 15.9329L15.3926 19.1726L14.0527 19.1261L15.3832 15.9329Z" fill="#8FB0D8"/>
</g>
</g>
</g>
<g id="Group_50">
<g id="Group_51">
<g id="Group_52">
<path id="Vector_24" d="M15.5723 15.9752L16.9185 17.6546L15.5816 19.215L15.5723 15.9752Z" fill="#324566"/>
</g>
</g>
<g id="Group_53">
<g id="Group_54">
<path id="Vector_25" d="M14.1211 19.5862L15.5851 19.6704L15.5885 20.8507L14.1211 19.5862Z" fill="#324566"/>
</g>
</g>
<g id="Group_55">
<g id="Group_56">
<path id="Vector_26" d="M17.0427 17.9332L15.5874 20.8508L15.584 19.6705L17.0427 17.9332Z" fill="white"/>
</g>
</g>
<g id="Group_57">
<g id="Group_58">
<path id="Vector_27" d="M15.5746 15.9752L15.584 19.215L14.2441 19.1685L15.5746 15.9752Z" fill="white"/>
</g>
</g>
</g>
</g>
</g>
</g>
</g>
<g id="Group_59">
<g id="Group_60">
<path id="Vector_28" d="M8.07544 18.3971C8.0454 18.3971 8.02121 18.3734 8.02094 18.3439L8.01562 16.6153C8.01562 16.5859 8.03982 16.5619 8.06986 16.5616C8.0999 16.5616 8.12435 16.5853 8.12462 16.6148L8.12994 18.3434C8.12994 18.3728 8.10548 18.3968 8.07544 18.3971Z" fill="white"/>
</g>
<g id="Group_61">
<path id="Vector_29" d="M8.06672 15.9037C8.03668 15.9037 8.01248 15.88 8.01222 15.8506L7.99414 9.93182C7.99414 9.90239 8.01833 9.87843 8.04837 9.87817C8.07841 9.87817 8.10287 9.90187 8.10314 9.9313L8.12121 15.85C8.12121 15.8795 8.09676 15.9034 8.06672 15.9037Z" fill="white"/>
</g>
<g id="Group_62">
<path id="Vector_30" d="M8.04508 9.3295C8.01504 9.3295 7.99085 9.3058 7.99058 9.27638L7.98633 7.87091C7.98633 7.84122 8.01052 7.81752 8.04056 7.81726C8.0706 7.81726 8.09506 7.84096 8.09532 7.87039L8.09958 9.27585C8.09958 9.30554 8.07512 9.32924 8.04508 9.3295Z" fill="white"/>
</g>
</g>
<g id="Group_63">
<g id="Group_64">
<path id="Vector_31" d="M17.6755 25.8473C17.6665 25.8473 17.6572 25.845 17.6487 25.8403C17.6226 25.826 17.6133 25.7934 17.6282 25.7676L19.0396 23.3221C19.0539 23.2965 19.0874 23.2874 19.1137 23.302C19.1398 23.3163 19.1491 23.3489 19.1342 23.3747L17.7228 25.8202C17.713 25.8374 17.6944 25.8473 17.6755 25.8473Z" fill="white"/>
</g>
<g id="Group_65">
<path id="Vector_32" d="M19.445 22.7791C19.436 22.7791 19.4267 22.7768 19.4182 22.7721C19.3921 22.7578 19.3828 22.7252 19.3977 22.6994L22.536 17.2627C22.5504 17.2369 22.5836 17.2281 22.6102 17.2427C22.6362 17.257 22.6455 17.2895 22.6306 17.3153L19.4924 22.752C19.4825 22.7692 19.4639 22.7791 19.445 22.7791Z" fill="white"/>
</g>
<g id="Group_66">
<path id="Vector_33" d="M22.9372 16.7281C22.9282 16.7281 22.9189 16.7257 22.9104 16.721C22.8843 16.7067 22.875 16.6742 22.8899 16.6484L23.7164 15.2161C23.7308 15.1906 23.7643 15.1812 23.7906 15.196C23.8166 15.2104 23.8259 15.2429 23.8111 15.2687L22.9846 16.701C22.9747 16.7182 22.9561 16.7281 22.9372 16.7281Z" fill="white"/>
</g>
</g>
</g>
</g>
</g>
</svg>
