<svg width="68" height="68" viewBox="0 0 68 68" fill="none" xmlns="http://www.w3.org/2000/svg">
<path fill-rule="evenodd" clip-rule="evenodd" d="M49.5522 33.371C58.7674 33.371 66.2377 25.9007 66.2377 16.6855C66.2377 7.47036 58.7674 0 49.5522 0C40.3371 0 32.8667 7.47036 32.8667 16.6855C32.8667 18.3243 33.1029 19.9079 33.5432 21.4041L45.3448 17.1126L51.2286 14.973L49.9661 21.1052L47.4674 33.2421C48.1504 33.3272 48.8462 33.371 49.5522 33.371ZM44.0601 32.4461L45.7119 24.4229L46.5402 20.3998L42.68 21.8035L34.8809 24.6396C36.8483 28.2608 40.1174 31.0723 44.0601 32.4461Z" fill="#FF0000"/>
<path d="M46.5403 20.4004L0.850098 37.015L25.0826 45.9844L36.8484 67.4751L46.5403 20.4004Z" fill="#0674B7"/>
</svg>
