<svg width="260" height="50" viewBox="0 0 260 50" fill="none" xmlns="http://www.w3.org/2000/svg">
<path fill-rule="evenodd" clip-rule="evenodd" d="M36.3424 24.4738C43.1006 24.4738 48.5793 18.9952 48.5793 12.2369C48.5793 5.47865 43.1006 0 36.3424 0C29.5841 0 24.1055 5.47865 24.1055 12.2369C24.1055 13.4388 24.2787 14.6001 24.6016 15.6974L33.2567 12.5501L37.5718 10.981L36.6459 15.4782L34.8134 24.3792C35.3143 24.4416 35.8246 24.4738 36.3424 24.4738ZM32.3145 23.7954L33.5259 17.9114L34.1334 14.9609L31.3024 15.9904L25.5827 18.0703C27.0256 20.726 29.423 22.7879 32.3145 23.7954Z" fill="white"/>
<path d="M34.1296 14.9609L0.621094 27.1458L18.3928 33.7239L27.0217 49.4848L34.1296 14.9609Z" fill="white"/>
<path d="M87.146 38C85.724 34.8112 84.3019 31.5793 82.8799 28.3905H66.4618C65.0398 31.5793 63.6177 34.8112 62.1957 38H59.8256C64.3072 27.9595 68.7457 17.876 73.2273 7.83552H76.1144C80.5529 17.876 85.0345 27.9595 89.5161 38H87.146ZM67.4098 26.2359H81.9319L74.6493 9.90394L67.4098 26.2359ZM115.036 13.3082C112.364 10.7658 109.132 9.6023 105.426 9.6023C98.1008 9.6023 92.111 15.5921 92.111 22.9178C92.111 30.2434 98.1008 36.2332 105.426 36.2332C109.132 36.2332 112.364 35.0697 115.036 32.5273L116.674 33.9493C113.614 36.9658 109.779 38.3878 105.426 38.3878C96.8942 38.3878 89.9564 31.4069 89.9564 22.9178C89.9564 14.4286 96.8942 7.44769 105.426 7.44769C109.779 7.44769 113.614 8.86973 116.674 11.9293L115.036 13.3082ZM132.895 38H130.74V9.99013H119.708V7.83552H143.969V9.99013H132.895V38ZM168.28 38C166.858 34.8112 165.436 31.5793 164.014 28.3905H147.596C146.174 31.5793 144.752 34.8112 143.33 38H140.96C145.442 27.9595 149.88 17.876 154.362 7.83552H157.249C161.687 17.876 166.169 27.9595 170.65 38H168.28ZM148.544 26.2359H163.066L155.784 9.90394L148.544 26.2359ZM195.333 38L175.812 11.1105V38H173.658V7.83552H176.114L195.764 34.8974V7.83552H197.919V38H195.333ZM200.927 22.573C200.927 14.2562 207.736 7.44769 216.052 7.44769C224.412 7.44769 231.221 14.2562 231.221 22.573V23.2194C231.221 31.5793 224.412 38.3878 216.052 38.3878C207.736 38.3878 200.927 31.5793 200.927 23.2194V22.573ZM203.082 23.2194C203.082 30.3727 208.942 36.2332 216.052 36.2332C223.206 36.2332 229.066 30.3727 229.066 23.2194V22.573C229.066 15.4628 223.206 9.6023 216.052 9.6023C208.942 9.6023 203.082 15.4628 203.082 22.573V23.2194ZM256.879 12.3602L255.156 13.5668C252.872 10.2918 248.907 9.51611 245.115 9.55921C241.496 9.64539 237.143 11.1967 237.186 15.5059C237.273 19.7289 242.271 20.8493 245.546 21.3664C250.631 22.2283 257.612 24.3829 257.31 30.7605C257.009 37.052 250.502 38.5602 245.288 38.3878C239.643 38.1724 236.626 36.578 234.256 31.3638L236.195 30.4589C238.221 34.9405 240.548 36.1039 245.374 36.2332C249.252 36.4056 254.983 35.5868 255.199 30.6743C255.414 25.6757 249.037 24.1243 245.201 23.478C240.72 22.7454 235.161 21.0648 235.075 15.6352C235.075 9.94704 240.074 7.57697 245.072 7.44769C249.64 7.36151 254.165 8.43881 256.879 12.3602Z" fill="white"/>
</svg>
