<svg width="32" height="32" viewBox="0 0 32 32" fill="none" xmlns="http://www.w3.org/2000/svg">
<g id="maximize 1">
<g id="Group">
<path id="Vector" d="M2.66699 24C2.66699 21.4859 2.66699 20.2288 3.44805 19.4478C4.22909 18.6667 5.48617 18.6667 8.00033 18.6667C10.5145 18.6667 11.7716 18.6667 12.5526 19.4478C13.3337 20.2288 13.3337 21.4859 13.3337 24C13.3337 26.5142 13.3337 27.7712 12.5526 28.5523C11.7716 29.3334 10.5145 29.3334 8.00033 29.3334C5.48617 29.3334 4.22909 29.3334 3.44805 28.5523C2.66699 27.7712 2.66699 26.5142 2.66699 24Z" fill="white"/>
<path id="Vector_2" fill-rule="evenodd" clip-rule="evenodd" d="M4.61962 4.61931C2.66699 6.57193 2.66699 9.71462 2.66699 16C2.66699 16.5275 2.66699 17.0328 2.66815 17.5171C3.34561 17.073 4.09209 16.8784 4.80779 16.7822C5.66862 16.6664 6.72683 16.6666 7.88102 16.6667H8.11967C9.27385 16.6666 10.3321 16.6664 11.1929 16.7822C12.1408 16.9096 13.1428 17.2095 13.9669 18.0335C14.7909 18.8576 15.0907 19.8595 15.2182 20.8075C15.3339 21.6683 15.3338 22.7266 15.3337 23.8807V24.1194C15.3338 25.2736 15.3339 26.3318 15.2182 27.1926C15.1219 27.9083 14.9275 28.6547 14.4833 29.3322C14.9677 29.3334 15.4729 29.3334 16.0003 29.3334C22.2857 29.3334 25.4285 29.3334 27.381 27.3807C29.3337 25.4282 29.3337 22.2854 29.3337 16C29.3337 9.71462 29.3337 6.57193 27.381 4.61931C25.4285 2.66669 22.2857 2.66669 16.0003 2.66669C9.71493 2.66669 6.57223 2.66669 4.61962 4.61931ZM17.667 8.33335C17.1147 8.33335 16.667 8.78107 16.667 9.33335C16.667 9.88563 17.1147 10.3334 17.667 10.3334H20.2527L15.2933 15.293C14.9027 15.6835 14.9027 16.3166 15.2933 16.7071C15.6838 17.0976 16.3169 17.0976 16.7074 16.7071L21.667 11.7476V14.3334C21.667 14.8856 22.1147 15.3334 22.667 15.3334C23.2193 15.3334 23.667 14.8856 23.667 14.3334V9.33335C23.667 8.78107 23.2193 8.33335 22.667 8.33335H17.667Z" fill="white"/>
</g>
</g>
</svg>
