<svg width="32" height="33" viewBox="0 0 32 33" fill="none" xmlns="http://www.w3.org/2000/svg">
<g id="mountain 1" clip-path="url(#clip0_695_8399)">
<g id="Group">
<path id="Vector" d="M18.1322 27.8998C18.6673 27.7547 19.0201 27.3208 19.053 26.7674C19.0859 26.2141 18.7869 25.7414 18.2729 25.5341L13.3204 23.5361C12.2991 23.1241 11.6436 22.2222 11.5669 21.1236C11.4903 20.025 12.0142 19.0409 12.9684 18.491L14.6312 17.5328C15.7195 16.9056 16.2622 15.7047 16.0139 14.4734C16.0112 14.4598 15.0472 8.26839 15.0459 8.25732L13.2206 10.8702L10.2033 12.3411C10.0141 12.4334 9.86137 12.5866 9.7698 12.7762L6.67149 19.1945L2.87437 21.4991C2.6648 21.6263 2.51343 21.8304 2.45262 22.0679L0.0371797 31.4933C-0.0347578 31.7739 0.0271171 32.0719 0.20468 32.3008C0.382305 32.5296 0.655742 32.6635 0.94543 32.6635L3.11105 32.6633L18.0941 27.911C18.1067 27.907 18.1195 27.9033 18.1322 27.8998Z" fill="white"/>
<path id="Vector_2" d="M31.9203 31.3615L28.0556 22.1284C27.9875 21.9657 27.8748 21.8254 27.7306 21.7239L23.6749 18.8681L22.0674 14.7266C22.0325 14.6366 21.9838 14.5524 21.9231 14.4773L16.9505 8.31201L17.8563 14.1242C18.256 16.1509 17.3593 18.1247 15.5675 19.1573L13.9046 20.1156C13.5771 20.3043 13.4112 20.6159 13.4375 20.9931C13.4638 21.3702 13.6714 21.6558 14.022 21.7972L18.9745 23.7952C20.2402 24.3058 21.0058 25.5162 20.9248 26.8786C20.8442 28.234 19.9497 29.3406 18.6437 29.7037L9.31445 32.6628L31.0556 32.6609C31.3693 32.6609 31.6622 32.504 31.836 32.2428C32.0098 31.9816 32.0414 31.6509 31.9203 31.3615Z" fill="white"/>
<path id="Vector_3" d="M16.9297 6.28857H20.3672C20.6784 6.28857 20.9692 6.13426 21.1436 5.87664C21.318 5.61901 21.3532 5.2917 21.2377 5.00289L20.6269 3.47607L21.2376 1.94926C21.3532 1.66039 21.3179 1.33307 21.1435 1.07551C20.9692 0.817887 20.6783 0.663574 20.3672 0.663574H15.9922C15.4744 0.663574 15.0547 1.08332 15.0547 1.60107V7.20745H16.9297V6.28857Z" fill="white"/>
</g>
</g>
<defs>
<clipPath id="clip0_695_8399">
<rect width="32" height="32" fill="white" transform="translate(0 0.66333)"/>
</clipPath>
</defs>
</svg>
