<svg width="28" height="31" viewBox="0 0 28 31" fill="none" xmlns="http://www.w3.org/2000/svg">
<g id="rocket 1" clip-path="url(#clip0_695_8406)">
<g id="Group 257">
<path id="Vector" d="M18.6666 16.3094C18.6981 15.8057 18.7138 15.2968 18.7138 14.7774C18.7138 7.15901 14.4954 3.90075 14.317 3.76958C14.1281 3.62791 13.871 3.62791 13.6874 3.76958C13.509 3.90075 9.28531 7.15901 9.28531 14.7774C9.28531 15.2968 9.3063 15.8057 9.33253 16.3094C8.25169 16.8551 5.35022 18.8961 7.04493 24.4892C7.09215 24.6361 7.19709 24.7568 7.3335 24.8197C7.40171 24.8512 7.47517 24.8617 7.54862 24.8617C7.62732 24.8617 7.70078 24.846 7.77423 24.8145L11.3106 23.1407H16.6938L20.2301 24.8145C20.2983 24.846 20.377 24.8617 20.4557 24.8617C20.5239 24.8617 20.5974 24.8512 20.6656 24.8197C20.8073 24.7568 20.9122 24.6361 20.9542 24.4892C22.6541 18.8961 19.7527 16.8603 18.6666 16.3094ZM14.0022 13.6856C12.7115 13.6856 11.6621 12.6363 11.6621 11.3456C11.6621 10.0548 12.7115 9.00549 14.0022 9.00549C15.2929 9.00549 16.3423 10.0549 16.3423 11.3456C16.3423 12.6363 15.2929 13.6856 14.0022 13.6856Z" fill="white"/>
<path id="Vector_2" d="M16.1584 26.218C15.3968 28.0078 13.9996 30.2633 13.9996 30.2633C13.9996 30.2633 12.6036 28.0074 11.8429 26.2176C11.5058 25.4245 12.0906 24.546 12.9524 24.546H15.0491C15.9111 24.546 16.4959 25.4249 16.1584 26.218Z" fill="white"/>
</g>
</g>
<defs>
<clipPath id="clip0_695_8406">
<rect width="28" height="30" fill="white" transform="translate(0 0.66333)"/>
</clipPath>
</defs>
</svg>
