<svg width="53" height="53" viewBox="0 0 53 53" fill="none" xmlns="http://www.w3.org/2000/svg">
<path d="M14.9399 25.4632C14.9399 26.1157 15.0061 26.6457 15.132 27.0366C15.2711 27.4242 15.45 27.8482 15.6951 28.3086C15.7733 28.4302 15.8158 28.5714 15.8177 28.716C15.8177 28.8916 15.7117 29.0705 15.4864 29.246L14.3734 29.988C14.2398 30.0845 14.0809 30.1398 13.9163 30.147C13.7374 30.147 13.5619 30.0609 13.3863 29.9019C13.1482 29.6457 12.9352 29.3673 12.7503 29.0705C12.5532 28.7307 12.3709 28.3825 12.2037 28.027C10.829 29.6535 9.10323 30.4684 7.02298 30.4684C5.5423 30.4684 4.35973 30.041 3.49848 29.193C2.63392 28.345 2.19336 27.2122 2.19336 25.7977C2.19336 24.2939 2.72336 23.0749 3.79661 22.154C4.87317 21.2331 6.30086 20.776 8.11611 20.776C8.71236 20.776 9.3318 20.829 9.98436 20.9151C10.6369 21.0045 11.3094 21.147 12.0116 21.306V20.0141C12.0116 18.6692 11.73 17.7318 11.1835 17.1852C10.6204 16.6354 9.66636 16.3704 8.30823 16.3704C7.69211 16.3704 7.05942 16.4432 6.40686 16.6022C5.75851 16.7565 5.122 16.9569 4.50217 17.2018C4.30206 17.2924 4.09625 17.3699 3.88605 17.4337C3.79496 17.4638 3.70028 17.4816 3.60448 17.4867C3.35605 17.4867 3.23348 17.3078 3.23348 16.9368V16.0689C3.23348 15.7874 3.26661 15.572 3.35605 15.4528C3.48953 15.2903 3.65987 15.1619 3.85292 15.0785C4.46573 14.7605 5.20773 14.4955 6.0723 14.2835C6.93355 14.0516 7.85111 13.9489 8.82167 13.9489C10.9185 13.9489 12.4522 14.4259 13.4393 15.3799C14.4099 16.3339 14.9034 17.7848 14.9034 19.7325V25.4632H14.9365H14.9399ZM7.78155 28.1496C8.36124 28.1496 8.9608 28.0436 9.5968 27.8316C10.2295 27.6196 10.7959 27.2287 11.2696 26.6987C11.5537 26.3733 11.7588 25.9868 11.8692 25.5692C11.9752 25.1419 12.048 24.6317 12.048 24.0289V23.2869C11.513 23.1571 10.9711 23.0576 10.4249 22.9887C9.87567 22.9177 9.3225 22.8812 8.76867 22.8794C7.58611 22.8794 6.72155 23.1113 6.14186 23.5883C5.55886 24.0653 5.28061 24.7377 5.28061 25.6222C5.28061 26.4503 5.4893 27.0697 5.92986 27.497C6.35386 27.9376 6.96998 28.1496 7.78155 28.1496ZM21.9359 30.0609C21.6179 30.0609 21.4059 30.0079 21.2667 29.882C21.1243 29.776 21.0017 29.5309 20.8957 29.193L16.7551 15.5224C16.6734 15.2932 16.619 15.0553 16.5928 14.8135C16.5928 14.5319 16.7352 14.3729 17.0168 14.3729H18.7459C19.0772 14.3729 19.309 14.4259 19.4316 14.5485C19.574 14.6545 19.68 14.9029 19.786 15.2375L22.7474 26.9472L25.4968 15.2375C25.5829 14.8864 25.6889 14.6545 25.828 14.5485C26.0406 14.4183 26.2882 14.357 26.5369 14.3729H27.9447C28.2826 14.3729 28.5079 14.4259 28.6503 14.5485C28.7927 14.6545 28.9153 14.9029 28.9849 15.2375L31.7707 27.0896L34.8182 15.2375C34.8747 14.981 34.9968 14.7436 35.1726 14.5485C35.3779 14.4184 35.6191 14.3569 35.8616 14.3729H37.5013C37.7829 14.3729 37.9419 14.5154 37.9419 14.8135C37.9419 14.9029 37.922 14.9924 37.9087 15.0984C37.8803 15.2487 37.8381 15.3962 37.7829 15.5389L33.5329 29.2096C33.4269 29.564 33.3044 29.7959 33.1652 29.9019C32.9652 30.0299 32.7298 30.0913 32.4928 30.0775H30.979C30.6444 30.0775 30.4159 30.0245 30.2734 29.9019C30.131 29.776 30.0084 29.5475 29.9389 29.193L27.206 17.7881L24.4898 29.1798C24.4037 29.5342 24.2977 29.7628 24.1585 29.8854C24.0161 30.0112 23.7677 30.0642 23.453 30.0642H21.9359V30.0609ZM44.5867 30.5379C43.672 30.5391 42.7602 30.4324 41.8705 30.2199C40.9894 30.0079 40.3037 29.776 39.8432 29.511C39.5617 29.352 39.3696 29.1765 39.2967 29.0142C39.2293 28.8583 39.1944 28.6904 39.194 28.5206V27.6196C39.194 27.2486 39.3331 27.0697 39.5981 27.0697C39.7063 27.07 39.8137 27.0879 39.9161 27.1227C40.0221 27.1592 40.1811 27.2287 40.3567 27.3016C40.9529 27.5666 41.6088 27.7786 42.2945 27.921C43 28.0602 43.6857 28.133 44.3913 28.133C45.5043 28.133 46.3656 27.9376 46.9651 27.55C47.2531 27.3757 47.4898 27.1281 47.651 26.8325C47.8122 26.5369 47.8921 26.2038 47.8827 25.8673C47.8886 25.6401 47.8495 25.4139 47.7677 25.2018C47.6858 24.9898 47.5628 24.796 47.4057 24.6317C47.091 24.2939 46.4914 23.9924 45.6269 23.7109L43.0696 22.9159C41.7844 22.5084 40.8304 21.9055 40.2507 21.1105C39.6832 20.376 39.3735 19.4749 39.3696 18.5467C39.3696 17.8047 39.5286 17.1488 39.8432 16.5824C40.1612 16.0192 40.5852 15.5224 41.1152 15.1315C41.6452 14.7274 42.2415 14.4259 42.9471 14.2139C43.6526 14.0019 44.3913 13.9125 45.1664 13.9125C45.5573 13.9125 45.9614 13.929 46.349 13.982C46.7531 14.035 47.1241 14.1079 47.4951 14.1808C47.8462 14.2669 48.1841 14.353 48.4988 14.4624C48.8168 14.5684 49.0619 14.6744 49.2408 14.7804C49.4488 14.8848 49.6301 15.0355 49.7708 15.2209C49.8842 15.3934 49.9388 15.5979 49.9265 15.8039V16.6354C49.9265 17.0064 49.7874 17.2018 49.5224 17.2018C49.2877 17.175 49.0605 17.103 48.8532 16.9898C47.788 16.5175 46.6329 16.2824 45.4679 16.3008C44.4642 16.3008 43.6692 16.4598 43.1226 16.7977C42.576 17.1289 42.2945 17.6457 42.2945 18.3711C42.2945 18.8647 42.4701 19.2887 42.8245 19.6265C43.1756 19.9611 43.8282 20.2957 44.7623 20.5971L47.2666 21.3921C48.5352 21.7995 49.4528 22.366 49.9994 23.0914C50.5459 23.8169 50.8076 24.6483 50.8076 25.5692C50.8076 26.331 50.6519 27.0167 50.3505 27.6196C50.0384 28.2245 49.6001 28.7555 49.0652 29.1765C48.5187 29.617 47.8661 29.9384 47.1076 30.1669C46.3126 30.4154 45.4844 30.5379 44.5867 30.5379Z" fill="white"/>
<path fill-rule="evenodd" clip-rule="evenodd" d="M47.9151 39.1305C42.1182 43.4269 33.6912 45.7092 26.4468 45.7092C16.294 45.7092 7.14483 41.9429 0.234957 35.6822C-0.311606 35.1854 0.181956 34.5129 0.831206 34.9038C8.30752 39.2531 17.5262 41.8899 27.0662 41.8899C33.4958 41.8899 40.5646 40.545 47.0704 37.7857C48.041 37.3451 48.8691 38.4217 47.9151 39.1305Z" fill="#FF9900"/>
<path fill-rule="evenodd" clip-rule="evenodd" d="M50.3307 36.3713C49.592 35.4206 45.4315 35.9141 43.5467 36.1427C42.9836 36.2156 42.8942 35.7187 43.4043 35.3477C46.7168 33.0124 52.1659 33.6848 52.7985 34.4633C53.4345 35.2583 52.623 40.7239 49.5192 43.3408C49.0455 43.7482 48.5883 43.5395 48.797 43.0095C49.5026 41.2539 51.0727 37.312 50.3307 36.3746V36.3713Z" fill="#FF9900"/>
</svg>
