<svg width="18" height="18" viewBox="0 0 18 18" fill="none" xmlns="http://www.w3.org/2000/svg">
<path d="M9.00033 0.666687C7.35215 0.666687 5.74099 1.15543 4.37058 2.07111C3.00017 2.98679 1.93206 4.28827 1.30133 5.81099C0.670603 7.33371 0.505575 9.00927 0.827119 10.6258C1.14866 12.2423 1.94234 13.7271 3.10777 14.8926C4.27321 16.058 5.75807 16.8517 7.37458 17.1732C8.99109 17.4948 10.6666 17.3298 12.1894 16.699C13.7121 16.0683 15.0136 15.0002 15.9292 13.6298C16.8449 12.2594 17.3337 10.6482 17.3337 9.00002C17.3311 6.79066 16.4523 4.67252 14.8901 3.11027C13.3278 1.54801 11.2097 0.669223 9.00033 0.666687ZM11.9609 11.4121L8.62758 9.74544C8.48916 9.67621 8.37276 9.56981 8.29141 9.43815C8.21006 9.30649 8.16698 9.15478 8.167 9.00002V4.83335C8.167 4.61234 8.25479 4.40038 8.41107 4.2441C8.56735 4.08782 8.77932 4.00002 9.00033 4.00002C9.22134 4.00002 9.4333 4.08782 9.58958 4.2441C9.74586 4.40038 9.83366 4.61234 9.83366 4.83335V8.48485L12.7064 9.92119C12.9041 10.02 13.0545 10.1934 13.1244 10.4031C13.1943 10.6128 13.178 10.8417 13.0791 11.0394C12.9803 11.2371 12.8069 11.3874 12.5972 11.4573C12.3875 11.5272 12.1586 11.511 11.9609 11.4121Z" fill="#333333"/>
</svg>
