<svg width="53" height="53" viewBox="0 0 53 53" fill="none" xmlns="http://www.w3.org/2000/svg">
<g clip-path="url(#clip0_962_451)">
<path d="M48.7873 40.8451C45.9059 40.7721 43.6726 41.0649 41.7996 41.8698C41.2592 42.0891 40.3947 42.0893 40.3226 42.7846C40.6108 43.0774 40.6468 43.5531 40.899 43.9554C41.3317 44.6871 42.0876 45.6752 42.772 46.1877C43.5283 46.773 44.285 47.3583 45.0771 47.8706C46.482 48.7489 48.0671 49.261 49.4357 50.1392C50.2285 50.6511 51.0204 51.3103 51.8129 51.859C52.2091 52.1513 52.4611 52.6274 52.9656 52.8102V52.7006C52.7132 52.3711 52.6412 51.8956 52.3892 51.5296C52.0294 51.1637 51.6688 50.8343 51.3085 50.4684C50.2641 49.0416 48.9674 47.7974 47.5627 46.773C46.4102 45.9679 43.8885 44.8703 43.4204 43.5163C43.4204 43.5163 43.3842 43.4799 43.3484 43.4433C44.1407 43.3701 45.0771 43.0774 45.8338 42.8578C47.0584 42.5283 48.1749 42.6017 49.4357 42.2723C50.0119 42.1259 50.5883 41.943 51.1644 41.76V41.4308C50.5164 40.7721 50.0481 39.8941 49.3637 39.272C47.5267 37.6616 45.5094 36.0885 43.4204 34.7713C42.3037 34.0394 40.8628 33.5637 39.6742 32.9418C39.2423 32.722 38.5217 32.6125 38.2697 32.2465C37.6211 31.4416 37.2609 30.3806 36.7928 29.4292C35.7485 27.4165 34.7396 25.1847 33.839 23.0626C33.191 21.6354 32.7948 20.2082 32.0023 18.8913C28.2923 12.6709 24.258 8.90207 18.0628 5.20626C16.73 4.43799 15.1452 4.10864 13.4523 3.70631C12.5521 3.66951 11.6513 3.59653 10.7509 3.55973C10.1745 3.30357 9.59816 2.60848 9.09383 2.27914C7.04112 0.961741 1.74588 -1.89198 0.233104 1.87681C-0.739529 4.25502 1.67404 6.59663 2.50217 7.80446C3.11498 8.64591 3.90708 9.59716 4.33936 10.5486C4.59153 11.1703 4.66337 11.8294 4.91553 12.4879C5.49211 14.0974 6.03205 15.8907 6.78875 17.3911C7.18501 18.1594 7.61708 18.9642 8.12141 19.6595C8.4096 20.0619 8.91372 20.245 9.022 20.9035C8.51787 21.6354 8.48164 22.7333 8.19325 23.6479C6.89661 27.7826 7.40115 32.9052 9.23793 35.9421C9.8141 36.8566 11.183 38.8697 13.02 38.101C14.641 37.4425 14.2808 35.3568 14.7487 33.5273C14.8572 33.0878 14.7851 32.7954 15.0011 32.5027V32.5761C15.5054 33.6003 16.0095 34.5885 16.4778 35.613C17.5945 37.4057 19.5394 39.272 21.1602 40.5162C22.025 41.1745 22.7092 42.3089 23.7899 42.7114V42.6014H23.7177C23.5016 42.2721 23.1773 42.1259 22.8894 41.8696C22.2411 41.2113 21.5205 40.4062 21.0164 39.6743C19.5038 37.625 18.1707 35.3566 16.9821 33.0148C16.406 31.8808 15.9014 30.6366 15.4333 29.5024C15.217 29.0628 15.217 28.4045 14.857 28.1852C14.3166 28.99 13.5243 29.6853 13.128 30.6732C12.444 32.2465 12.3718 34.1858 12.1196 36.1981C11.9755 36.2351 12.0473 36.1981 11.9753 36.2717C10.823 35.9785 10.4267 34.7713 9.99421 33.7467C8.91351 31.1489 8.73339 26.9776 9.67021 23.9772C9.92237 23.2088 11.0031 20.794 10.5708 20.0621C10.3547 19.3668 9.63398 18.9642 9.23793 18.4155C8.76983 17.7203 8.2653 16.8424 7.94129 16.0737C7.07673 14.0246 6.64445 11.756 5.70805 9.70694C5.27576 8.75549 4.51969 7.76786 3.90708 6.8896C3.22284 5.90176 2.46635 5.20626 1.926 4.03545C1.74609 3.63313 1.49372 2.97443 1.7819 2.5353C1.85395 2.24254 1.99784 2.13297 2.28623 2.05978C2.75454 1.65703 4.0874 2.16935 4.5553 2.38892C5.88816 2.93741 7.00468 3.45015 8.12141 4.21842C8.62553 4.58437 9.16588 5.27966 9.8141 5.46263H10.5706C11.7233 5.71858 13.0198 5.53582 14.1005 5.86496C16.0097 6.48685 17.7384 7.40171 19.2874 8.38975C24.0061 11.4267 27.8958 15.7444 30.5255 20.9035C30.9578 21.7448 31.1377 22.5137 31.534 23.3915C32.2907 25.1847 33.2271 27.0142 33.9831 28.7705C34.7396 30.49 35.4599 32.2465 36.5406 33.6737C37.0809 34.4418 39.2419 34.8445 40.2146 35.247C40.935 35.5762 42.0518 35.8691 42.7 36.2715C43.9246 37.0395 45.1492 37.9182 46.3019 38.7595C46.8783 39.1986 48.679 40.1134 48.7873 40.8451Z" fill="#00618B"/>
<path d="M12.0454 9.04803C11.4332 9.04803 11.0011 9.12164 10.5688 9.23122V9.30441H10.6409C10.9293 9.88991 11.4332 10.2925 11.7932 10.8046C12.0816 11.3899 12.3336 11.9756 12.622 12.5611C12.6578 12.5243 12.6938 12.4879 12.6938 12.4879C13.1984 12.1217 13.4503 11.5364 13.4503 10.6582C13.2342 10.4022 13.1981 10.1461 13.018 9.88991C12.8021 9.52376 12.3336 9.341 12.0454 9.04803Z" fill="#00618B"/>
</g>
<defs>
<clipPath id="clip0_962_451">
<rect width="53" height="53" fill="white"/>
</clipPath>
</defs>
</svg>
