<svg width="53" height="53" viewBox="0 0 53 53" fill="none" xmlns="http://www.w3.org/2000/svg">
<g clip-path="url(#clip0_962_216)">
<path d="M26.0885 0.668697C24.2845 0.677079 22.5618 0.830929 21.046 1.09915C16.5805 1.88805 15.7698 3.53927 15.7698 6.5844V10.6061H26.3221V11.9467H15.7698H11.8096C8.7428 11.9467 6.05742 13.79 5.21747 17.2966C4.24859 21.316 4.20562 23.8242 5.21747 28.0211C5.96757 31.1451 7.7589 33.3711 10.8257 33.3711H14.4538V28.55C14.4538 25.067 17.4674 21.9947 21.046 21.9947H31.586C34.52 21.9947 36.8622 19.579 36.8622 16.6325V6.5844C36.8622 3.72466 34.4496 1.57643 31.586 1.09915C29.7733 0.797401 27.8924 0.660315 26.0885 0.668697ZM20.3818 3.90327C21.4718 3.90327 22.3619 4.80792 22.3619 5.92026C22.3619 7.02866 21.4718 7.92496 20.3818 7.92496C19.2879 7.92496 18.4017 7.02866 18.4017 5.92026C18.4017 4.80792 19.2879 3.90327 20.3818 3.90327Z" fill="url(#paint0_linear_962_216)"/>
<path d="M38.1779 11.9467V16.6325C38.1779 20.2653 35.0979 23.323 31.5857 23.323H21.0457C18.1586 23.323 15.7695 25.794 15.7695 28.6853V38.7333C15.7695 41.5931 18.2563 43.2752 21.0457 44.0956C24.386 45.0778 27.5891 45.2553 31.5857 44.0956C34.2423 43.3264 36.8619 41.7785 36.8619 38.7333V34.7116H26.3219V33.3711H36.8619H42.1381C45.2049 33.3711 46.3477 31.2319 47.4142 28.0211C48.5159 24.7157 48.4691 21.5369 47.4142 17.2966C46.6563 14.2436 45.2088 11.9467 42.1381 11.9467H38.1779ZM32.2499 37.3928C33.3438 37.3928 34.23 38.2891 34.23 39.3975C34.23 40.5098 33.3438 41.4145 32.2499 41.4145C31.1599 41.4145 30.2698 40.5098 30.2698 39.3975C30.2698 38.2891 31.1599 37.3928 32.2499 37.3928Z" fill="url(#paint1_linear_962_216)"/>
<path opacity="0.44382" d="M26.4418 53.6683C34.2516 53.6683 40.5828 52.4407 40.5828 50.9263C40.5828 49.4119 34.2516 48.1842 26.4418 48.1842C18.6319 48.1842 12.3008 49.4119 12.3008 50.9263C12.3008 52.4407 18.6319 53.6683 26.4418 53.6683Z" fill="url(#paint2_radial_962_216)"/>
</g>
<defs>
<linearGradient id="paint0_linear_962_216" x1="4.47461" y1="0.668335" x2="28.8071" y2="21.403" gradientUnits="userSpaceOnUse">
<stop stop-color="#5A9FD4"/>
<stop offset="1" stop-color="#306998"/>
</linearGradient>
<linearGradient id="paint1_linear_962_216" x1="31.9963" y1="39.0594" x2="23.2667" y2="26.8266" gradientUnits="userSpaceOnUse">
<stop stop-color="#FFD43B"/>
<stop offset="1" stop-color="#FFE873"/>
</linearGradient>
<radialGradient id="paint2_radial_962_216" cx="0" cy="0" r="1" gradientUnits="userSpaceOnUse" gradientTransform="translate(26.4418 50.9263) rotate(-90) scale(2.74206 12.0525)">
<stop stop-color="#B8B8B8" stop-opacity="0.498039"/>
<stop offset="1" stop-color="#7F7F7F" stop-opacity="0"/>
</radialGradient>
<clipPath id="clip0_962_216">
<rect width="53" height="53" fill="white"/>
</clipPath>
</defs>
</svg>
