<svg width="28" height="30" viewBox="0 0 28 30" fill="none" xmlns="http://www.w3.org/2000/svg">
<path d="M18.6666 15.6461C18.6981 15.1424 18.7138 14.6335 18.7138 14.114C18.7138 6.49568 14.4954 3.23742 14.317 3.10625C14.1281 2.96458 13.871 2.96458 13.6874 3.10625C13.509 3.23742 9.28531 6.49568 9.28531 14.114C9.28531 14.6335 9.3063 15.1424 9.33253 15.6461C8.25169 16.1918 5.35022 18.2328 7.04493 23.8258C7.09215 23.9728 7.19709 24.0934 7.3335 24.1564C7.40171 24.1879 7.47517 24.1984 7.54862 24.1984C7.62732 24.1984 7.70078 24.1826 7.77423 24.1511L11.3106 22.4774H16.6938L20.2301 24.1511C20.2983 24.1826 20.377 24.1984 20.4557 24.1984C20.5239 24.1984 20.5974 24.1879 20.6656 24.1564C20.8073 24.0934 20.9122 23.9728 20.9542 23.8258C22.6541 18.2328 19.7527 16.197 18.6666 15.6461ZM14.0022 13.0223C12.7115 13.0223 11.6621 11.9729 11.6621 10.6822C11.6621 9.39152 12.7115 8.34216 14.0022 8.34216C15.2929 8.34216 16.3423 9.39152 16.3423 10.6822C16.3423 11.9729 15.2929 13.0223 14.0022 13.0223Z" fill="url(#paint0_linear_962_345)"/>
<path d="M16.1584 25.5547C15.3968 27.3444 13.9996 29.5999 13.9996 29.5999C13.9996 29.5999 12.6036 27.344 11.8429 25.5542C11.5058 24.7611 12.0906 23.8826 12.9524 23.8826H15.0491C15.9111 23.8826 16.4959 24.7615 16.1584 25.5547Z" fill="url(#paint1_linear_962_345)"/>
<defs>
<linearGradient id="paint0_linear_962_345" x1="14.0009" y1="3" x2="14.0009" y2="24.1984" gradientUnits="userSpaceOnUse">
<stop stop-color="#FF0000"/>
<stop offset="1" stop-color="#0674B7"/>
</linearGradient>
<linearGradient id="paint1_linear_962_345" x1="14.0007" y1="23.8826" x2="14.0007" y2="29.5999" gradientUnits="userSpaceOnUse">
<stop stop-color="#FF0000"/>
<stop offset="1" stop-color="#0674B7"/>
</linearGradient>
</defs>
</svg>
