<svg width="80" height="80" viewBox="0 0 80 80" fill="none" xmlns="http://www.w3.org/2000/svg">
<path d="M64.3261 15.6752C57.8288 9.17788 49.1901 5.59961 40.0016 5.59961C30.813 5.59961 22.1743 9.17788 15.677 15.6752C9.1797 22.1725 5.60156 30.811 5.60156 39.9996C5.60156 49.1882 9.1797 57.8269 15.677 64.324C22.1743 70.8212 30.813 74.3996 40.0016 74.3996C49.1901 74.3996 57.8288 70.8213 64.3261 64.324C70.8234 57.8267 74.4016 49.1882 74.4016 39.9996C74.4016 30.811 70.8234 22.1723 64.3261 15.6752ZM40.0016 67.6475C24.7563 67.6475 12.3536 55.2447 12.3536 39.9996C12.3536 39.9746 12.3544 39.9499 12.3546 39.9252C12.3546 39.9189 12.3536 39.9128 12.3536 39.9065C12.3536 39.8959 12.355 39.8857 12.3553 39.8752C12.4223 24.8127 24.5949 12.5581 39.6259 12.3565C39.6573 12.355 39.6885 12.3518 39.7203 12.3518C39.7394 12.3518 39.7579 12.3541 39.7769 12.3546C39.8519 12.3541 39.9266 12.3518 40.0017 12.3518C55.2469 12.3518 67.6496 24.7546 67.6496 39.9997C67.6496 55.2449 55.2468 67.6475 40.0016 67.6475Z" fill="white"/>
<path d="M61.0054 41.6609C59.8812 41.6609 58.9699 40.7496 58.9699 39.6254C58.9699 38.5012 59.8812 37.5899 61.0054 37.5899H63.459C62.3066 26.2921 53.1441 17.3297 41.7585 16.4883V18.6242C41.7585 19.7484 40.8472 20.6597 39.723 20.6597C38.5988 20.6597 37.6875 19.7484 37.6875 18.6242V16.5369C26.4704 17.6361 17.5354 26.6288 16.5245 37.8711H18.7218C19.846 37.8711 20.7573 38.7824 20.7573 39.9066C20.7573 41.0308 19.846 41.9421 18.7218 41.9421H16.5078C17.4437 53.3655 26.5579 62.5076 37.9688 63.4881V60.9077C37.9688 59.7835 38.8802 58.8722 40.0044 58.8722C41.1285 58.8722 42.0399 59.7835 42.0399 60.9077V63.4881C53.5442 62.4995 62.7139 53.215 63.522 41.6609H61.0054ZM48.2442 34.6387L41.4438 41.4393C41.062 41.8211 40.5444 42.0355 40.0045 42.0355C39.4647 42.0355 38.9468 41.8211 38.5652 41.4393L26.7277 29.6018C25.9327 28.807 25.9327 27.5182 26.7277 26.7232C27.5225 25.9283 28.8113 25.9283 29.6063 26.7232L40.0046 37.1214L45.3659 31.7601C46.1607 30.9652 47.4495 30.9652 48.2445 31.7601C49.0392 32.555 49.0392 33.8439 48.2442 34.6387Z" fill="white"/>
</svg>
