<svg width="80" height="80" viewBox="0 0 80 80" fill="none" xmlns="http://www.w3.org/2000/svg">
<path d="M60.608 21.0316H7.2L7.968 16.0796C8.24 14.3356 9.872 13.1356 11.616 13.4076L60.608 21.0316ZM60 43.0316C58.8969 43.0316 58 43.9289 58 45.0316C58 46.1343 58.8969 47.0316 60 47.0316C61.1031 47.0316 62 46.1343 62 45.0316C62 43.9289 61.1031 43.0316 60 43.0316ZM76 26.6316V63.4316C76 65.199 74.5674 66.6316 72.8 66.6316H7.2C5.43264 66.6316 4 65.199 4 63.4316V26.6316C4 24.8642 5.43264 23.4316 7.2 23.4316H72.8C74.5674 23.4316 76 24.8642 76 26.6316ZM70.8 34.6316C70.8 33.9687 70.2625 33.4316 69.6 33.4316C67.6149 33.4316 66 31.8167 66 29.8316C66 29.1687 65.4625 28.6316 64.8 28.6316H15.2C14.5371 28.6316 14 29.1687 14 29.8316C14 31.8167 12.3851 33.4316 10.4 33.4316C9.73712 33.4316 9.2 33.9687 9.2 34.6316V55.4316C9.2 56.0945 9.73712 56.6316 10.4 56.6316C12.3851 56.6316 14 58.2465 14 60.2316C14 60.8945 14.5371 61.4316 15.2 61.4316H64.8C65.4625 61.4316 66 60.8945 66 60.2316C66 58.2465 67.6149 56.6316 69.6 56.6316C70.2625 56.6316 70.8 56.0945 70.8 55.4316V34.6316ZM20 43.0316C18.8973 43.0316 18 43.9289 18 45.0316C18 46.1343 18.8973 47.0316 20 47.0316C21.1027 47.0316 22 46.1343 22 45.0316C22 43.9289 21.1027 43.0316 20 43.0316ZM50 45.0316C50 50.5457 45.5141 55.0316 40 55.0316C34.4859 55.0316 30 50.5457 30 45.0316C30 39.5175 34.4859 35.0316 40 35.0316C45.5141 35.0316 50 39.5175 50 45.0316ZM38.3914 42.6922V42.2305C38.3914 41.7309 38.7981 41.3242 39.2981 41.3242H40.702C41.202 41.3242 41.6086 41.7309 41.6086 42.2305C41.6086 42.8934 42.1462 43.4305 42.8086 43.4305C43.4711 43.4305 44.0086 42.8934 44.0086 42.2305C44.0086 40.578 42.7859 39.217 41.2001 38.9746V38.1222C41.2001 37.4594 40.663 36.9222 40.0001 36.9222C39.3372 36.9222 38.8001 37.4594 38.8001 38.1222V38.9746C37.214 39.217 35.9915 40.5779 35.9915 42.2305V42.6922C35.9915 44.2121 37.0216 45.5312 38.4962 45.8996L40.922 46.5062C41.3263 46.6074 41.6087 46.9687 41.6087 47.3855V47.8472C41.6087 48.3472 41.2021 48.7538 40.7021 48.7538H39.2982C38.7982 48.7538 38.3915 48.3472 38.3915 47.8472C38.3915 47.1843 37.8544 46.6472 37.1915 46.6472C36.5286 46.6472 35.9915 47.1843 35.9915 47.8472C35.9915 49.5001 37.214 50.861 38.8001 51.1035V52.0601C38.8001 52.723 39.3372 53.2601 40.0001 53.2601C40.663 53.2601 41.2001 52.723 41.2001 52.0601V51.1035C42.7859 50.861 44.0086 49.5001 44.0086 47.8472V47.3855C44.0086 45.8656 42.979 44.5465 41.5039 44.1781L39.0782 43.5714C38.6738 43.4702 38.3914 43.109 38.3914 42.6922ZM68.4 35.711V54.3524C66.0523 54.8306 64.1992 56.6844 63.7203 59.0317H16.2793C15.8011 56.6844 13.9473 54.8305 11.6 54.3524V35.711C13.9473 35.2328 15.8012 33.379 16.2793 31.0317H63.7203C64.1992 33.379 66.0523 35.2329 68.4 35.711ZM24.4 45.0316C24.4 42.6054 22.4262 40.6316 20 40.6316C17.5738 40.6316 15.6 42.6054 15.6 45.0316C15.6 47.4578 17.5738 49.4316 20 49.4316C22.4262 49.4316 24.4 47.4578 24.4 45.0316ZM52.4 45.0316C52.4 38.1941 46.8375 32.6316 40 32.6316C33.1625 32.6316 27.6 38.1941 27.6 45.0316C27.6 51.8691 33.1625 57.4316 40 57.4316C46.8375 57.4316 52.4 51.8691 52.4 45.0316ZM64.4 45.0316C64.4 42.6054 62.4258 40.6316 60 40.6316C57.5742 40.6316 55.6 42.6054 55.6 45.0316C55.6 47.4578 57.5742 49.4316 60 49.4316C62.4258 49.4316 64.4 47.4578 64.4 45.0316Z" fill="white"/>
</svg>
