<svg width="55" height="55" viewBox="0 0 55 55" fill="none" xmlns="http://www.w3.org/2000/svg">
<path d="M7.27124 27.4683C7.27124 35.4633 11.9175 42.3726 18.655 45.6467L9.01998 19.248C7.89925 21.7601 7.27124 24.54 7.27124 27.4683Z" fill="#21759B"/>
<path d="M41.1047 26.45C41.1047 23.9537 40.208 22.2249 39.4389 20.8794C38.4151 19.2156 37.4554 17.8066 37.4554 16.1428C37.4554 14.2861 38.8636 12.5577 40.8472 12.5577C40.9367 12.5577 41.0216 12.5688 41.1089 12.5738C37.5153 9.28158 32.7276 7.27148 27.4691 7.27148C20.4126 7.27148 14.2044 10.892 10.5928 16.3757C11.0667 16.3899 11.5133 16.3999 11.8926 16.3999C14.0053 16.3999 17.2757 16.1436 17.2757 16.1436C18.3645 16.0794 18.4929 17.6786 17.4052 17.8074C17.4052 17.8074 16.311 17.9361 15.0934 17.9999L22.4489 39.8784L26.8691 26.6214L23.7222 17.9991C22.6345 17.9353 21.6041 17.8066 21.6041 17.8066C20.5156 17.7428 20.6432 16.0786 21.7317 16.1428C21.7317 16.1428 25.0674 16.3991 27.0521 16.3991C29.1644 16.3991 32.4351 16.1428 32.4351 16.1428C33.5247 16.0786 33.6527 17.6778 32.5646 17.8066C32.5646 17.8066 31.4681 17.9353 30.2529 17.9991L37.5522 39.712L39.5669 32.9795C40.4401 30.1858 41.1047 28.1791 41.1047 26.45Z" fill="#21759B"/>
<path d="M27.8239 29.2344L21.7637 46.8444C23.5731 47.3763 25.4868 47.6673 27.4696 47.6673C29.8217 47.6673 32.0774 47.2606 34.177 46.5223C34.1229 46.4358 34.0737 46.344 34.0333 46.2441L27.8239 29.2344Z" fill="#21759B"/>
<path d="M45.1931 17.7773C45.2799 18.4207 45.3291 19.1114 45.3291 19.8543C45.3291 21.904 44.9463 24.2081 43.7933 27.0891L37.6235 44.9274C43.6284 41.4257 47.6675 34.92 47.6675 27.4684C47.6678 23.9567 46.7708 20.6545 45.1931 17.7773Z" fill="#21759B"/>
<path d="M27.4699 3.92383C14.4873 3.92383 3.92456 14.4858 3.92456 27.4684C3.92456 40.4525 14.4873 51.0142 27.4699 51.0142C40.4521 51.0142 51.0164 40.4525 51.0164 27.4684C51.016 14.4858 40.4521 3.92383 27.4699 3.92383ZM27.4699 49.9349C15.0827 49.9349 5.00417 39.8564 5.00417 27.4684C5.00417 15.0812 15.0823 5.00344 27.4699 5.00344C39.8568 5.00344 49.9345 15.0812 49.9345 27.4684C49.9345 39.8564 39.8568 49.9349 27.4699 49.9349Z" fill="#21759B"/>
</svg>
