<svg width="61" height="61" viewBox="0 0 61 61" fill="none" xmlns="http://www.w3.org/2000/svg">
<g clip-path="url(#clip0_1175_790)">
<path d="M56.253 30.4035C56.253 26.8962 51.8609 23.5725 45.127 21.5113C46.681 14.648 45.9903 9.18754 42.9472 7.43933C42.2457 7.02926 41.4256 6.83501 40.5299 6.83501V9.2415C41.0263 9.2415 41.4256 9.33862 41.7601 9.52207C43.2277 10.3638 43.8644 13.5689 43.368 17.6912C43.2493 18.7056 43.0551 19.7739 42.8177 20.8638C40.7026 20.3459 38.3932 19.9466 35.9651 19.6876C34.5083 17.6912 32.9975 15.8782 31.4759 14.2919C34.9939 11.0221 38.2961 9.2307 40.5407 9.2307V6.82422C37.573 6.82422 33.6881 8.93934 29.7601 12.6084C25.832 8.96092 21.9471 6.86738 18.9794 6.86738V9.27387C21.2133 9.27387 24.5262 11.0545 28.0442 14.3027C26.5334 15.889 25.0226 17.6912 23.5874 19.6876C21.1485 19.9466 18.8392 20.3459 16.724 20.8746C16.4758 19.7955 16.2924 18.7487 16.1629 17.7451C15.6557 13.6228 16.2816 10.4178 17.7384 9.56524C18.0622 9.37099 18.483 9.28466 18.9794 9.28466V6.87818C18.073 6.87818 17.2528 7.07242 16.5406 7.48249C13.5082 9.2307 12.8283 14.6804 14.3931 21.5221C7.68083 23.5941 3.3103 26.907 3.3103 30.4035C3.3103 33.9107 7.70241 37.2344 14.4363 39.2956C12.8823 46.1589 13.5729 51.6194 16.6161 53.3676C17.3176 53.7777 18.1377 53.9719 19.0442 53.9719C22.0118 53.9719 25.8967 51.8568 29.8248 48.1877C33.7529 51.8352 37.6378 53.9287 40.6054 53.9287C41.5119 53.9287 42.3321 53.7345 43.0443 53.3244C46.0767 51.5762 46.7565 46.1265 45.1918 39.2848C51.8825 37.2236 56.253 33.8999 56.253 30.4035ZM42.2026 23.2056C41.8033 24.5977 41.3069 26.0329 40.7457 27.4682C40.3033 26.6049 39.8392 25.7416 39.332 24.8783C38.8356 24.0149 38.3069 23.1732 37.7781 22.3531C39.3105 22.5797 40.7889 22.8603 42.2026 23.2056ZM37.2601 34.6984C36.4184 36.1553 35.5551 37.5366 34.6594 38.8208C33.0514 38.961 31.4219 39.0366 29.7816 39.0366C28.1521 39.0366 26.5226 38.961 24.9255 38.8316C24.0298 37.5474 23.1557 36.1769 22.314 34.7308C21.4938 33.3171 20.7492 31.8819 20.0694 30.4358C20.7384 28.9898 21.4938 27.5437 22.3032 26.1301C23.1449 24.6732 24.0082 23.2919 24.9039 22.0077C26.5118 21.8674 28.1413 21.7919 29.7816 21.7919C31.4111 21.7919 33.0407 21.8674 34.6378 21.9969C35.5335 23.2811 36.4076 24.6516 37.2493 26.0977C38.0695 27.5114 38.8141 28.9466 39.4939 30.3927C38.8141 31.8387 38.0695 33.2848 37.2601 34.6984ZM40.7457 33.2956C41.3285 34.7416 41.8249 36.1877 42.2349 37.5905C40.8213 37.9359 39.3321 38.2272 37.7889 38.4538C38.3177 37.6229 38.8464 36.7704 39.3428 35.8963C39.8392 35.033 40.3033 34.1589 40.7457 33.2956ZM29.8032 44.81C28.7996 43.774 27.796 42.6193 26.8032 41.3567C27.7744 41.3999 28.7673 41.4323 29.7709 41.4323C30.7852 41.4323 31.7888 41.4107 32.7709 41.3567C31.7996 42.6193 30.796 43.774 29.8032 44.81ZM21.7744 38.4538C20.242 38.2272 18.7636 37.9467 17.3499 37.6013C17.7492 36.2092 18.2456 34.774 18.8068 33.3387C19.2492 34.202 19.7133 35.0653 20.2205 35.9287C20.7276 36.792 21.2456 37.6337 21.7744 38.4538ZM29.7493 15.9969C30.7529 17.0329 31.7565 18.1876 32.7493 19.4502C31.7781 19.407 30.7852 19.3746 29.7816 19.3746C28.7673 19.3746 27.7637 19.3962 26.7816 19.4502C27.7529 18.1876 28.7565 17.0329 29.7493 15.9969ZM21.7636 22.3531C21.2348 23.184 20.7061 24.0365 20.2097 24.9106C19.7133 25.7739 19.2492 26.6373 18.8068 27.5006C18.224 26.0545 17.7276 24.6085 17.3176 23.2056C18.7312 22.871 20.2205 22.5797 21.7636 22.3531ZM11.9974 35.8639C8.17723 34.2344 5.706 32.0977 5.706 30.4035C5.706 28.7092 8.17723 26.5617 11.9974 24.943C12.9255 24.5437 13.9398 24.1876 14.9866 23.8531C15.6017 25.9682 16.4111 28.1696 17.4147 30.425C16.4219 32.6697 15.6233 34.8603 15.019 36.9646C13.9506 36.6301 12.9362 36.2632 11.9974 35.8639ZM17.8032 51.2848C16.3355 50.4431 15.6988 47.2381 16.1953 43.1157C16.314 42.1013 16.5082 41.033 16.7456 39.9431C18.8607 40.4611 21.1701 40.8603 23.5982 41.1193C25.055 43.1157 26.5658 44.9287 28.0874 46.515C24.5694 49.7848 21.2672 51.5762 19.0226 51.5762C18.537 51.5654 18.1269 51.4683 17.8032 51.2848ZM43.4004 43.0618C43.9076 47.1841 43.2817 50.3892 41.8249 51.2417C41.5011 51.4359 41.0803 51.5223 40.5838 51.5223C38.35 51.5223 35.0371 49.7417 31.5191 46.4935C33.0299 44.9071 34.5407 43.1049 35.9759 41.1085C38.4148 40.8495 40.7241 40.4503 42.8393 39.9215C43.0875 41.0114 43.2817 42.0582 43.4004 43.0618ZM47.5551 35.8639C46.627 36.2632 45.6127 36.6193 44.5659 36.9538C43.9508 34.8387 43.1414 32.6373 42.1378 30.3819C43.1306 28.1373 43.9292 25.9466 44.5335 23.8423C45.6019 24.1768 46.6163 24.5437 47.5659 24.943C51.3861 26.5725 53.8573 28.7092 53.8573 30.4035C53.8465 32.0977 51.3753 34.2452 47.5551 35.8639Z" fill="#61DAFB"/>
<path d="M29.7722 35.336C32.4959 35.336 34.7039 33.128 34.7039 30.4043C34.7039 27.6806 32.4959 25.4727 29.7722 25.4727C27.0486 25.4727 24.8406 27.6806 24.8406 30.4043C24.8406 33.128 27.0486 35.336 29.7722 35.336Z" fill="#61DAFB"/>
</g>
<defs>
<clipPath id="clip0_1175_790">
<rect width="52.9427" height="49.9459" fill="white" transform="translate(3.28638 4.99414)"/>
</clipPath>
</defs>
</svg>
