<svg width="61" height="61" viewBox="0 0 61 61" fill="none" xmlns="http://www.w3.org/2000/svg">
<mask id="mask0_1175_772" style="mask-type:luminance" maskUnits="userSpaceOnUse" x="6" y="3" width="48" height="54">
<path d="M28.6191 3.74576L7.94746 15.6772C7.1732 16.1237 6.69824 16.948 6.69824 17.8391V41.7186C6.69824 42.6101 7.1732 43.434 7.94746 43.8805L28.6205 55.8212C29.3933 56.2663 30.3462 56.2663 31.118 55.8212L51.7877 43.8805C52.558 43.434 53.0339 42.6096 53.0339 41.7186V17.8391C53.0339 16.948 52.558 16.1237 51.7828 15.6772L31.1161 3.74576C30.7284 3.52349 30.2966 3.41211 29.8649 3.41211C29.4331 3.41211 29.0013 3.52349 28.6137 3.74576" fill="white"/>
</mask>
<g mask="url(#mask0_1175_772)">
<path d="M73.9245 13.6513L15.6755 -14.9004L-14.1912 46.0271L44.0564 74.5802L73.9245 13.6513Z" fill="url(#paint0_linear_1175_772)"/>
</g>
<mask id="mask1_1175_772" style="mask-type:luminance" maskUnits="userSpaceOnUse" x="7" y="3" width="46" height="54">
<path d="M7.19824 43.2344C7.39598 43.491 7.64327 43.7133 7.93424 43.8801L25.6668 54.1227L28.6206 55.8204C29.0622 56.0755 29.5656 56.1835 30.0602 56.1467C30.225 56.1334 30.3899 56.1025 30.5508 56.0569L52.3529 16.1366C52.1861 15.9551 51.9908 15.803 51.772 15.6754L38.2366 7.85913L31.0817 3.74247C30.8786 3.62471 30.6583 3.5413 30.434 3.48242L7.19824 43.2344Z" fill="white"/>
</mask>
<g mask="url(#mask1_1175_772)">
<path d="M-17.98 22.0949L23.1498 77.762L77.5446 37.5738L36.4124 -18.0918L-17.98 22.0949Z" fill="url(#paint1_linear_1175_772)"/>
</g>
<mask id="mask2_1175_772" style="mask-type:luminance" maskUnits="userSpaceOnUse" x="8" y="3" width="45" height="54">
<path d="M29.6127 3.42534C29.2658 3.45968 28.9267 3.56763 28.6142 3.74525L8.00146 15.6423L30.2285 56.1269C30.5376 56.0827 30.8418 55.9797 31.1166 55.8207L51.7882 43.8799C52.426 43.51 52.8627 42.8839 52.9952 42.1744L30.3364 3.46606C30.1696 3.43318 30.0028 3.41602 29.831 3.41602C29.7623 3.41602 29.6937 3.41944 29.625 3.42582" fill="white"/>
</mask>
<g mask="url(#mask2_1175_772)">
<path d="M8.00146 3.41602V56.1279H52.9869V3.41602H8.00146Z" fill="url(#paint2_linear_1175_772)"/>
</g>
<defs>
<linearGradient id="paint0_linear_1175_772" x1="44.7825" y1="-0.669467" x2="14.9179" y2="60.254" gradientUnits="userSpaceOnUse">
<stop offset="0.3" stop-color="#3E863D"/>
<stop offset="0.5" stop-color="#55934F"/>
<stop offset="0.8" stop-color="#5AAD45"/>
</linearGradient>
<linearGradient id="paint1_linear_1175_772" x1="2.83139" y1="50.2475" x2="57.2283" y2="10.0547" gradientUnits="userSpaceOnUse">
<stop offset="0.57" stop-color="#3E863D"/>
<stop offset="0.72" stop-color="#619857"/>
<stop offset="1" stop-color="#76AC64"/>
</linearGradient>
<linearGradient id="paint2_linear_1175_772" x1="8.01664" y1="29.7734" x2="52.9954" y2="29.7734" gradientUnits="userSpaceOnUse">
<stop offset="0.16" stop-color="#6BBF47"/>
<stop offset="0.38" stop-color="#79B461"/>
<stop offset="0.47" stop-color="#75AC64"/>
<stop offset="0.7" stop-color="#659E5A"/>
<stop offset="0.9" stop-color="#3E863D"/>
</linearGradient>
</defs>
</svg>
