<svg width="55" height="55" viewBox="0 0 55 55" fill="none" xmlns="http://www.w3.org/2000/svg">
<g clip-path="url(#clip0_1175_801)">
<path d="M27.4705 10.9453C20.1451 10.9453 15.5667 14.608 13.7354 21.9334C16.4824 18.2707 19.6873 16.8972 23.35 17.8129C25.4397 18.3353 26.9334 19.8514 28.5867 21.5296C31.28 24.2634 34.3972 27.4275 41.2056 27.4275C48.531 27.4275 53.1094 23.7648 54.9408 16.4394C52.1937 20.1021 48.9889 21.4756 45.3262 20.5599C43.2364 20.0375 41.7427 18.5214 40.0894 16.8432C37.3961 14.1094 34.279 10.9453 27.4705 10.9453ZM13.7354 27.4275C6.40997 27.4275 1.83159 31.0902 0.000244141 38.4156C2.74727 34.7529 5.95213 33.3794 9.61483 34.295C11.7046 34.8175 13.1983 36.3335 14.8516 38.0118C17.5449 40.7456 20.6621 43.9096 27.4705 43.9096C34.7959 43.9096 39.3743 40.2469 41.2056 32.9215C38.4586 36.5842 35.2537 37.9577 31.591 37.0421C29.5013 36.5196 28.0076 35.0036 26.3543 33.3253C23.661 30.5915 20.5438 27.4275 13.7354 27.4275Z" fill="url(#paint0_linear_1175_801)"/>
</g>
<defs>
<linearGradient id="paint0_linear_1175_801" x1="-152.612" y1="1065.8" x2="4592.4" y2="3801.67" gradientUnits="userSpaceOnUse">
<stop stop-color="#2298BD"/>
<stop offset="1" stop-color="#0ED7B5"/>
</linearGradient>
<clipPath id="clip0_1175_801">
<rect width="54.9405" height="54.9405" fill="white"/>
</clipPath>
</defs>
</svg>
