<svg width="61" height="61" viewBox="0 0 61 61" fill="none" xmlns="http://www.w3.org/2000/svg">
<g clip-path="url(#clip0_1175_871)">
<path d="M29.9341 29.9556C29.9341 28.0839 30.6776 26.2889 32.0011 24.9654C33.3245 23.642 35.1196 22.8984 36.9912 22.8984C38.8629 22.8984 40.6579 23.642 41.9814 24.9654C43.3048 26.2889 44.0484 28.0839 44.0484 29.9556C44.0484 31.8272 43.3048 33.6223 41.9814 34.9457C40.6579 36.2692 38.8629 37.0127 36.9912 37.0127C35.1196 37.0127 33.3245 36.2692 32.0011 34.9457C30.6776 33.6223 29.9341 31.8272 29.9341 29.9556Z" fill="#1ABCFE"/>
<path d="M15.8202 44.0689C15.8202 42.1972 16.5637 40.4022 17.8872 39.0787C19.2106 37.7552 21.0057 37.0117 22.8773 37.0117H29.9345V44.0689C29.9345 45.9405 29.191 47.7355 27.8675 49.059C26.544 50.3825 24.749 51.126 22.8773 51.126C21.0057 51.126 19.2106 50.3825 17.8872 49.059C16.5637 47.7355 15.8202 45.9405 15.8202 44.0689V44.0689Z" fill="#0ACF83"/>
<path d="M29.9341 8.7832V22.8975H36.9912C38.8629 22.8975 40.6579 22.154 41.9814 20.8305C43.3048 19.507 44.0484 17.712 44.0484 15.8403C44.0484 13.9687 43.3048 12.1737 41.9814 10.8502C40.6579 9.52672 38.8629 8.7832 36.9912 8.7832H29.9341Z" fill="#FF7262"/>
<path d="M15.8206 15.8403C15.8206 17.712 16.5641 19.507 17.8875 20.8305C19.211 22.154 21.006 22.8975 22.8777 22.8975H29.9348V8.7832H22.8777C21.006 8.7832 19.211 9.52672 17.8875 10.8502C16.5641 12.1737 15.8206 13.9687 15.8206 15.8403V15.8403Z" fill="#F24E1E"/>
<path d="M15.8202 29.9556C15.8202 31.8272 16.5637 33.6223 17.8872 34.9457C19.2106 36.2692 21.0057 37.0127 22.8773 37.0127H29.9345V22.8984H22.8773C21.0057 22.8984 19.2106 23.642 17.8872 24.9654C16.5637 26.2889 15.8202 28.0839 15.8202 29.9556V29.9556Z" fill="#A259FF"/>
</g>
<defs>
<clipPath id="clip0_1175_871">
<rect width="28.2286" height="42.3429" fill="white" transform="translate(15.8208 8.7832)"/>
</clipPath>
</defs>
</svg>
