<svg width="61" height="61" viewBox="0 0 61 61" fill="none" xmlns="http://www.w3.org/2000/svg">
<g clip-path="url(#clip0_1175_883)">
<path d="M53.8011 48.6931C53.8108 50.5419 53.0266 52.3059 51.6476 53.5374C50.2685 54.7688 48.4273 55.3491 46.5914 55.131C43.2877 54.6422 40.8666 51.7672 40.9471 48.4285V10.0432C40.8674 6.70082 43.2943 3.82446 46.6024 3.34063C48.4366 3.12596 50.2747 3.70785 51.6512 4.93888C53.0277 6.16992 53.8104 7.93197 53.8011 9.77861V48.6931Z" fill="#F9AB00"/>
<path d="M13.3532 42.3316C16.9027 42.3316 19.7802 45.209 19.7802 48.7586C19.7802 52.3081 16.9027 55.1855 13.3532 55.1855C9.80371 55.1855 6.92627 52.3081 6.92627 48.7586C6.92627 45.209 9.80371 42.3316 13.3532 42.3316ZM30.2639 22.8523C26.6976 23.0478 23.9306 26.0393 24.0134 29.61V46.8735C24.0134 51.5586 26.0748 54.4028 29.0954 55.0091C30.9917 55.3934 32.9602 54.9045 34.4564 53.6777C35.9525 52.4509 36.8176 50.6162 36.8122 48.6814V29.3123C36.8153 27.5827 36.1235 25.9243 34.8923 24.7096C33.661 23.4949 31.9933 22.8257 30.2639 22.8523Z" fill="#E37400"/>
</g>
<defs>
<clipPath id="clip0_1175_883">
<rect width="52" height="52" fill="white" transform="translate(4.3623 3.29688)"/>
</clipPath>
</defs>
</svg>
