<svg width="226" height="60" viewBox="0 0 226 60" fill="none" xmlns="http://www.w3.org/2000/svg">
<path d="M31.1137 3.8209C31.0974 3.78047 31.0909 3.73836 31.0949 3.69965C31.0988 3.66094 31.1131 3.62728 31.136 3.60272C31.2269 3.5052 31.3393 3.549 31.4732 3.73412C31.6847 4.02834 32.1352 4.46305 32.8244 5.03825C33.6277 5.70768 34.1046 6.10933 34.255 6.24321C36.5261 8.23825 38.7402 10.2961 40.8972 12.4168C40.9231 12.4416 40.9426 12.4724 40.954 12.5064C40.9653 12.5405 40.9682 12.5768 40.9623 12.6122C40.9565 12.6476 40.9421 12.6811 40.9203 12.7097C40.8986 12.7383 40.8703 12.7611 40.8377 12.7763L36.1839 14.9135C36.1503 14.9287 36.112 14.9303 36.0766 14.9179C36.0412 14.9054 36.0114 14.88 35.993 14.8465C34.0644 11.3412 32.634 7.57145 31.1137 3.8209Z" fill="#3298C9"/>
<path d="M44.0017 28.6067C43.9457 28.6209 43.8867 28.6167 43.8335 28.5948C43.7803 28.5729 43.7358 28.5345 43.7066 28.4852C41.268 24.3538 39.0139 19.8773 36.5214 16.034C36.4948 15.9928 36.4775 15.9464 36.4709 15.8977C36.4642 15.849 36.4683 15.7993 36.4829 15.7519C36.4975 15.7046 36.5223 15.6607 36.5555 15.6234C36.5886 15.5861 36.6295 15.5561 36.6752 15.5356L41.4851 13.391C41.5451 13.3644 41.6114 13.3571 41.6747 13.37C41.738 13.3829 41.7949 13.4154 41.8372 13.4629C43.3314 15.1323 44.7215 16.7968 46.0075 18.4563C47.9397 20.9505 49.5695 23.5827 50.8967 26.353C51.0472 26.667 50.9629 26.8943 50.6439 27.0348C48.4025 28.0268 46.2679 28.0313 44.0017 28.6067Z" fill="#3298C9"/>
<path d="M52.8951 31.6839C53.229 33.2806 53.3868 34.7855 53.3686 36.1987C53.3636 36.596 53.3686 36.8611 53.1951 37.0913C53.17 37.1179 53.1379 37.1393 53.1009 37.1542C53.0638 37.1691 53.0225 37.1772 52.9794 37.1781C51.1496 37.2194 49.3198 37.1773 47.4901 37.0516C47.4279 37.0473 47.3687 37.0235 47.3206 36.9835C47.2726 36.9434 47.2382 36.8892 47.2223 36.8285C46.5231 34.1442 45.4884 31.6277 44.1182 29.2789C43.9859 29.0508 44.0512 28.9401 44.314 28.9467C46.4837 28.9958 49.1825 28.5405 51.0876 27.5087C51.1244 27.489 51.165 27.4776 51.2066 27.4751C51.2482 27.4726 51.2898 27.4792 51.3284 27.4943C51.3671 27.5094 51.402 27.5327 51.4306 27.5625C51.4592 27.5924 51.481 27.6282 51.4942 27.6673L52.8951 31.6839Z" fill="#3298C9"/>
<path d="M53.3163 37.5622C53.27 38.7688 53.07 39.9415 52.7163 41.0804C52.5362 41.4688 52.3775 41.8647 52.2403 42.268C52.0667 42.7771 51.9072 43.1688 51.7618 43.4432C50.9816 44.9209 50.0295 46.2837 48.9055 47.5316C47.2412 49.3396 45.2094 51.3208 43.3369 52.4382C43.2554 52.3775 45.7506 50.0002 47.408 42.4589L47.532 40.2895C47.5502 39.3721 47.4783 38.4622 47.3163 37.5597C47.3135 37.5457 47.3141 37.5312 47.318 37.5174C47.322 37.5037 47.3292 37.491 47.339 37.4804C47.3489 37.4698 47.3612 37.4616 47.3749 37.4564C47.3886 37.4512 47.4033 37.4493 47.4179 37.4506C49.3799 37.6523 51.3461 37.6895 53.3163 37.5622Z" fill="#3298C9"/>
<path d="M40.8325 11.0477C38.6572 8.97831 36.4275 6.97005 34.1432 5.02294C33.5762 4.53864 32.7894 3.98492 31.7828 3.36178C31.5911 3.24277 31.6002 3.14525 31.8101 3.06922C31.8762 3.04608 31.9522 3.03947 32.0382 3.04938C34.4911 3.33534 36.5341 3.74938 38.1671 4.29153C38.9605 4.556 39.5804 5.15517 40.0267 6.08905C40.1774 6.40619 42.4364 12.5824 40.8325 11.0477Z" fill="#76C4DC"/>
<path d="M40.4263 5.37227C40.2098 5.06814 40.2734 4.99045 40.6172 5.13921C41.6552 5.58549 42.6585 6.12268 43.6271 6.75078C44.4453 7.28136 45.3676 7.94169 46.3941 8.73177C48.0569 10.0095 49.5685 11.4516 50.9289 13.0582C51.2181 13.3987 51.4578 13.7871 51.6479 14.2235C51.7702 14.5062 51.8917 14.7896 52.0123 15.0739C52.1346 15.3615 52.2148 15.6533 52.2528 15.9491C52.4413 17.4384 52.5239 19.002 52.5008 20.64C52.4809 22.0681 52.2272 23.4144 51.7396 24.6789C51.7098 24.7549 51.671 24.7599 51.6231 24.6938C50.9851 23.8111 50.3768 22.9095 49.7983 21.9888C49.0462 20.7921 48.4404 19.8888 47.9809 19.2789C46.1495 16.8442 44.2098 14.5252 42.1618 12.3219C41.98 12.1252 41.9089 11.8946 41.9486 11.6301C42.2396 9.68136 41.5561 6.95401 40.4263 5.37227Z" fill="#76C4DC"/>
<path d="M53.7672 30.7684C53.4234 29.2081 52.9028 27.7056 52.2052 26.261C52.0565 25.9535 52.0606 25.6477 52.2176 25.3436C52.654 24.5006 52.9424 23.618 53.0829 22.6957C53.1689 22.1254 53.2251 21.2097 53.2515 19.9486C53.2763 18.6973 53.1978 17.4552 53.016 16.2221C52.9928 16.0651 53.0218 16.0544 53.1028 16.1899C55.2069 19.7089 56.4681 23.5114 56.8863 27.5973C57.0846 29.5362 57.0482 31.299 56.7772 32.8858C56.635 33.7122 56.4036 34.4172 56.083 35.0006C55.7061 35.6882 55.2301 36.2742 54.6548 36.7585C54.4251 36.9535 54.3243 36.9015 54.3524 36.6023C54.522 34.719 54.2281 32.6118 53.7672 30.7684Z" fill="#76C4DC"/>
<path d="M50.3309 47.1791C50.2152 47.1526 50.1326 47.0841 50.083 46.9733C52.0673 44.7237 54.1377 41.3316 54.1715 38.2312C54.1748 37.9072 54.3144 37.6584 54.5905 37.4849C55.0963 37.1659 55.4971 36.7526 55.793 36.2452C55.8938 36.0717 55.9698 35.9518 56.0211 35.8857C56.3996 35.4014 56.5393 35.5146 56.4401 36.2254C56.4219 36.3593 56.3888 36.5055 56.3409 36.6642C55.1426 40.6279 53.1392 44.1328 50.3309 47.1791Z" fill="#76C4DC"/>
<path d="M28.636 3.8431C28.636 3.8431 29.0079 3.59517 28.936 4.22988C27.5955 7.88112 26.0021 11.42 24.1558 14.8464C24.1492 14.858 24.0963 14.9745 23.9971 15.196C23.8186 15.5877 23.55 15.6654 23.1913 15.4291C22.9103 15.2439 22.7599 15.1464 22.7401 15.1365C21.5219 14.4902 20.2995 13.8505 19.0731 13.2175C19.0285 13.1945 18.99 13.1612 18.9608 13.1204C18.9316 13.0797 18.9124 13.0326 18.9049 12.983C18.8974 12.9334 18.9018 12.8827 18.9177 12.8351C18.9335 12.7875 18.9605 12.7444 18.9962 12.7092C21.7318 10.0233 24.5781 7.40343 27.5351 4.84972C28.636 3.8431 28.636 3.8431 28.636 3.8431Z" fill="#498047"/>
<path d="M21.7314 19.3835L16.3339 28.3141C16.3097 28.3538 16.2742 28.3855 16.2319 28.4053C16.1896 28.4252 16.1423 28.4322 16.0958 28.4257C13.8769 28.1057 11.7431 27.8192 9.58258 27.1488C9.2239 27.0381 9.10241 26.8042 9.21811 26.4472C9.34373 26.0654 9.54704 25.6439 9.82803 25.1827C10.152 24.6521 10.3189 24.3778 10.3289 24.3596C12.5421 20.553 15.1487 17.034 18.1488 13.8025C18.1931 13.7546 18.2522 13.7226 18.3171 13.7114C18.382 13.7003 18.4491 13.7105 18.5083 13.7406L23.2414 16.1381C23.2707 16.1534 23.2929 16.1797 23.3031 16.2112C23.3133 16.2428 23.3107 16.277 23.2959 16.3067L21.7314 19.3835Z" fill="#498047"/>
<path d="M15.7438 28.7827C15.777 28.7859 15.8089 28.7973 15.8366 28.8159C15.8643 28.8345 15.8868 28.8596 15.9022 28.889C15.9175 28.9185 15.9251 28.9512 15.9243 28.9842C15.9235 29.0172 15.9142 29.0494 15.8975 29.0778C14.3851 31.6745 13.2446 34.3745 12.476 37.1778C12.4666 37.2125 12.4458 37.243 12.4171 37.2646C12.3883 37.2861 12.3532 37.2975 12.3173 37.2968C6.15292 37.1994 5.40491 37.7602 7.666 30.615C7.98006 29.6265 8.2908 28.6736 8.59824 27.7563C8.61318 27.7119 8.63727 27.6711 8.66894 27.6367C8.7006 27.6022 8.73912 27.5748 8.78196 27.5563C8.82481 27.5378 8.87102 27.5286 8.91755 27.5293C8.96408 27.53 9.00989 27.5406 9.05196 27.5604C10.8384 28.3981 13.8617 28.6128 15.7438 28.7827Z" fill="#498047"/>
<path d="M7.26688 37.4829C8.93136 37.6465 10.5942 37.7143 12.2554 37.6862C12.2811 37.686 12.3066 37.6916 12.3299 37.7025C12.3532 37.7134 12.3737 37.7293 12.3899 37.7491C12.4061 37.7689 12.4176 37.792 12.4235 37.8167C12.4294 37.8415 12.4295 37.8672 12.4239 37.8919C11.5 45.2502 13.75 49.5002 16.25 52.0002C10.9256 50.1767 5.3305 37.0663 7.26688 37.4829Z" fill="#498047"/>
<path d="M28.1558 3.60968C27.1938 4.13861 26.1988 4.85761 25.1707 5.76671C23.088 7.60968 20.9872 9.50885 18.8682 11.4642C18.8584 11.4732 18.8465 11.4795 18.8335 11.4825C18.8206 11.4856 18.8071 11.4852 18.7944 11.4814C18.7817 11.4777 18.7701 11.4707 18.7609 11.4612C18.7517 11.4516 18.7451 11.4399 18.7417 11.427C18.631 10.9923 18.5929 10.6064 18.6277 10.2692C18.6392 10.1485 18.7285 9.77828 18.8954 9.15844C19.1351 8.27249 19.5467 7.28076 20.1302 6.18323C20.4624 5.55514 20.8616 5.05761 21.3277 4.69067C21.6913 4.40307 22.2591 4.16257 23.031 3.96919C24.3302 3.64522 25.9095 3.35514 27.7691 3.09894C29.1619 2.90859 28.5645 3.3875 28.1558 3.60968Z" fill="#96C14F"/>
<path d="M7.95602 17.1344C7.96924 15.7029 8.34445 14.4228 9.08165 13.2939C9.49983 12.6525 10.3709 11.7013 11.6949 10.4401C14.0751 8.17402 16.7809 6.37072 19.8123 5.03022C20.0371 4.93105 20.0817 4.98311 19.9462 5.18642C19.5164 5.8327 19.1379 6.50377 18.8106 7.19964C18.4949 7.87237 18.2751 8.60377 18.1511 9.39386C17.9991 10.3608 17.9156 11.3352 17.9007 12.317C17.8991 12.3983 17.8673 12.4761 17.8115 12.5352C14.7321 15.8129 11.9734 19.341 9.53537 23.1195C9.26099 23.5459 9.03454 23.9897 8.85603 24.4509C8.70561 24.8327 8.58412 24.8236 8.49156 24.4236C8.05189 22.5228 7.86759 20.6005 7.93866 18.6567C7.94032 18.6401 7.9461 18.1327 7.95602 17.1344Z" fill="#96C14F"/>
<path d="M3.90523 34.2641C3.09943 33.3467 3.02753 30.3236 3.28539 28.0162C3.76473 23.7418 5.03251 19.7195 7.08872 15.9492C7.14657 15.8434 7.21765 15.7905 7.30195 15.7905C7.31743 15.7902 7.33268 15.7941 7.3467 15.8019C7.36072 15.8097 7.37318 15.8213 7.38326 15.8358C7.39334 15.8504 7.40081 15.8675 7.40517 15.8862C7.40953 15.9049 7.41069 15.9247 7.40856 15.9443C7.35567 16.3773 7.29947 16.8104 7.23996 17.2434C6.84988 20.0253 7.14409 22.7294 8.12261 25.3558C8.24658 25.6881 8.22675 26.012 8.06311 26.3277C6.59368 29.1839 5.76888 32.3029 5.58871 35.6848C5.57218 35.9823 5.46474 36.0195 5.26639 35.7963C5.02766 35.5303 4.71102 35.1815 3.90523 34.2641Z" fill="#96C14F"/>
<path d="M3.70982 34.6484C4.2184 35.6807 5.49248 36.322 5.8148 37.6261C7.06687 42.0245 9.00556 45.5773 11.7752 49.0286C10.3355 47.8319 9.05945 46.4964 7.94704 45.022C6.98671 43.7509 6.16852 42.3203 5.49248 40.7303C4.73214 38.9418 4.11561 37.0228 3.64288 34.9732C3.60651 34.8212 3.62883 34.7129 3.70982 34.6484Z" fill="#96C14F"/>
<path d="M40.8177 25.4451C67.2953 68.2086 -8.94121 66.8223 19.4367 25.4451C23.9973 17.5332 26.3795 12.846 30.3147 4C33.7959 12.5385 36.0487 17.2463 40.8177 25.4451Z" fill="url(#paint0_linear_2613_1981)"/>
<path d="M19.8319 49V44.9677H22.5346V45.6107H20.573V46.6351H22.2894V47.2617H20.573V48.357H22.5619V49H19.8319ZM23.231 49V46.112H23.9502V46.5098H23.9775C24.0283 46.3972 24.1119 46.2936 24.2281 46.1992C24.3444 46.1047 24.5188 46.0575 24.7513 46.0575C24.8239 46.0575 24.8839 46.063 24.9311 46.0739C24.9783 46.0811 25.0019 46.0848 25.0019 46.0848V46.7877C25.0019 46.7877 24.9747 46.784 24.9202 46.7768C24.8693 46.7695 24.8057 46.7659 24.7295 46.7659C24.4752 46.7659 24.2826 46.8367 24.1519 46.9784C24.0211 47.1201 23.9557 47.3489 23.9557 47.665V49H23.231ZM26.4133 49.0545C26.1118 49.0545 25.8829 48.9619 25.7267 48.7766C25.5742 48.5913 25.4979 48.3534 25.4979 48.0628V46.112H26.2171V47.9429C26.2171 48.0991 26.2589 48.2244 26.3425 48.3189C26.426 48.4097 26.5441 48.4551 26.6967 48.4551C26.8311 48.4551 26.9401 48.4206 27.0236 48.3516C27.1072 48.2825 27.1671 48.1935 27.2034 48.0846C27.2434 47.9756 27.2634 47.863 27.2634 47.7467V46.112H27.9881V49H27.2634V48.5859H27.2307C27.1943 48.6513 27.1417 48.7203 27.0726 48.7929C27.0073 48.8656 26.9201 48.9273 26.8111 48.9782C26.7057 49.0291 26.5731 49.0545 26.4133 49.0545ZM29.632 49L28.5585 46.112H29.2941L30.0188 48.1717L30.7327 46.112H31.4683L30.3894 49H29.632ZM33.0566 46.0575C33.2418 46.0575 33.3944 46.0884 33.5143 46.1501C33.6342 46.2083 33.7286 46.2737 33.7976 46.3463C33.8667 46.4153 33.9139 46.4716 33.9393 46.5152H33.972V46.112H34.6967V49H33.972V48.5968H33.9393C33.9139 48.6404 33.8667 48.6985 33.7976 48.7711C33.7286 48.8438 33.6342 48.9092 33.5143 48.9673C33.3944 49.0254 33.2418 49.0545 33.0566 49.0545C32.8422 49.0545 32.6552 49.0127 32.4953 48.9292C32.3355 48.842 32.2011 48.7275 32.0921 48.5859C31.9867 48.4406 31.9068 48.2789 31.8523 48.1009C31.8015 47.9229 31.776 47.7413 31.776 47.556C31.776 47.3707 31.8015 47.1891 31.8523 47.0111C31.9068 46.8331 31.9867 46.6732 32.0921 46.5316C32.2011 46.3863 32.3355 46.2718 32.4953 46.1883C32.6552 46.1011 32.8422 46.0575 33.0566 46.0575ZM33.2473 46.6515C33.0838 46.6515 32.9458 46.6969 32.8332 46.7877C32.7242 46.8749 32.6424 46.9875 32.5879 47.1255C32.5335 47.2636 32.5062 47.4071 32.5062 47.556C32.5062 47.7049 32.5335 47.8484 32.5879 47.9865C32.6424 48.1245 32.7242 48.2389 32.8332 48.3298C32.9458 48.417 33.0838 48.4605 33.2473 48.4605C33.4108 48.4605 33.547 48.417 33.656 48.3298C33.7649 48.2389 33.8467 48.1245 33.9012 47.9865C33.9557 47.8484 33.9829 47.7049 33.9829 47.556C33.9829 47.4071 33.9557 47.2636 33.9012 47.1255C33.8467 46.9875 33.7649 46.8749 33.656 46.7877C33.547 46.6969 33.4108 46.6515 33.2473 46.6515ZM35.4394 49V44.8587H36.1642V47.2563L37.1831 46.112H38.0386L36.8398 47.4307L38.0768 49H37.2104L36.1642 47.6704V49H35.4394ZM39.5805 46.0575C39.7658 46.0575 39.9184 46.0884 40.0383 46.1501C40.1581 46.2083 40.2526 46.2737 40.3216 46.3463C40.3906 46.4153 40.4379 46.4716 40.4633 46.5152H40.496V46.112H41.2207V49H40.496V48.5968H40.4633C40.4379 48.6404 40.3906 48.6985 40.3216 48.7711C40.2526 48.8438 40.1581 48.9092 40.0383 48.9673C39.9184 49.0254 39.7658 49.0545 39.5805 49.0545C39.3662 49.0545 39.1791 49.0127 39.0193 48.9292C38.8595 48.842 38.725 48.7275 38.6161 48.5859C38.5107 48.4406 38.4308 48.2789 38.3763 48.1009C38.3254 47.9229 38.3 47.7413 38.3 47.556C38.3 47.3707 38.3254 47.1891 38.3763 47.0111C38.4308 46.8331 38.5107 46.6732 38.6161 46.5316C38.725 46.3863 38.8595 46.2718 39.0193 46.1883C39.1791 46.1011 39.3662 46.0575 39.5805 46.0575ZM39.7713 46.6515C39.6078 46.6515 39.4697 46.6969 39.3571 46.7877C39.2482 46.8749 39.1664 46.9875 39.1119 47.1255C39.0574 47.2636 39.0302 47.4071 39.0302 47.556C39.0302 47.7049 39.0574 47.8484 39.1119 47.9865C39.1664 48.1245 39.2482 48.2389 39.3571 48.3298C39.4697 48.417 39.6078 48.4605 39.7713 48.4605C39.9347 48.4605 40.071 48.417 40.1799 48.3298C40.2889 48.2389 40.3707 48.1245 40.4252 47.9865C40.4796 47.8484 40.5069 47.7049 40.5069 47.556C40.5069 47.4071 40.4796 47.2636 40.4252 47.1255C40.3707 46.9875 40.2889 46.8749 40.1799 46.7877C40.071 46.6969 39.9347 46.6515 39.7713 46.6515Z" fill="white"/>
<path d="M78.0103 44V15.9559H96.8074V20.4278H83.1643V27.5525H95.102V31.9107H83.1643V39.5281H96.9969V44H78.0103ZM101.082 44V23.9143H106.084V26.6808H106.274C106.627 25.8976 107.209 25.1776 108.017 24.5207C108.826 23.8638 110.038 23.5354 111.655 23.5354C112.161 23.5354 112.577 23.5733 112.906 23.649C113.234 23.6996 113.399 23.7248 113.399 23.7248V28.6136C113.399 28.6136 113.209 28.5884 112.83 28.5378C112.476 28.4873 112.034 28.462 111.504 28.462C109.735 28.462 108.396 28.9547 107.487 29.94C106.577 30.9254 106.122 32.5171 106.122 34.7151V44H101.082ZM122.646 44.379C120.549 44.379 118.957 43.7347 117.871 42.4462C116.81 41.1577 116.279 39.5028 116.279 37.4816V23.9143H121.282V36.6479C121.282 37.7343 121.572 38.6059 122.153 39.2628C122.735 39.8944 123.556 40.2103 124.617 40.2103C125.552 40.2103 126.31 39.9702 126.891 39.4902C127.472 39.0102 127.889 38.3912 128.141 37.6332C128.419 36.8753 128.558 36.0921 128.558 35.2836V23.9143H133.598V44H128.558V41.1198H128.331C128.078 41.5746 127.712 42.0546 127.232 42.5599C126.777 43.0652 126.171 43.4947 125.413 43.8484C124.68 44.2021 123.758 44.379 122.646 44.379ZM144.463 44L136.997 23.9143H142.113L147.154 38.2396L152.118 23.9143H157.234L149.731 44H144.463ZM167.712 23.5354C169.001 23.5354 170.062 23.7501 170.896 24.1796C171.729 24.5839 172.386 25.0386 172.866 25.5439C173.346 26.024 173.675 26.4156 173.852 26.7187H174.079V23.9143H179.119V44H174.079V41.1956H173.852C173.675 41.4988 173.346 41.903 172.866 42.4083C172.386 42.9136 171.729 43.3684 170.896 43.7726C170.062 44.1769 169.001 44.379 167.712 44.379C166.221 44.379 164.92 44.0884 163.809 43.5073C162.697 42.901 161.762 42.1051 161.004 41.1198C160.272 40.1092 159.716 38.9849 159.337 37.7469C158.983 36.5089 158.806 35.2457 158.806 33.9572C158.806 32.6687 158.983 31.4054 159.337 30.1674C159.716 28.9294 160.272 27.8178 161.004 26.8324C161.762 25.8218 162.697 25.026 163.809 24.4449C164.92 23.8385 166.221 23.5354 167.712 23.5354ZM169.039 27.6662C167.902 27.6662 166.942 27.982 166.158 28.6136C165.4 29.22 164.832 30.0032 164.453 30.9633C164.074 31.9233 163.884 32.9213 163.884 33.9572C163.884 34.993 164.074 35.991 164.453 36.9511C164.832 37.9111 165.4 38.707 166.158 39.3386C166.942 39.945 167.902 40.2481 169.039 40.2481C170.175 40.2481 171.123 39.945 171.881 39.3386C172.639 38.707 173.207 37.9111 173.586 36.9511C173.965 35.991 174.155 34.993 174.155 33.9572C174.155 32.9213 173.965 31.9233 173.586 30.9633C173.207 30.0032 172.639 29.22 171.881 28.6136C171.123 27.982 170.175 27.6662 169.039 27.6662ZM183.716 44V15.1979H188.756V31.8728L195.843 23.9143H201.793L193.456 33.0855L202.059 44H196.033L188.756 34.753V44H183.716ZM211.949 23.5354C213.237 23.5354 214.298 23.7501 215.132 24.1796C215.966 24.5839 216.623 25.0386 217.103 25.5439C217.583 26.024 217.911 26.4156 218.088 26.7187H218.315V23.9143H223.356V44H218.315V41.1956H218.088C217.911 41.4988 217.583 41.903 217.103 42.4083C216.623 42.9136 215.966 43.3684 215.132 43.7726C214.298 44.1769 213.237 44.379 211.949 44.379C210.458 44.379 209.157 44.0884 208.045 43.5073C206.933 42.901 205.999 42.1051 205.241 41.1198C204.508 40.1092 203.952 38.9849 203.573 37.7469C203.22 36.5089 203.043 35.2457 203.043 33.9572C203.043 32.6687 203.22 31.4054 203.573 30.1674C203.952 28.9294 204.508 27.8178 205.241 26.8324C205.999 25.8218 206.933 25.026 208.045 24.4449C209.157 23.8385 210.458 23.5354 211.949 23.5354ZM213.275 27.6662C212.138 27.6662 211.178 27.982 210.395 28.6136C209.637 29.22 209.068 30.0032 208.689 30.9633C208.31 31.9233 208.121 32.9213 208.121 33.9572C208.121 34.993 208.31 35.991 208.689 36.9511C209.068 37.9111 209.637 38.707 210.395 39.3386C211.178 39.945 212.138 40.2481 213.275 40.2481C214.412 40.2481 215.359 39.945 216.117 39.3386C216.875 38.707 217.444 37.9111 217.823 36.9511C218.202 35.991 218.391 34.993 218.391 33.9572C218.391 32.9213 218.202 31.9233 217.823 30.9633C217.444 30.0032 216.875 29.22 216.117 28.6136C215.359 27.982 214.412 27.6662 213.275 27.6662Z" fill="#5FD8FF"/>
<defs>
<linearGradient id="paint0_linear_2613_1981" x1="30.1271" y1="4" x2="31.2218" y2="58.1833" gradientUnits="userSpaceOnUse">
<stop stop-color="white"/>
<stop offset="1" stop-color="#85D0E3"/>
</linearGradient>
</defs>
</svg>
