<svg width="245" height="48" viewBox="0 0 245 48" fill="none" xmlns="http://www.w3.org/2000/svg">
<path d="M9.17168 31.6941C14.0121 31.6941 17.936 27.7701 17.936 22.9297C17.936 18.0893 14.0121 14.1654 9.17168 14.1654C4.33127 14.1654 0.407349 18.0893 0.407349 22.9297C0.407349 27.7701 4.33127 31.6941 9.17168 31.6941Z" fill="url(#paint0_linear_4189_2147)"/>
<path d="M80.2035 33.2229C85.0439 33.2229 88.9679 29.2989 88.9679 24.4585C88.9679 19.6181 85.0439 15.6942 80.2035 15.6942C75.3631 15.6942 71.4392 19.6181 71.4392 24.4585C71.4392 29.2989 75.3631 33.2229 80.2035 33.2229Z" fill="url(#paint1_linear_4189_2147)"/>
<path d="M7.79628 9.42689C6.57335 11.139 7.66039 11.635 8.35679 11.6689H15.6944C23.7657 4.86129 32.5776 8.25491 35.9746 10.8027C37.8905 12.311 39.9321 11.4312 40.7135 10.8027C42.7517 8.19375 41.5627 6.11478 40.7135 5.40141C25.916 -5.5642 12.6031 3.51606 7.79628 9.42689Z" fill="url(#paint2_linear_4189_2147)"/>
<path d="M81.7781 37.9909C83.0038 36.2807 81.9175 35.783 81.2212 35.7479L73.8837 35.7361C65.8014 42.5308 56.995 39.1231 53.602 36.5698C51.6885 35.0585 49.6455 35.935 48.8632 36.5623C46.8207 39.168 48.0064 41.2488 48.8546 41.9635C63.6344 52.9528 76.9619 43.894 81.7781 37.9909Z" fill="url(#paint3_linear_4189_2147)"/>
<path d="M7.79631 34.1911C5.59504 34.3134 6.19971 35.7708 6.77721 36.4841C13.0141 45.9415 23.0659 47.4566 27.3122 47.0319C24.4757 46.947 20.6167 46.8281 27.8727 47.0319C35.1288 47.2357 42.0044 41.2739 44.5351 38.2676L58.8536 20.8408C60.0765 18.9657 59.3632 17.0701 58.8536 16.3568C57.3861 14.074 54.6073 14.8961 53.4014 15.5924L41.8855 30.0128C39.6842 33.1109 36.4503 35.8897 35.1084 36.8918C26.0179 43.1695 17.257 37.7071 14.0129 34.1911C12.8579 34.1402 9.99759 34.0689 7.79631 34.1911Z" fill="url(#paint4_linear_4189_2147)"/>
<path d="M80.7811 12.8827C82.9822 12.7579 82.3758 11.3013 81.7975 10.5886C75.5494 1.1386 65.4958 -0.364649 61.2501 0.0649734C64.0867 0.146559 67.9458 0.260908 60.6896 0.0656338C53.4332 -0.129641 46.5647 5.84024 44.0375 8.84958L29.7396 26.2932C28.5188 28.1697 29.2344 30.0645 29.7448 30.7772C31.215 33.0583 33.9928 32.233 35.1979 31.5351L46.6969 17.1012C48.8945 14.0006 52.1252 11.218 53.4658 10.2143C62.5488 3.92587 71.3162 9.37797 74.5645 12.8901C75.7196 12.9397 78.5799 13.0077 80.7811 12.8827Z" fill="url(#paint5_linear_4189_2147)"/>
<path d="M120.804 16.872H108.372V23.528H119.156V27.08H108.372V37H103.924V13.32H120.804V16.872ZM125.323 37V19.544H129.675V37H125.323ZM127.499 16.568C126.582 16.568 125.894 16.3707 125.435 15.976C124.987 15.5813 124.763 15.016 124.763 14.28C124.763 13.544 124.987 12.9787 125.435 12.584C125.894 12.1893 126.582 11.992 127.499 11.992C128.416 11.992 129.099 12.1893 129.547 12.584C130.006 12.9787 130.235 13.544 130.235 14.28C130.235 15.016 130.006 15.5813 129.547 15.976C129.099 16.3707 128.416 16.568 127.499 16.568ZM141.91 44.36C140.886 44.36 139.846 44.2907 138.79 44.152C137.745 44.024 136.742 43.8267 135.782 43.56V40.136C137.841 40.7227 139.782 41.016 141.606 41.016C142.907 41.016 143.958 40.856 144.758 40.536C145.558 40.2267 146.145 39.7307 146.518 39.048C146.902 38.376 147.094 37.48 147.094 36.36V35.096H146.886C146.278 35.736 145.542 36.232 144.678 36.584C143.825 36.936 142.87 37.112 141.814 37.112C140.459 37.112 139.238 36.808 138.15 36.2C137.062 35.5813 136.193 34.6373 135.542 33.368C134.902 32.0987 134.582 30.52 134.582 28.632C134.582 25.592 135.43 23.272 137.126 21.672C138.833 20.072 141.345 19.272 144.662 19.272C145.814 19.272 146.993 19.3573 148.198 19.528C149.403 19.688 150.486 19.9173 151.446 20.216V35.576C151.446 37.624 151.099 39.2933 150.406 40.584C149.713 41.8853 148.667 42.84 147.27 43.448C145.873 44.056 144.086 44.36 141.91 44.36ZM143.318 33.576C144.033 33.576 144.721 33.4533 145.382 33.208C146.043 32.9627 146.614 32.5947 147.094 32.104V22.92C146.198 22.7067 145.265 22.6 144.294 22.6C142.523 22.6 141.19 23.064 140.294 23.992C139.398 24.9093 138.95 26.3333 138.95 28.264C138.95 30.1733 139.329 31.5387 140.086 32.36C140.854 33.1707 141.931 33.576 143.318 33.576Z" fill="#235BD4"/>
<path d="M157.514 37V13.32H161.962V33.384H173.914V37H157.514ZM177.913 37V19.544H182.265V37H177.913ZM180.089 16.568C179.172 16.568 178.484 16.3707 178.025 15.976C177.577 15.5813 177.353 15.016 177.353 14.28C177.353 13.544 177.577 12.9787 178.025 12.584C178.484 12.1893 179.172 11.992 180.089 11.992C181.006 11.992 181.689 12.1893 182.137 12.584C182.596 12.9787 182.825 13.544 182.825 14.28C182.825 15.016 182.596 15.5813 182.137 15.976C181.689 16.3707 181.006 16.568 180.089 16.568ZM188.068 19.544H191.652L191.94 21.368H192.164C192.889 20.696 193.737 20.1787 194.708 19.816C195.679 19.4533 196.713 19.272 197.812 19.272C199.775 19.272 201.316 19.8373 202.436 20.968C203.567 22.088 204.132 23.848 204.132 26.248V37H199.78V26.472C199.78 25.224 199.508 24.3333 198.964 23.8C198.431 23.2667 197.641 23 196.596 23C195.817 23 195.055 23.1493 194.308 23.448C193.561 23.7467 192.932 24.1947 192.42 24.792V37H188.068V19.544ZM222.441 37L216.921 29.816H214.137V37H209.785V11.144H214.137V26.28H216.889L221.977 19.544H226.681L220.473 27.96L227.241 37H222.441ZM235.407 37.32C233.252 37.32 231.316 37.064 229.599 36.552V33.416C231.402 33.9493 233.327 34.216 235.375 34.216C236.73 34.216 237.706 34.0347 238.303 33.672C238.9 33.3093 239.199 32.776 239.199 32.072C239.199 31.5173 239.044 31.096 238.735 30.808C238.426 30.5093 237.882 30.2853 237.103 30.136L234.143 29.656C232.404 29.3573 231.146 28.8027 230.367 27.992C229.599 27.1813 229.215 26.088 229.215 24.712C229.215 23.6133 229.514 22.6587 230.111 21.848C230.708 21.0267 231.62 20.392 232.847 19.944C234.084 19.496 235.631 19.272 237.487 19.272C238.351 19.272 239.204 19.3253 240.047 19.432C240.89 19.5387 241.658 19.688 242.351 19.88V23.016C240.836 22.5893 239.236 22.376 237.551 22.376C236.004 22.376 234.911 22.5733 234.271 22.968C233.642 23.352 233.327 23.8853 233.327 24.568C233.327 25.0693 233.476 25.4747 233.775 25.784C234.084 26.0827 234.618 26.3013 235.375 26.44L238.335 26.936C240.052 27.2347 241.311 27.768 242.111 28.536C242.911 29.2933 243.311 30.4027 243.311 31.864C243.311 32.9947 243.007 33.9707 242.399 34.792C241.802 35.6027 240.911 36.2267 239.727 36.664C238.543 37.1013 237.103 37.32 235.407 37.32Z" fill="black"/>
<defs>
<linearGradient id="paint0_linear_4189_2147" x1="22.4221" y1="21.7599" x2="0.533064" y2="21.4666" gradientUnits="userSpaceOnUse">
<stop stop-color="#0644CD"/>
<stop offset="1" stop-color="#2158D5"/>
</linearGradient>
<linearGradient id="paint1_linear_4189_2147" x1="89.0665" y1="23.4667" x2="66.1331" y2="22.9333" gradientUnits="userSpaceOnUse">
<stop stop-color="#DC984D"/>
<stop offset="1" stop-color="#BF8243"/>
</linearGradient>
<linearGradient id="paint2_linear_4189_2147" x1="56" y1="5.86673" x2="9.6" y2="8.26673" gradientUnits="userSpaceOnUse">
<stop stop-color="#0644CD"/>
<stop offset="1" stop-color="#2158D5"/>
</linearGradient>
<linearGradient id="paint3_linear_4189_2147" x1="46.569" y1="39.3864" x2="95.7331" y2="38.8" gradientUnits="userSpaceOnUse">
<stop stop-color="#DC984D"/>
<stop offset="1" stop-color="#BF8243"/>
</linearGradient>
<linearGradient id="paint4_linear_4189_2147" x1="77.7826" y1="24.48" x2="6.13349" y2="35.2" gradientUnits="userSpaceOnUse">
<stop stop-color="#0644CD"/>
<stop offset="1" stop-color="#2158D5"/>
</linearGradient>
<linearGradient id="paint5_linear_4189_2147" x1="100.667" y1="1.78501e-06" x2="23.0668" y2="3.33334" gradientUnits="userSpaceOnUse">
<stop stop-color="#BF8243"/>
<stop offset="1" stop-color="#DC984D"/>
</linearGradient>
</defs>
</svg>
