<svg width="135" height="100" viewBox="0 0 135 100" fill="none" xmlns="http://www.w3.org/2000/svg">
<path d="M3.8437 87.9721V94.545H0V75.8877H7.27422C8.67296 75.8877 9.90871 76.1455 10.9701 76.6572C12.0315 77.1689 12.8502 77.9005 13.4226 78.8406C13.995 79.7844 14.2793 80.861 14.2793 82.0626C14.2793 83.8897 13.6539 85.3339 12.4029 86.3877C11.152 87.4414 9.42351 87.9721 7.20978 87.9721H3.8437ZM3.8437 84.8563H7.27422C8.29011 84.8563 9.06719 84.6174 9.60167 84.1398C10.1362 83.6622 10.4015 82.9761 10.4015 82.0891C10.4015 81.1756 10.1324 80.4364 9.59409 79.8716C9.05582 79.3068 8.31286 79.0187 7.36141 79.0036H3.8437V84.8563ZM23.0584 94.8028C21.0228 94.8028 19.3701 94.1773 18.0927 92.9302C16.8152 91.6831 16.1784 90.0228 16.1784 87.9456V87.5855C16.1784 86.1943 16.4438 84.951 16.982 83.8517C17.5203 82.7525 18.286 81.9072 19.2716 81.3158C20.2571 80.7207 21.383 80.4251 22.6452 80.4251C24.5443 80.4251 26.0341 81.024 27.1258 82.218C28.2137 83.4158 28.7595 85.1064 28.7595 87.3012V88.8136H19.9311C20.0524 89.7196 20.4125 90.4474 21.0153 90.9932C21.618 91.5391 22.3799 91.8158 23.301 91.8158C24.7263 91.8158 25.8445 91.3003 26.6443 90.2617L28.4638 92.301C27.9066 93.0856 27.1599 93.6997 26.2084 94.1394C25.2608 94.5829 24.2108 94.8028 23.0584 94.8028ZM22.6339 83.4234C21.8985 83.4234 21.3034 83.6736 20.8485 84.1664C20.3898 84.6591 20.0979 85.368 19.969 86.2929H25.1205V85.9972C25.1054 85.1785 24.8817 84.5416 24.4534 84.0981C24.0288 83.6471 23.4185 83.4234 22.6339 83.4234ZM37.2392 94.8028C35.2074 94.8028 33.5509 94.1773 32.2734 92.9302C30.9998 91.6831 30.3592 90.0228 30.3592 87.9456V87.5855C30.3592 86.1943 30.6283 84.951 31.1666 83.8517C31.701 82.7525 32.4668 81.9072 33.4523 81.3158C34.4417 80.7207 35.5637 80.4251 36.826 80.4251C38.7251 80.4251 40.2186 81.024 41.3065 82.218C42.3944 83.4158 42.9403 85.1064 42.9403 87.3012V88.8136H34.1119C34.2332 89.7196 34.5933 90.4474 35.196 90.9932C35.7987 91.5391 36.5606 91.8158 37.4818 91.8158C38.9108 91.8158 40.0253 91.3003 40.8251 90.2617L42.6446 92.301C42.0874 93.0856 41.3406 93.6997 40.393 94.1394C39.4415 94.5829 38.3915 94.8028 37.2392 94.8028ZM36.8146 83.4234C36.0792 83.4234 35.4841 83.6736 35.0292 84.1664C34.5706 84.6591 34.2787 85.368 34.1498 86.2929H39.3013V85.9972C39.2861 85.1785 39.0625 84.5416 38.6341 84.0981C38.2096 83.6471 37.6031 83.4234 36.8146 83.4234ZM57.5191 87.7409C57.5191 89.8788 57.0339 91.5883 56.0634 92.8734C55.0968 94.1584 53.7853 94.8028 52.1363 94.8028C50.7376 94.8028 49.6042 94.3176 48.7437 93.3396V99.8746H45.0403V80.6828H48.4746L48.6035 82.0399C49.5019 80.9595 50.6694 80.4251 52.1098 80.4251C53.8194 80.4251 55.1499 81.0581 56.0976 82.3204C57.0452 83.5864 57.5191 85.3263 57.5191 87.5476V87.7409ZM53.8156 87.468C53.8156 86.1792 53.5882 85.186 53.1295 84.481C52.6746 83.7835 52.0113 83.431 51.1394 83.431C49.9757 83.431 49.1797 83.8783 48.7437 84.7653V90.4436C49.1948 91.3571 50.0022 91.8158 51.1659 91.8158C52.9324 91.8158 53.8156 90.3678 53.8156 87.468ZM68.1139 93.1349C67.1965 94.2456 65.9343 94.8028 64.3194 94.8028C62.8335 94.8028 61.7001 94.3744 60.9192 93.5216C60.1384 92.6687 59.7366 91.414 59.7214 89.7651V80.6828H63.4248V89.6362C63.4248 91.0804 64.0844 91.8006 65.396 91.8006C66.6507 91.8006 67.5187 91.3647 67.985 90.4929V80.6828H71.7036V94.545H68.2162L68.1139 93.1349ZM78.4016 94.545H74.683V74.8643H78.4016V94.545ZM98.7573 90.7014H92.0176L90.7363 94.545H86.6538L93.5945 75.8877H97.1577L104.14 94.545H100.054L98.7573 90.7014ZM93.0562 87.5855H97.7225L95.3761 80.6032L93.0562 87.5855ZM105.099 87.5135C105.099 85.3832 105.607 83.6698 106.615 82.3696C107.631 81.0695 108.996 80.4251 110.709 80.4251C112.229 80.4251 113.416 80.9444 114.261 81.9906L114.413 80.6828H117.771V94.0788C117.771 95.2955 117.494 96.3493 116.945 97.2477C116.395 98.1423 115.618 98.8246 114.617 99.2984C113.617 99.7647 112.449 99.9997 111.107 99.9997C110.091 99.9997 109.098 99.7988 108.139 99.3932C107.173 98.9876 106.441 98.4645 105.948 97.8239L107.586 95.5723C108.511 96.6033 109.625 97.1188 110.94 97.1188C111.926 97.1188 112.688 96.8573 113.238 96.3304C113.783 95.8073 114.053 95.0605 114.053 94.0977V93.3548C113.2 94.3214 112.078 94.8028 110.686 94.8028C109.022 94.8028 107.673 94.1508 106.642 92.8468C105.615 91.5429 105.099 89.8181 105.099 87.6651V87.5135ZM108.802 87.7788C108.802 89.0335 109.056 90.0191 109.557 90.7317C110.061 91.4443 110.751 91.8006 111.63 91.8006C112.76 91.8006 113.567 91.3761 114.053 90.5346V84.7008C113.56 83.8555 112.76 83.431 111.657 83.431C110.77 83.431 110.069 83.7949 109.564 84.5227C109.056 85.2467 108.802 86.3308 108.802 87.7788ZM128.404 84.1474C127.9 84.083 127.452 84.0489 127.073 84.0489C125.667 84.0489 124.75 84.5227 124.318 85.4703V94.545H120.614V80.6828H124.113L124.211 82.3355C124.954 81.0619 125.982 80.4251 127.301 80.4251C127.71 80.4251 128.097 80.4819 128.453 80.588L128.404 84.1474ZM134.09 94.545H130.375V80.6828H134.09V94.545ZM130.155 77.0969C130.155 76.5397 130.345 76.081 130.716 75.7209C131.088 75.3646 131.596 75.1864 132.232 75.1864C132.865 75.1864 133.37 75.3646 133.745 75.7209C134.12 76.081 134.31 76.5397 134.31 77.0969C134.31 77.6541 134.116 78.1204 133.737 78.4767C133.358 78.8368 132.858 79.0149 132.232 79.0149C131.607 79.0149 131.11 78.8368 130.728 78.4767C130.348 78.1204 130.155 77.6541 130.155 77.0969Z" fill="#05A155"/>
<path fill-rule="evenodd" clip-rule="evenodd" d="M47.309 28.8734C45.4098 29.9688 42.9952 30.0485 40.9558 28.8734C38.9203 27.6983 37.7831 25.5642 37.7793 23.3732C39.6822 22.2777 42.0968 22.1981 44.1324 23.3732C46.168 24.5483 47.309 26.6824 47.309 28.8734Z" fill="#05A155"/>
<path fill-rule="evenodd" clip-rule="evenodd" d="M43.1741 40.3866C42.0786 42.2857 40.0241 43.5631 37.6739 43.5631C35.3237 43.5631 33.2692 42.2857 32.1699 40.3866C33.2692 38.4913 35.3237 37.2139 37.6739 37.2139C40.0241 37.2139 42.0786 38.4913 43.1741 40.3866Z" fill="#05A155"/>
<path fill-rule="evenodd" clip-rule="evenodd" d="M67.1559 17.0848C69.2862 15.849 70.7228 13.5444 70.7228 10.9023C70.7228 8.26406 69.2862 5.95937 67.1559 4.72363C65.0217 5.95937 63.5889 8.26406 63.5889 10.9023C63.5889 13.5444 65.0217 15.849 67.1559 17.0848Z" fill="#05A155"/>
<path fill-rule="evenodd" clip-rule="evenodd" d="M87.9258 28.3949C89.8249 29.4903 92.2395 29.5699 94.2789 28.3949C96.3145 27.2198 97.4516 25.0857 97.4554 22.8947C95.5525 21.7992 93.1379 21.7196 91.1023 22.8947C89.0668 24.0698 87.9258 26.2039 87.9258 28.3949Z" fill="#05A155"/>
<path fill-rule="evenodd" clip-rule="evenodd" d="M91.1357 40.3866C92.235 42.2857 94.2858 43.5631 96.6397 43.5631C98.9899 43.5631 101.041 42.2857 102.14 40.3866C101.041 38.4913 98.9899 37.2139 96.6397 37.2139C94.2858 37.2139 92.235 38.4913 91.1357 40.3866Z" fill="#05A155"/>
<path fill-rule="evenodd" clip-rule="evenodd" d="M59.1806 10.6288C60.731 9.07848 61.4323 6.76242 60.8258 4.49186C60.2155 2.22129 58.4528 0.568589 56.3339 0C54.7835 1.55414 54.0822 3.86641 54.6887 6.13698C55.299 8.40754 57.0655 10.0602 59.1806 10.6288Z" fill="#05A155"/>
<path fill-rule="evenodd" clip-rule="evenodd" d="M45.3719 18.6038C45.9367 16.4811 45.3909 14.1271 43.7268 12.4669C42.0665 10.8028 39.7087 10.2569 37.5897 10.8217C37.0249 12.9407 37.5746 15.2946 39.2349 16.9587C40.899 18.619 43.2529 19.1686 45.3719 18.6038Z" fill="#05A155"/>
<path fill-rule="evenodd" clip-rule="evenodd" d="M37.4004 32.4146C36.828 30.2957 35.1753 28.5292 32.9047 27.9227C30.6341 27.3125 28.3219 28.0175 26.7715 29.5679C27.3401 31.683 28.9928 33.4494 31.2634 34.0597C33.534 34.6662 35.8463 33.9649 37.4004 32.4146Z" fill="#05A155"/>
<path fill-rule="evenodd" clip-rule="evenodd" d="M37.4004 48.3602C35.8463 46.8099 33.534 46.1086 31.2634 46.7151C28.9928 47.3254 27.3401 49.088 26.7715 51.207C28.3219 52.7573 30.6341 53.4586 32.9047 52.8521C35.1753 52.2418 36.828 50.4792 37.4004 48.3602Z" fill="#05A155"/>
<path fill-rule="evenodd" clip-rule="evenodd" d="M75.1276 10.6288C77.2466 10.0602 79.013 8.40754 79.6195 6.13698C80.2298 3.86641 79.5248 1.55414 77.9782 0C75.8592 0.568589 74.0928 2.22129 73.4863 4.49186C72.876 6.76242 73.581 9.07848 75.1276 10.6288Z" fill="#05A155"/>
<path fill-rule="evenodd" clip-rule="evenodd" d="M88.9425 18.6038C91.0615 19.1686 93.4155 18.619 95.0758 16.9587C96.7399 15.2946 97.2857 12.9407 96.7209 10.8217C94.602 10.2569 92.248 10.8028 90.5839 12.4669C88.9236 14.1271 88.374 16.4811 88.9425 18.6038Z" fill="#05A155"/>
<path fill-rule="evenodd" clip-rule="evenodd" d="M96.9141 32.4146C98.4682 33.9649 100.781 34.6662 103.051 34.0559C105.322 33.4494 106.974 31.683 107.543 29.5679C105.993 28.0175 103.677 27.3125 101.406 27.9227C99.1354 28.5292 97.4827 30.2957 96.9141 32.4146Z" fill="#05A155"/>
<path fill-rule="evenodd" clip-rule="evenodd" d="M96.9141 48.3602C97.4827 50.4792 99.1354 52.2418 101.406 52.8521C103.677 53.4586 105.993 52.7573 107.543 51.207C106.974 49.088 105.322 47.3254 103.051 46.7151C100.781 46.1086 98.4682 46.8099 96.9141 48.3602Z" fill="#05A155"/>
<path fill-rule="evenodd" clip-rule="evenodd" d="M57.198 23.657C54.5218 23.657 51.9214 22.2659 50.4886 19.783C49.0519 17.3002 49.1505 14.3511 50.4848 12.0312C53.161 12.035 55.7651 13.4224 57.198 15.909C58.6309 18.3919 58.5361 21.341 57.198 23.657Z" fill="#05A155"/>
<path fill-rule="evenodd" clip-rule="evenodd" d="M77.1117 23.657C79.7879 23.657 82.3921 22.2659 83.8249 19.783C85.2578 17.3002 85.163 14.3511 83.8249 12.0312C81.1488 12.035 78.5484 13.4224 77.1155 15.909C75.6789 18.3919 75.7774 21.341 77.1117 23.657Z" fill="#05A155"/>
<path fill-rule="evenodd" clip-rule="evenodd" d="M87.9258 52.3781C87.9258 54.5691 89.0668 56.7032 91.1023 57.8782C93.1379 59.0533 95.5525 58.9737 97.4554 57.8782C97.4516 55.6835 96.3145 53.5532 94.2789 52.3781C92.2395 51.203 89.8249 51.2826 87.9258 52.3781Z" fill="#05A155"/>
<path fill-rule="evenodd" clip-rule="evenodd" d="M46.388 52.3781C46.3842 54.5691 45.2471 56.7032 43.2115 57.8782C41.1759 59.0533 38.7575 58.9737 36.8584 57.8782C36.8584 55.6835 37.9994 53.5532 40.0349 52.3781C42.0705 51.203 44.4889 51.2826 46.388 52.3781Z" fill="#05A155"/>
<path d="M81.6384 50.1305H77.7682L73.8297 54.0651V65.6492H94.7881V68.3822H71.0967V52.9355L76.6348 47.3975H81.6384V50.1305Z" fill="#A05148"/>
<path d="M66.2021 47.5991L71.6986 42.1027V34.8286L74.6249 31.8984L76.5468 33.8316L74.4316 35.9468V42.6675L74.0298 43.6341L68.1354 49.5323L66.2021 47.5991Z" fill="#A05148"/>
<path d="M85.0002 38.6599L79.6251 44.035H73.0635V41.3019H78.4954L83.0669 36.7305L85.0002 38.6599Z" fill="#A05148"/>
<path d="M84.044 47.3522C83.8507 47.3522 83.6688 47.3863 83.5096 47.4545C83.3428 47.5228 83.1911 47.6251 83.0585 47.7578C82.8045 48.0117 82.6491 48.3605 82.6491 48.7433C82.6491 48.9404 82.687 49.1224 82.7514 49.2816C82.8197 49.4446 82.9258 49.6 83.0585 49.7327C83.1911 49.8616 83.3428 49.9677 83.5096 50.0359C83.6688 50.1004 83.8507 50.1383 84.044 50.1383C84.2411 50.1383 84.4193 50.1004 84.5823 50.0359C84.7453 49.9677 84.8969 49.8616 85.0296 49.7327C85.1623 49.6 85.2684 49.4446 85.3366 49.2816C85.4011 49.1224 85.439 48.9404 85.439 48.7433C85.439 48.5538 85.4011 48.3719 85.3366 48.2127V48.2089C85.2684 48.0459 85.1623 47.8904 85.0296 47.7578C84.8969 47.6251 84.7453 47.5228 84.5823 47.4545C84.4193 47.3863 84.2411 47.3522 84.044 47.3522ZM82.7401 45.5858C83.1457 45.4152 83.5892 45.3242 84.044 45.3242C84.5027 45.3242 84.9424 45.4152 85.348 45.5858C85.7726 45.7601 86.1516 46.0141 86.4624 46.3249C86.7733 46.6358 87.0273 47.011 87.2016 47.4356H87.2054C87.3722 47.8412 87.467 48.2847 87.467 48.7433C87.467 49.202 87.3722 49.6417 87.2054 50.0511C87.0273 50.4756 86.7733 50.8547 86.4624 51.1655C86.1516 51.4764 85.7764 51.7303 85.348 51.9047C84.9424 52.0715 84.5027 52.1662 84.044 52.1662C83.5892 52.1662 83.1457 52.0715 82.7401 51.9047C82.3155 51.7303 81.9364 51.4764 81.6256 51.1655C81.3148 50.8547 81.0608 50.4756 80.8826 50.0511C80.7158 49.6417 80.6211 49.202 80.6211 48.7433C80.6211 47.7995 81.0039 46.9428 81.6256 46.3249C81.9364 46.0141 82.3155 45.7601 82.7401 45.5858Z" fill="#A05148"/>
<path d="M85.7336 34.5973C85.5403 34.5973 85.3583 34.6352 85.1991 34.7034C85.0361 34.7679 84.8807 34.874 84.748 35.0067C84.6154 35.1394 84.513 35.291 84.4448 35.4578C84.3766 35.617 84.3424 35.7989 84.3424 35.9922C84.3424 36.1894 84.3766 36.3675 84.4448 36.5305C84.513 36.6935 84.6154 36.8451 84.748 36.9778C84.8807 37.1105 85.0361 37.2166 85.1991 37.2848C85.3583 37.3493 85.5403 37.3872 85.7336 37.3872C85.9307 37.3872 86.1127 37.3493 86.2719 37.2848C86.4349 37.2166 86.5865 37.1105 86.7192 36.9778C86.8518 36.8451 86.958 36.6935 87.0262 36.5305C87.0906 36.3675 87.1285 36.1894 87.1285 35.9922C87.1285 35.7989 87.0906 35.617 87.0262 35.4578C86.958 35.291 86.8518 35.1394 86.7192 35.0067C86.5865 34.874 86.4349 34.7679 86.2719 34.7034C86.1127 34.6352 85.9307 34.5973 85.7336 34.5973ZM84.4296 32.8309C84.8352 32.6641 85.2787 32.5693 85.7336 32.5693C86.1923 32.5693 86.632 32.6641 87.0414 32.8309C87.4659 33.009 87.845 33.263 88.1558 33.5738C88.4666 33.8847 88.7206 34.2637 88.895 34.6883C89.0656 35.0939 89.1565 35.5374 89.1565 35.9922C89.1565 36.4509 89.0656 36.8906 88.895 37.2962C88.7206 37.7245 88.4666 38.0998 88.1558 38.4106C87.845 38.7215 87.4659 38.9754 87.0414 39.1536C86.632 39.3204 86.1923 39.4152 85.7336 39.4152C85.2787 39.4152 84.8352 39.3204 84.4296 39.1536C84.0051 38.9754 83.626 38.7215 83.3152 38.4106C83.0043 38.0998 82.7504 37.7245 82.576 37.2962C82.4054 36.8906 82.3145 36.4509 82.3145 35.9922C82.3145 35.5374 82.4054 35.0939 82.576 34.6883C82.7504 34.2637 83.0043 33.8847 83.3152 33.5738C83.626 33.263 84.0051 33.009 84.4296 32.8309Z" fill="#A05148"/>
<path d="M77.2882 29.7672C77.0949 29.7672 76.9167 29.8051 76.7575 29.8696H76.7537C76.5869 29.9378 76.4353 30.0439 76.3026 30.1766C76.1699 30.3093 76.0638 30.4609 75.9956 30.6239C75.9311 30.7869 75.8932 30.9651 75.8932 31.1622C75.8932 31.3555 75.9311 31.5374 75.9956 31.6966C76.0638 31.8634 76.1699 32.0151 76.3026 32.1477C76.5528 32.4017 76.9015 32.5571 77.2882 32.5571C77.4853 32.5571 77.6634 32.5192 77.8264 32.4548C77.9894 32.3865 78.1411 32.2804 78.2737 32.1477C78.4064 32.0151 78.5126 31.8634 78.5808 31.6966C78.6452 31.5374 78.6831 31.3555 78.6831 31.1622C78.6831 30.9651 78.6452 30.7869 78.5808 30.6239C78.5126 30.4609 78.4064 30.3093 78.2737 30.1766C78.1411 30.0439 77.9894 29.9378 77.8264 29.8696C77.6634 29.8051 77.4853 29.7672 77.2882 29.7672ZM75.9804 28.0046V28.0008C76.386 27.834 76.8295 27.7393 77.2882 27.7393C77.7468 27.7393 78.1866 27.834 78.5922 28.0008C79.0167 28.179 79.3958 28.4329 79.7066 28.7438C80.0174 29.0546 80.2714 29.4337 80.4496 29.8582C80.6163 30.2638 80.7111 30.7035 80.7111 31.1622C80.7111 31.6208 80.6163 32.0605 80.4496 32.4661C80.2714 32.8907 80.0174 33.2697 79.7066 33.5806C79.3958 33.8914 79.0205 34.1454 78.5922 34.3235C78.1866 34.4903 77.7468 34.5851 77.2882 34.5851C76.3443 34.5851 75.4876 34.2022 74.8697 33.5806C74.5589 33.2697 74.3049 32.8907 74.1268 32.4661C73.96 32.0605 73.8652 31.6208 73.8652 31.1622C73.8652 30.7035 73.96 30.2638 74.1268 29.8582C74.3049 29.4299 74.5589 29.0546 74.8697 28.7438C75.1806 28.4329 75.5559 28.179 75.9804 28.0046Z" fill="#A05148"/>
<path d="M67.1339 23.4567C66.9368 23.4567 66.7548 23.4946 66.5956 23.559C66.4326 23.6273 66.281 23.7334 66.1483 23.8661L66.1445 23.8623C66.0156 23.9949 65.9133 24.1466 65.8413 24.3134C65.7768 24.4726 65.7389 24.6545 65.7389 24.8516C65.7389 25.0449 65.7768 25.2269 65.8413 25.3861C65.9095 25.5529 66.0156 25.7045 66.1483 25.8372C66.281 25.9698 66.4326 26.0722 66.5956 26.1404C66.7548 26.2086 66.9368 26.2466 67.1339 26.2466C67.3272 26.2466 67.5092 26.2086 67.6684 26.1404C67.8314 26.076 67.9868 25.9698 68.1194 25.8372C68.2521 25.7045 68.3545 25.5529 68.4227 25.3861C68.4909 25.2269 68.5288 25.0449 68.5288 24.8516C68.5288 24.6545 68.4909 24.4726 68.4227 24.3134C68.3545 24.1466 68.2521 23.9949 68.1194 23.8623V23.8661C67.9868 23.7334 67.8314 23.6273 67.6684 23.559C67.5092 23.4946 67.3272 23.4567 67.1339 23.4567ZM65.8299 21.6903C66.2355 21.5235 66.6752 21.4287 67.1339 21.4287C67.5888 21.4287 68.0323 21.5235 68.4379 21.6903C68.8624 21.8646 69.2415 22.1224 69.5523 22.4294V22.4332C69.8631 22.7478 70.1209 23.1269 70.2915 23.5477C70.4621 23.9532 70.553 24.393 70.553 24.8516C70.553 25.3065 70.4621 25.75 70.2915 26.1556C70.1171 26.5801 69.8631 26.9592 69.5523 27.27C69.2415 27.5808 68.8624 27.8348 68.4379 28.0092C68.0323 28.1798 67.5888 28.2707 67.1339 28.2707C66.6752 28.2707 66.2355 28.1798 65.8299 28.0092C65.4016 27.8348 65.0263 27.5808 64.7155 27.27C64.4008 26.9592 64.1507 26.5801 63.9725 26.1556C63.8057 25.75 63.7109 25.3065 63.7109 24.8516C63.7109 24.393 63.8057 23.9532 63.9725 23.5477C64.1469 23.1269 64.4008 22.7478 64.7155 22.4332V22.4294C65.0263 22.1224 65.4016 21.8646 65.8299 21.6903Z" fill="#A05148"/>
<path d="M65.7627 68.383V27.2588H68.5033V68.383H65.7627Z" fill="#A05148"/>
<path d="M39.5273 65.6504H60.4478V58.7402L57.2258 55.5182H54.7695V52.7852H58.3592L63.1809 57.6106V68.3835H39.5273V65.6504Z" fill="#A05148"/>
<path d="M52.3624 52.7272C52.1691 52.7272 51.9871 52.7651 51.8279 52.8333C51.6611 52.8978 51.5095 53.0039 51.3768 53.1366C51.2442 53.2692 51.138 53.4209 51.0698 53.5877C51.0053 53.7469 50.9674 53.9288 50.9674 54.1221C50.9674 54.3192 51.0053 54.4974 51.0698 54.6604C51.138 54.8234 51.2442 54.975 51.3768 55.1077C51.5095 55.2404 51.6611 55.3465 51.8279 55.4147C51.9871 55.4792 52.1691 55.5171 52.3624 55.5171C52.5595 55.5171 52.7377 55.4792 52.9007 55.4147C53.0637 55.3465 53.2153 55.2404 53.348 55.1077C53.4806 54.975 53.5868 54.8234 53.655 54.6604C53.7194 54.4974 53.7573 54.3192 53.7573 54.1221C53.7573 53.9288 53.7194 53.7469 53.655 53.5877C53.5868 53.4209 53.4806 53.2692 53.348 53.1366C53.2153 53.0039 53.0637 52.8978 52.9007 52.8333C52.7377 52.7651 52.5595 52.7272 52.3624 52.7272ZM51.0584 50.9608C51.464 50.794 51.9037 50.6992 52.3624 50.6992C52.8211 50.6992 53.2608 50.794 53.6664 50.9608C54.0909 51.1389 54.47 51.3929 54.7808 51.7037C55.0917 52.0146 55.3456 52.3936 55.5238 52.8182C55.6906 53.2238 55.7853 53.6673 55.7853 54.1221C55.7853 54.5808 55.6906 55.0205 55.5238 55.4261C55.3456 55.8544 55.0917 56.2297 54.7808 56.5405C54.47 56.8514 54.0909 57.1053 53.6664 57.2835C53.2608 57.4503 52.8211 57.545 52.3624 57.545C51.9037 57.545 51.464 57.4503 51.0584 57.2835C50.6339 57.1053 50.2548 56.8514 49.944 56.5405C49.6331 56.2297 49.3792 55.8544 49.201 55.4261C49.0342 55.0205 48.9395 54.5808 48.9395 54.1221C48.9395 53.6673 49.0342 53.2238 49.201 52.8182C49.3792 52.3936 49.6331 52.0146 49.944 51.7037C50.2548 51.3929 50.6339 51.1389 51.0584 50.9608Z" fill="#A05148"/>
<path d="M66.141 55.0967L59.2573 47.7846L58.8858 46.8521V39.1155L55.4932 34.3242L57.7145 32.7549L61.6188 38.2702V46.3138L68.1273 53.2279L66.141 55.0967Z" fill="#A05148"/>
<path d="M52.0947 42.9551L54.3084 45.4834H60.2521V48.2164H53.0802L50.0439 44.748L52.0947 42.9551Z" fill="#A05148"/>
<path d="M49.7091 38.6255C50.1716 38.6558 50.6075 38.7809 50.998 38.9743C51.4036 39.1752 51.7599 39.4519 52.0555 39.7892C52.3474 40.1228 52.5787 40.517 52.7227 40.9492C52.863 41.3623 52.9274 41.8096 52.8971 42.2683C52.8667 42.727 52.7416 43.1629 52.5483 43.5533C52.3474 43.9589 52.0707 44.319 51.7333 44.6109C51.396 44.9065 51.0055 45.1378 50.5772 45.2818H50.5734C50.1602 45.4183 49.7129 45.4827 49.2543 45.4524C48.7956 45.4221 48.3597 45.3008 47.9692 45.1074C47.5636 44.9065 47.2035 44.626 46.9117 44.2887C46.616 43.9551 46.3886 43.5647 46.2445 43.1325L46.2407 43.1363C46.1005 42.7194 46.0398 42.2721 46.0701 41.8134C46.1005 41.351 46.2218 40.915 46.4151 40.5246C46.616 40.119 46.8965 39.7589 47.2301 39.467C47.5674 39.1714 47.9617 38.9439 48.3862 38.7999H48.39C48.807 38.6596 49.2505 38.5952 49.7091 38.6255ZM50.1034 40.7862C49.9442 40.7104 49.766 40.6573 49.5765 40.6459C49.3869 40.6345 49.205 40.6573 49.0382 40.7141C48.86 40.7748 48.697 40.8696 48.5644 40.9871C48.4279 41.1084 48.3142 41.2524 48.2308 41.4192C48.1512 41.5784 48.1019 41.7566 48.0905 41.9461C48.0792 42.1356 48.1019 42.3176 48.1588 42.4843V42.4881C48.2194 42.6625 48.3104 42.8217 48.4317 42.9582C48.5492 43.0946 48.6971 43.2084 48.8638 43.2917C49.023 43.3713 49.2012 43.4206 49.3907 43.432C49.5803 43.4434 49.7622 43.4206 49.929 43.3638C50.1072 43.3031 50.2664 43.2084 50.4028 43.0908C50.5393 42.9733 50.653 42.8255 50.7364 42.6587C50.8122 42.4995 50.8615 42.3214 50.8767 42.1318C50.888 41.9423 50.8615 41.7566 50.8046 41.5898C50.7478 41.4154 50.653 41.2562 50.5355 41.1197C50.4142 40.9833 50.2702 40.8696 50.1034 40.7862Z" fill="#A05148"/>
<path d="M55.7889 28.2032C56.2437 28.279 56.6645 28.4458 57.036 28.6808C57.415 28.9196 57.7448 29.2342 58.0026 29.6019C58.2603 29.9658 58.4499 30.3827 58.5484 30.8187C58.647 31.247 58.6622 31.6981 58.5863 32.1492C58.5067 32.604 58.3399 33.0248 58.1087 33.3963C57.8661 33.7791 57.5515 34.1051 57.1914 34.3629H57.1876C56.8199 34.6206 56.4067 34.8102 55.967 34.9087C55.5425 35.0073 55.0914 35.0224 54.6365 34.9466C54.1816 34.867 53.7609 34.7002 53.3932 34.4652C53.0065 34.2226 52.6767 33.908 52.419 33.5441H52.4228C52.165 33.184 51.9793 32.767 51.8769 32.3273C51.7822 31.899 51.7632 31.4479 51.8428 30.9968C51.9186 30.542 52.0854 30.1212 52.3204 29.7497C52.5592 29.3707 52.8739 29.0409 53.2415 28.7831V28.7793C53.6017 28.5254 54.0148 28.3396 54.4583 28.2373C54.8867 28.1425 55.3378 28.1236 55.7889 28.2032ZM55.9594 30.3903C55.8116 30.2956 55.6372 30.2311 55.4515 30.197C55.2582 30.1667 55.0762 30.1705 54.9056 30.2122C54.7275 30.2501 54.5569 30.3297 54.4053 30.4358L54.4015 30.432C54.2574 30.5344 54.1323 30.6708 54.03 30.83C53.939 30.9779 53.8708 31.1485 53.8405 31.338C53.8063 31.5275 53.8139 31.7133 53.8518 31.8838C53.8897 32.062 53.9656 32.2288 54.0717 32.3766L54.0755 32.3804C54.1816 32.532 54.3143 32.6571 54.4697 32.7557C54.6175 32.8504 54.7881 32.9149 54.9777 32.949C55.1672 32.9793 55.3529 32.9755 55.5235 32.9376C55.7055 32.8959 55.8722 32.8201 56.0201 32.7178V32.714C56.1679 32.6078 56.2968 32.4714 56.3954 32.316C56.4901 32.1681 56.5583 31.9975 56.5887 31.808C56.6228 31.6185 56.6152 31.4327 56.5773 31.2622C56.5356 31.0802 56.4598 30.9096 56.3537 30.7656C56.2513 30.6178 56.1186 30.4889 55.9594 30.3903Z" fill="#A05148"/>
</svg>
