<svg width="53" height="53" viewBox="0 0 53 53" fill="none" xmlns="http://www.w3.org/2000/svg">
<g clip-path="url(#clip0_1095_191)">
<path d="M36.0821 35.9354C37.4879 32.6126 35.5709 31.079 33.654 31.079L14.7399 30.8234C14.2287 30.8234 14.2287 30.0566 14.8677 29.9288L34.0374 29.6732C36.2099 29.5454 38.7659 27.7562 39.5327 25.4558C39.5327 25.4558 40.8107 22.772 40.6829 22.3886C40.1296 19.7192 38.7119 17.3066 36.6492 15.5243C34.5865 13.742 31.9937 12.6893 29.2724 12.5292C26.551 12.3691 23.8527 13.1106 21.5953 14.6388C19.3378 16.167 17.647 18.3967 16.7846 20.9828C11.9283 17.7878 6.81639 22.133 7.96657 26.8616C1.83227 27.245 -0.340297 32.7404 0.298693 36.0632C0.298693 36.191 0.426491 36.3188 0.682087 36.3188H35.6987C35.8265 36.3188 36.0821 36.191 36.0821 35.9354Z" fill="#F38020"/>
<path d="M42.4732 22.8999C41.9621 22.8999 41.7065 22.7721 41.5787 23.0277L40.9397 25.7115C40.3007 27.7563 41.3231 29.5455 43.4956 29.6733L47.5852 29.9289C48.0964 29.9289 48.0964 30.6957 47.4574 30.8235L43.24 30.9513C38.6393 31.4625 37.3613 35.9355 37.3613 35.9355C37.3613 36.1911 37.3613 36.3189 37.6169 36.3189H52.0581L52.4415 36.0633C52.876 34.5235 52.9478 32.904 52.651 31.3318C52.3543 29.7596 51.6972 28.2777 50.7314 27.0022C49.7655 25.7267 48.5171 24.6925 47.0843 23.9807C45.6515 23.269 44.0731 22.899 42.4732 22.8999Z" fill="#FAAE40"/>
</g>
<defs>
<clipPath id="clip0_1095_191">
<rect width="53" height="53" fill="white"/>
</clipPath>
</defs>
</svg>
