<svg width="53" height="53" viewBox="0 0 53 53" fill="none" xmlns="http://www.w3.org/2000/svg">
<path d="M37.0264 34.9843C37.2809 32.8649 37.2047 32.5547 38.7839 32.8985L39.1716 32.9334C40.3864 32.989 41.9721 32.7395 42.9065 32.3053C44.9135 31.3748 46.1037 29.8189 44.1252 30.2272C39.6097 31.1577 39.2996 29.6302 39.2996 29.6302C44.0683 22.5559 46.0585 13.5755 44.3397 11.3785C39.6485 5.3821 31.5249 8.21878 31.3905 8.29244L31.3478 8.30019C30.4561 8.11539 29.4572 8.00296 28.3367 7.98616C26.2948 7.95256 24.744 8.52118 23.5551 9.41419C23.5551 9.41419 9.06539 3.4436 9.72707 16.9227C9.86923 19.7891 13.8367 38.6158 18.5666 32.9295C20.2958 30.8489 21.9655 29.0913 21.9655 29.0913C22.7952 29.6431 23.7748 29.9235 24.8306 29.8227L24.9107 29.7542C24.8865 30.0242 24.8974 30.2961 24.943 30.5632C23.7243 31.9241 24.0823 32.1657 21.6476 32.6659C19.1831 33.1738 20.6305 34.0784 21.5765 34.3149C22.7228 34.6018 25.376 35.0076 27.1658 32.4992L27.0948 32.7861C27.5729 33.1686 27.5406 35.5349 27.6078 37.2252C27.675 38.9156 27.7887 40.4948 28.1338 41.4253C28.4789 42.3558 28.8834 44.7518 32.0883 44.0656C34.7635 43.4918 36.8105 42.6673 36.9966 34.9895" fill="white"/>
<path d="M37.0264 34.9843C37.2809 32.8649 37.2047 32.5547 38.7839 32.8985L39.1716 32.9334C40.3864 32.989 41.9721 32.7395 42.9065 32.3053C44.9135 31.3748 46.1037 29.8189 44.1252 30.2272C39.6097 31.1577 39.2996 29.6302 39.2996 29.6302C44.0683 22.5559 46.0585 13.5755 44.3397 11.3785C39.6485 5.3821 31.5249 8.21878 31.3905 8.29244L31.3478 8.30019C30.4561 8.11539 29.4572 8.00296 28.3367 7.98616C26.2948 7.95256 24.744 8.52118 23.5551 9.41419C23.5551 9.41419 9.06539 3.4436 9.72707 16.9227C9.86923 19.7891 13.8367 38.6158 18.5666 32.9295C20.2958 30.8489 21.9655 29.0913 21.9655 29.0913C22.7952 29.6431 23.7748 29.9235 24.8306 29.8227L24.9107 29.7542C24.8865 30.0242 24.8974 30.2961 24.943 30.5632C23.7243 31.9241 24.0823 32.1657 21.6476 32.6659C19.1831 33.1738 20.6305 34.0784 21.5765 34.3149C22.7228 34.6018 25.376 35.0076 27.1658 32.4992L27.0948 32.7861C27.5729 33.1686 27.5406 35.5349 27.6078 37.2252C27.675 38.9156 27.7887 40.4948 28.1338 41.4253C28.4789 42.3558 28.8834 44.7518 32.0883 44.0656C34.7635 43.4918 36.8105 42.6673 36.9966 34.9895" stroke="white" stroke-width="3.35749"/>
<path d="M44.1362 30.2272C39.6208 31.1577 39.3106 29.6301 39.3106 29.6301C44.0793 22.5559 46.0695 13.5755 44.3507 11.3772C39.6596 5.38076 31.5359 8.21743 31.4015 8.2911L31.3576 8.29885C30.4659 8.11405 29.4669 8.00161 28.3465 7.98481C26.3046 7.95121 24.7538 8.51984 23.5648 9.41284C23.5648 9.41284 9.07516 3.44226 9.73683 16.9213C9.87899 19.7903 13.8465 38.6145 18.5764 32.9282C20.3056 30.8475 21.9753 29.0899 21.9753 29.0899C22.8049 29.6418 23.7974 29.9222 24.8391 29.8214L24.9205 29.7529C24.8946 30.0114 24.9076 30.2634 24.9528 30.5619C23.7341 31.9227 24.0921 32.1644 21.6573 32.6645C19.1929 33.1724 20.6403 34.0771 21.5863 34.3136C22.7326 34.6005 25.3857 35.0063 27.1756 32.4978L27.1045 32.7847C27.5827 33.1673 27.9187 35.2725 27.8605 37.1787C27.8024 39.0849 27.7675 40.3966 28.1449 41.4201C28.5222 42.4436 28.8944 44.7466 32.0994 44.0603C34.7745 43.4866 36.1625 42.0004 36.3551 39.5217C36.492 37.7589 36.8022 38.02 36.8203 36.4459L37.0684 35.7002C37.3553 33.3094 37.1137 32.5405 38.7614 32.8997L39.1491 32.9346C40.3639 32.9902 41.9509 32.7408 42.8839 32.3066C44.8909 31.3761 46.0812 29.8201 44.1026 30.2285L44.1362 30.2272Z" fill="#417BA2"/>
<path d="M27.3986 31.597C27.2745 36.0427 27.4296 40.518 27.8639 41.6062C28.2981 42.6943 29.2298 44.8112 32.4335 44.1236C35.1087 43.5498 36.0831 42.4397 36.5044 39.9882L37.493 32.1527M23.5733 9.31331C23.5733 9.31331 9.0733 3.38666 9.74531 16.8631C9.87455 19.7321 13.8549 38.5576 18.5849 32.8713C20.314 30.8035 21.8765 29.1623 21.8765 29.1623M31.3919 8.23162C30.875 8.38929 39.4561 5.10029 44.3256 11.3332C46.0444 13.5302 44.0671 22.5119 39.2855 29.5862" stroke="white" stroke-width="1.11916" stroke-linecap="round" stroke-linejoin="round"/>
<path d="M39.2869 29.5745C39.2869 29.5745 39.5971 31.1033 44.1138 30.1715C46.0911 29.7631 44.8892 31.3178 42.8951 32.2496C41.2487 33.0121 37.5578 33.2098 37.4958 32.154C37.3407 29.4271 39.4394 30.2568 39.2869 29.5745ZM39.2869 29.5745C39.1499 28.9593 38.2117 28.3558 37.5914 26.8515C37.0486 25.5372 30.1605 15.4635 39.504 16.96C39.8465 16.8889 37.0667 8.07259 28.3228 7.92914C19.5788 7.78569 19.8683 18.6814 19.8683 18.6814" stroke="white" stroke-width="1.11916" stroke-linecap="round" stroke-linejoin="bevel"/>
<path d="M24.9511 30.5051C23.7325 31.8659 24.0904 32.1076 21.6557 32.6077C19.1912 33.1156 20.6386 34.0202 21.5846 34.2567C22.7309 34.5436 25.3841 34.9494 27.174 32.441C27.7193 31.6785 27.1714 30.4586 26.4218 30.1471C26.06 29.9972 25.5753 29.8111 24.9537 30.5051H24.9511Z" stroke="white" stroke-width="1.11916" stroke-linejoin="round"/>
<path d="M24.8697 30.4818C24.747 29.6805 25.1334 28.7294 25.5456 27.6128C26.1659 25.9405 27.6134 24.2682 26.4541 18.9645C25.6012 15.0125 19.8658 18.1413 19.8632 18.6776C19.8606 19.2139 20.1217 21.3941 19.7676 23.9335C19.3024 27.2471 21.8741 30.0501 24.8374 29.762" stroke="white" stroke-width="1.11916" stroke-linecap="round" stroke-linejoin="round"/>
<path d="M23.4954 18.5987C23.4696 18.7822 23.8314 19.2707 24.3006 19.3353C24.7697 19.3999 25.1729 19.0187 25.1974 18.8365C25.222 18.6542 24.8614 18.4513 24.391 18.3841C23.9206 18.3169 23.5187 18.4139 23.4941 18.5974L23.4954 18.5987Z" fill="white" stroke="white" stroke-width="0.373485"/>
<path d="M37.8062 18.2252C37.832 18.4087 37.4702 18.8972 37.001 18.9618C36.5319 19.0264 36.1287 18.6452 36.1029 18.463C36.077 18.2808 36.4389 18.0779 36.9093 18.0132C37.3797 17.9486 37.7816 18.043 37.8075 18.2265L37.8062 18.2252Z" fill="white" stroke="white" stroke-width="0.186096"/>
<path d="M39.4924 16.9587C39.57 18.3932 39.1823 19.3728 39.1344 20.9004C39.0621 23.1232 40.1942 25.6652 38.4883 28.2111" stroke="white" stroke-width="1.11916" stroke-linecap="round" stroke-linejoin="round"/>
</svg>
