<svg width="53" height="53" viewBox="0 0 53 53" fill="none" xmlns="http://www.w3.org/2000/svg">
<g clip-path="url(#clip0_1095_1294)">
<path d="M24.4273 22.5383C24.299 22.6378 22.0346 23.9138 22.0346 26.7509C22.0346 30.0324 24.916 31.1934 25.0022 31.2221C24.9889 31.2929 24.5445 32.812 23.483 34.36C22.5366 35.7221 21.5482 37.0821 20.0445 37.0821C18.5408 37.0821 18.1538 36.2086 16.4179 36.2086C14.7263 36.2086 14.1248 37.1108 12.7494 37.1108C11.374 37.1108 10.4143 35.8504 9.31081 34.3025C8.03268 32.4848 7 29.6609 7 26.9808C7 22.6821 9.79509 20.4022 12.5459 20.4022C14.0076 20.4022 15.226 21.3619 16.1437 21.3619C17.0172 21.3619 18.3794 20.3447 20.0423 20.3447C20.6725 20.3447 22.9369 20.4022 24.4273 22.5383ZM19.2528 18.5248C19.9405 17.7088 20.427 16.5767 20.427 15.4445C20.427 15.2875 20.4138 15.1283 20.385 15C19.2661 15.042 17.9349 15.7452 17.1322 16.6762C16.502 17.3926 15.9138 18.5248 15.9138 19.6725C15.9138 19.845 15.9425 20.0174 15.9558 20.0727C16.0265 20.086 16.1415 20.1015 16.2565 20.1015C17.2604 20.1015 18.5231 19.4292 19.2528 18.5248Z" fill="#1FC1C1"/>
</g>
<g clip-path="url(#clip1_1095_1294)">
<path d="M33.6851 15.0298C33.6684 15.0341 33.6509 15.0492 33.6289 15.0619L33.5807 15.086C33.5367 15.1114 33.5095 15.1381 33.5165 15.1502L34.5601 16.9645C32.6606 17.8962 31.373 19.7205 31.373 21.8133H37.4501H43.5272C43.5272 19.7205 42.2397 17.8962 40.3401 16.9645L41.3838 15.1502C41.3908 15.1381 41.3636 15.1114 41.3195 15.086L41.2714 15.0619C41.2273 15.0365 41.1901 15.0257 41.1831 15.0378L40.1234 16.8682C39.3165 16.5091 38.4094 16.3062 37.4501 16.3062C36.4909 16.3062 35.5837 16.5091 34.7768 16.8682L33.7172 15.0378C33.7137 15.0318 33.7017 15.0255 33.6851 15.0298ZM34.5601 18.6664C34.8785 18.6664 35.1381 18.926 35.1381 19.2444C35.1381 19.5628 34.8785 19.8144 34.5601 19.8144C34.2417 19.8144 33.9821 19.5628 33.9821 19.2444C33.9821 18.926 34.2417 18.6664 34.5601 18.6664ZM40.3401 18.6664C40.6585 18.6664 40.9181 18.926 40.9181 19.2444C40.9181 19.5628 40.6585 19.8144 40.3401 19.8144C40.0217 19.8144 39.7621 19.5628 39.7621 19.2444C39.7621 18.926 40.0217 18.6664 40.3401 18.6664Z" fill="#1FC1C1"/>
<path d="M31.3242 22.5221V31.7426C31.3242 32.2001 31.8771 32.7989 32.3346 32.7989H33.7807V35.9423C33.7807 36.7429 34.3636 37.3874 35.0893 37.3874C35.8149 37.3874 36.3978 36.7429 36.3978 35.9423V32.7989H38.5011V35.9423C38.5011 36.7429 39.084 37.3874 39.8096 37.3874C40.5353 37.3874 41.1262 36.7429 41.1262 35.9423V32.7989H42.5643C43.0218 32.7989 43.5747 32.2001 43.5747 31.7426V22.5221H31.3242Z" fill="#1FC1C1"/>
<path opacity="0.99115" d="M30.6176 23.7729C30.6176 22.9748 30.0312 22.3279 29.3078 22.3279C28.5845 22.3279 27.998 22.9748 27.998 23.7729V29.2433C27.998 30.0413 28.5845 30.6883 29.3078 30.6883C30.0312 30.6883 30.6176 30.0413 30.6176 29.2433V23.7729Z" fill="#1FC1C1"/>
<path opacity="0.99115" d="M46.9028 23.7729C46.9028 22.9748 46.3164 22.3279 45.593 22.3279C44.8696 22.3279 44.2832 22.9748 44.2832 23.7729V29.2433C44.2832 30.0413 44.8696 30.6883 45.593 30.6883C46.3164 30.6883 46.9028 30.0413 46.9028 29.2433V23.7729Z" fill="#1FC1C1"/>
</g>
<defs>
<clipPath id="clip0_1095_1294">
<rect width="18" height="22.113" fill="white" transform="translate(7 15)"/>
</clipPath>
<clipPath id="clip1_1095_1294">
<rect width="19" height="22.4751" fill="white" transform="translate(28 15)"/>
</clipPath>
</defs>
</svg>
