<svg width="53" height="53" viewBox="0 0 53 53" fill="none" xmlns="http://www.w3.org/2000/svg">
<path d="M26.9458 11.1471V5.09504C27.4406 4.80649 27.7774 4.27596 27.7774 3.6631C27.7774 2.7459 27.0315 2 26.1143 2C25.1971 2 24.4512 2.7459 24.4512 3.6631C24.4512 4.27596 24.7879 4.80649 25.2827 5.09504V11.1471H26.9458Z" fill="url(#paint0_linear_1095_269)"/>
<path d="M21.1244 21.6479L19.9453 26.9466H22.3036L21.1244 21.6479Z" fill="url(#paint1_linear_1095_269)"/>
<path d="M41.0845 46.0723C40.4716 46.0723 39.9411 46.409 39.6526 46.9038H36.9268V41.0829H35.2637V46.9038C35.2637 47.8185 36.0121 48.5669 36.9268 48.5669H39.6526C39.9411 49.0617 40.4716 49.3985 41.0845 49.3985C42.0017 49.3985 42.7476 48.6526 42.7476 47.7354C42.7476 46.8182 42.0017 46.0723 41.0845 46.0723Z" fill="url(#paint2_linear_1095_269)"/>
<path d="M12.8105 14.4732V37.7567C12.8105 38.6739 13.5564 39.4198 14.4736 39.4198H37.7569C38.6741 39.4198 39.42 38.6739 39.42 37.7567V14.4732C39.42 13.556 38.6741 12.8101 37.7569 12.8101H14.4736C13.5564 12.8101 12.8105 13.556 12.8105 14.4732ZM27.7784 20.2941C27.3185 20.2941 26.9468 19.9224 26.9468 19.4625C26.9468 19.0027 27.3185 18.631 27.7784 18.631H32.7677C33.2275 18.631 33.5992 19.0027 33.5992 19.4625C33.5992 19.9224 33.2275 20.2941 32.7677 20.2941H31.1046V31.9358H32.7677C33.2275 31.9358 33.5992 32.3075 33.5992 32.7674C33.5992 33.2272 33.2275 33.5989 32.7677 33.5989H27.7784C27.3185 33.5989 26.9468 33.2272 26.9468 32.7674C26.9468 32.3075 27.3185 31.9358 27.7784 31.9358H29.4415V20.2941H27.7784ZM16.9874 32.5869L19.8687 19.6388C20.0018 19.0451 20.5181 18.631 21.126 18.631C21.7339 18.631 22.2503 19.0451 22.3825 19.6372L25.2646 32.5869C25.3636 33.0351 25.0808 33.4792 24.6326 33.579C24.5728 33.5923 24.5112 33.5981 24.4514 33.5981C24.0705 33.5981 23.7271 33.3353 23.6398 32.947L22.6743 28.6088H19.5768L18.6114 32.947C18.5108 33.3968 18.0609 33.6771 17.6194 33.579C17.1712 33.4792 16.8884 33.0351 16.9874 32.5869Z" fill="url(#paint3_linear_1095_269)"/>
<path d="M48.5679 39.651V36.9252C48.5679 36.0105 47.8195 35.2621 46.9048 35.2621H41.084V36.9252H46.9048V39.651C46.41 39.9396 46.0733 40.4701 46.0733 41.0829C46.0733 42.0001 46.8192 42.7461 47.7364 42.7461C48.6535 42.7461 49.3994 42.0001 49.3994 41.0829C49.3994 40.4701 49.0627 39.9396 48.5679 39.651Z" fill="url(#paint4_linear_1095_269)"/>
<path d="M25.2827 41.0829V47.135C24.7879 47.4235 24.4512 47.9541 24.4512 48.5669C24.4512 49.4841 25.1971 50.23 26.1143 50.23C27.0315 50.23 27.7774 49.4841 27.7774 48.5669C27.7774 47.9541 27.4406 47.4235 26.9458 47.135V41.0829H25.2827Z" fill="url(#paint5_linear_1095_269)"/>
<path d="M9.48438 4.49465C9.48438 5.41185 10.2303 6.15775 11.1475 6.15775C11.7603 6.15775 12.2908 5.82097 12.5794 5.3262H15.3052V11.1471H16.9683V5.3262C16.9683 4.41149 16.2199 3.66309 15.3052 3.66309H12.5794C12.2908 3.16832 11.7603 2.83154 11.1475 2.83154C10.2303 2.83154 9.48438 3.57744 9.48438 4.49465Z" fill="url(#paint6_linear_1095_269)"/>
<path d="M3.66358 36.9252V39.651C3.16881 39.9396 2.83203 40.4701 2.83203 41.0829C2.83203 42.0001 3.57793 42.7461 4.49512 42.7461C5.41232 42.7461 6.15822 42.0001 6.15822 41.0829C6.15822 40.4701 5.82144 39.9396 5.32667 39.651V36.9252H11.1475V35.2621H5.32667C4.41197 35.2621 3.66358 36.0105 3.66358 36.9252Z" fill="url(#paint7_linear_1095_269)"/>
<path d="M3.66309 27.7781C4.27594 27.7781 4.80647 27.4413 5.09501 26.9466H11.147V25.2835H5.09501C4.80647 24.7887 4.27594 24.4519 3.66309 24.4519C2.7459 24.4519 2 25.1978 2 26.115C2 27.0322 2.7459 27.7781 3.66309 27.7781Z" fill="url(#paint8_linear_1095_269)"/>
<path d="M47.136 25.2835H41.084V26.9466H47.136C47.4245 27.4413 47.955 27.7781 48.5679 27.7781C49.4851 27.7781 50.231 27.0322 50.231 26.115C50.231 25.1978 49.4851 24.4519 48.5679 24.4519C47.955 24.4519 47.4245 24.7887 47.136 25.2835Z" fill="url(#paint9_linear_1095_269)"/>
<path d="M3.66358 12.579V15.3048C3.66358 16.2195 4.41197 16.9679 5.32667 16.9679H11.1475V15.3048H5.32667V12.579C5.82144 12.2904 6.15822 11.7599 6.15822 11.1471C6.15822 10.2298 5.41232 9.48395 4.49512 9.48395C3.57793 9.48395 2.83203 10.2298 2.83203 11.1471C2.83203 11.7599 3.16881 12.2904 3.66358 12.579Z" fill="url(#paint10_linear_1095_269)"/>
<path d="M46.9048 12.579V15.3048H41.084V16.9679H46.9048C47.8195 16.9679 48.5679 16.2195 48.5679 15.3048V12.579C49.0627 12.2904 49.3994 11.7599 49.3994 11.1471C49.3994 10.2298 48.6535 9.48395 47.7364 9.48395C46.8192 9.48395 46.0733 10.2298 46.0733 11.1471C46.0733 11.7599 46.41 12.2904 46.9048 12.579Z" fill="url(#paint11_linear_1095_269)"/>
<path d="M5.32812 21.1257C5.32812 21.583 5.70232 21.9572 6.15967 21.9572H11.1489V20.2941H6.15967C5.70232 20.2941 5.32812 20.6683 5.32812 21.1257Z" fill="url(#paint12_linear_1095_269)"/>
<path d="M5.32812 31.1044C5.32812 31.5617 5.70232 31.9359 6.15967 31.9359H11.1489V30.2728H6.15967C5.70232 30.2728 5.32812 30.647 5.32812 31.1044Z" fill="url(#paint13_linear_1095_269)"/>
<path d="M9.48438 47.7354C9.48438 48.6526 10.2303 49.3985 11.1475 49.3985C11.7603 49.3985 12.2908 49.0617 12.5794 48.5669H15.3052C16.2199 48.5669 16.9683 47.8185 16.9683 46.9038V41.0829H15.3052V46.9038H12.5794C12.2908 46.409 11.7603 46.0723 11.1475 46.0723C10.2303 46.0723 9.48438 46.8182 9.48438 47.7354Z" fill="url(#paint14_linear_1095_269)"/>
<path d="M21.1265 46.9038C21.5838 46.9038 21.958 46.5296 21.958 46.0723V41.0829H20.2949V46.0723C20.2949 46.5296 20.6691 46.9038 21.1265 46.9038Z" fill="url(#paint15_linear_1095_269)"/>
<path d="M31.105 46.9038C31.5623 46.9038 31.9365 46.5296 31.9365 46.0723V41.0829H30.2734V46.0723C30.2734 46.5296 30.6476 46.9038 31.105 46.9038Z" fill="url(#paint16_linear_1095_269)"/>
<path d="M46.9048 31.1043C46.9048 30.647 46.5306 30.2728 46.0733 30.2728H41.084V31.9359H46.0733C46.5306 31.9359 46.9048 31.5617 46.9048 31.1043Z" fill="url(#paint17_linear_1095_269)"/>
<path d="M46.9048 21.1257C46.9048 20.6683 46.5306 20.2941 46.0733 20.2941H41.084V21.9572H46.0733C46.5306 21.9572 46.9048 21.583 46.9048 21.1257Z" fill="url(#paint18_linear_1095_269)"/>
<path d="M42.7476 4.49465C42.7476 3.57744 42.0017 2.83154 41.0845 2.83154C40.4716 2.83154 39.9411 3.16832 39.6526 3.66309H36.9268C36.0121 3.66309 35.2637 4.41149 35.2637 5.3262V11.1471H36.9268V5.3262H39.6526C39.9411 5.82097 40.4716 6.15775 41.0845 6.15775C42.0017 6.15775 42.7476 5.41185 42.7476 4.49465Z" fill="url(#paint19_linear_1095_269)"/>
<path d="M30.2734 6.15778V11.1471H31.9365V6.15778C31.9365 5.70043 31.5623 5.32623 31.105 5.32623C30.6476 5.32623 30.2734 5.70043 30.2734 6.15778Z" fill="url(#paint20_linear_1095_269)"/>
<path d="M20.2949 6.15772V11.147H21.958V6.15772C21.958 5.70037 21.5838 5.32617 21.1265 5.32617C20.6691 5.32617 20.2949 5.70037 20.2949 6.15772Z" fill="url(#paint21_linear_1095_269)"/>
<defs>
<linearGradient id="paint0_linear_1095_269" x1="25.5201" y1="2.37931" x2="29.9236" y2="6.26106" gradientUnits="userSpaceOnUse">
<stop stop-color="#4E8FE6"/>
<stop offset="1" stop-color="#C7677A"/>
</linearGradient>
<linearGradient id="paint1_linear_1095_269" x1="20.7032" y1="21.8677" x2="23.2669" y2="24.6338" gradientUnits="userSpaceOnUse">
<stop stop-color="#4E8FE6"/>
<stop offset="1" stop-color="#C7677A"/>
</linearGradient>
<linearGradient id="paint2_linear_1095_269" x1="37.6688" y1="41.4278" x2="40.7255" y2="48.0968" gradientUnits="userSpaceOnUse">
<stop stop-color="#4E8FE6"/>
<stop offset="1" stop-color="#C7677A"/>
</linearGradient>
<linearGradient id="paint3_linear_1095_269" x1="21.3621" y1="13.9136" x2="30.4657" y2="35.9824" gradientUnits="userSpaceOnUse">
<stop stop-color="#4E8FE6"/>
<stop offset="1" stop-color="#C7677A"/>
</linearGradient>
<linearGradient id="paint4_linear_1095_269" x1="43.7563" y1="35.5724" x2="46.1262" y2="41.9556" gradientUnits="userSpaceOnUse">
<stop stop-color="#4E8FE6"/>
<stop offset="1" stop-color="#C7677A"/>
</linearGradient>
<linearGradient id="paint5_linear_1095_269" x1="25.5201" y1="41.4623" x2="29.9236" y2="45.344" gradientUnits="userSpaceOnUse">
<stop stop-color="#4E8FE6"/>
<stop offset="1" stop-color="#C7677A"/>
</linearGradient>
<linearGradient id="paint6_linear_1095_269" x1="11.8895" y1="3.17637" x2="14.9462" y2="9.84539" gradientUnits="userSpaceOnUse">
<stop stop-color="#4E8FE6"/>
<stop offset="1" stop-color="#C7677A"/>
</linearGradient>
<linearGradient id="paint7_linear_1095_269" x1="5.50438" y1="35.5724" x2="7.87421" y2="41.9556" gradientUnits="userSpaceOnUse">
<stop stop-color="#4E8FE6"/>
<stop offset="1" stop-color="#C7677A"/>
</linearGradient>
<linearGradient id="paint8_linear_1095_269" x1="4.93958" y1="24.5898" x2="5.41314" y2="27.7468" gradientUnits="userSpaceOnUse">
<stop stop-color="#4E8FE6"/>
<stop offset="1" stop-color="#C7677A"/>
</linearGradient>
<linearGradient id="paint9_linear_1095_269" x1="44.0236" y1="24.5898" x2="44.4971" y2="27.7468" gradientUnits="userSpaceOnUse">
<stop stop-color="#4E8FE6"/>
<stop offset="1" stop-color="#C7677A"/>
</linearGradient>
<linearGradient id="paint10_linear_1095_269" x1="5.50438" y1="9.79429" x2="7.87421" y2="16.1775" gradientUnits="userSpaceOnUse">
<stop stop-color="#4E8FE6"/>
<stop offset="1" stop-color="#C7677A"/>
</linearGradient>
<linearGradient id="paint11_linear_1095_269" x1="43.7563" y1="9.79429" x2="46.1262" y2="16.1775" gradientUnits="userSpaceOnUse">
<stop stop-color="#4E8FE6"/>
<stop offset="1" stop-color="#C7677A"/>
</linearGradient>
<linearGradient id="paint12_linear_1095_269" x1="7.19877" y1="20.3631" x2="7.38639" y2="21.955" gradientUnits="userSpaceOnUse">
<stop stop-color="#4E8FE6"/>
<stop offset="1" stop-color="#C7677A"/>
</linearGradient>
<linearGradient id="paint13_linear_1095_269" x1="7.19877" y1="30.3418" x2="7.38639" y2="31.9337" gradientUnits="userSpaceOnUse">
<stop stop-color="#4E8FE6"/>
<stop offset="1" stop-color="#C7677A"/>
</linearGradient>
<linearGradient id="paint14_linear_1095_269" x1="11.8895" y1="41.4278" x2="14.9462" y2="48.0968" gradientUnits="userSpaceOnUse">
<stop stop-color="#4E8FE6"/>
<stop offset="1" stop-color="#C7677A"/>
</linearGradient>
<linearGradient id="paint15_linear_1095_269" x1="20.8294" y1="41.3243" x2="23.4736" y2="43.1557" gradientUnits="userSpaceOnUse">
<stop stop-color="#4E8FE6"/>
<stop offset="1" stop-color="#C7677A"/>
</linearGradient>
<linearGradient id="paint16_linear_1095_269" x1="30.8079" y1="41.3243" x2="33.4521" y2="43.1557" gradientUnits="userSpaceOnUse">
<stop stop-color="#4E8FE6"/>
<stop offset="1" stop-color="#C7677A"/>
</linearGradient>
<linearGradient id="paint17_linear_1095_269" x1="42.9546" y1="30.3417" x2="43.1422" y2="31.9336" gradientUnits="userSpaceOnUse">
<stop stop-color="#4E8FE6"/>
<stop offset="1" stop-color="#C7677A"/>
</linearGradient>
<linearGradient id="paint18_linear_1095_269" x1="42.9546" y1="20.3631" x2="43.1422" y2="21.955" gradientUnits="userSpaceOnUse">
<stop stop-color="#4E8FE6"/>
<stop offset="1" stop-color="#C7677A"/>
</linearGradient>
<linearGradient id="paint19_linear_1095_269" x1="37.6688" y1="3.17637" x2="40.7255" y2="9.84539" gradientUnits="userSpaceOnUse">
<stop stop-color="#4E8FE6"/>
<stop offset="1" stop-color="#C7677A"/>
</linearGradient>
<linearGradient id="paint20_linear_1095_269" x1="30.8079" y1="5.56761" x2="33.4521" y2="7.39903" gradientUnits="userSpaceOnUse">
<stop stop-color="#4E8FE6"/>
<stop offset="1" stop-color="#C7677A"/>
</linearGradient>
<linearGradient id="paint21_linear_1095_269" x1="20.8294" y1="5.56755" x2="23.4736" y2="7.39897" gradientUnits="userSpaceOnUse">
<stop stop-color="#4E8FE6"/>
<stop offset="1" stop-color="#C7677A"/>
</linearGradient>
</defs>
</svg>
