<svg width="53" height="53" viewBox="0 0 53 53" fill="none" xmlns="http://www.w3.org/2000/svg">
<g clip-path="url(#clip0_1095_300)">
<path d="M26.5 53C41.1355 53 53 41.1355 53 26.5C53 11.8645 41.1355 0 26.5 0C11.8645 0 0 11.8645 0 26.5C0 41.1355 11.8645 53 26.5 53Z" fill="#13AA52"/>
<path d="M33.5838 23.262C31.9099 15.8746 27.9541 13.4456 27.5281 12.5176C27.0623 11.8629 26.5903 10.6983 26.5903 10.6983C26.5825 10.6787 26.5701 10.644 26.5556 10.6104C26.5075 11.2651 26.4826 11.5177 25.8636 12.1781C24.905 12.9275 19.987 17.0542 19.5869 25.4472C19.2138 33.2751 25.2415 37.9395 26.0567 38.5342L26.1493 38.5999V38.5942C26.1545 38.6336 26.4081 40.4575 26.5861 42.3902H27.2248C27.3747 41.024 27.5993 39.6672 27.8977 38.3256L27.9494 38.292C28.3141 38.0305 28.6617 37.7461 28.9903 37.4406L29.0276 37.4069C30.7604 35.8061 33.8757 32.1033 33.8452 26.1998C33.8387 25.215 33.7513 24.2325 33.5838 23.262ZM26.5183 34.1146C26.5183 34.1146 26.5183 23.1357 26.8806 23.1378C27.1632 23.1378 27.5292 37.2993 27.5292 37.2993C27.0261 37.2387 26.5183 34.9686 26.5183 34.1146Z" fill="white"/>
</g>
<defs>
<clipPath id="clip0_1095_300">
<rect width="53" height="53" fill="white"/>
</clipPath>
</defs>
</svg>
