<svg width="53" height="50" viewBox="0 0 53 50" fill="none" xmlns="http://www.w3.org/2000/svg">
<mask id="mask0_1095_238" style="mask-type:luminance" maskUnits="userSpaceOnUse" x="5" y="0" width="43" height="49">
<path d="M25.1488 1.13531L6.3361 11.9938C5.63146 12.4002 5.19922 13.1504 5.19922 13.9613V35.6935C5.19922 36.5048 5.63146 37.2546 6.3361 37.6609L25.1502 48.5279C25.8535 48.9329 26.7206 48.9329 27.423 48.5279L46.234 37.6609C46.935 37.2546 47.3682 36.5044 47.3682 35.6935V13.9613C47.3682 13.1504 46.9351 12.4002 46.2295 11.9938L27.4213 1.13531C27.0685 0.933026 26.6755 0.831665 26.2826 0.831665C25.8896 0.831665 25.4967 0.933026 25.1439 1.13531" fill="white"/>
</mask>
<g mask="url(#mask0_1095_238)">
<path d="M66.3813 10.15L13.3703 -15.8341L-13.8105 39.6145L39.1991 65.6L66.3813 10.15Z" fill="url(#paint0_linear_1095_238)"/>
</g>
<mask id="mask1_1095_238" style="mask-type:luminance" maskUnits="userSpaceOnUse" x="5" y="0" width="42" height="49">
<path d="M5.6543 37.0731C5.83425 37.3067 6.05931 37.5089 6.32411 37.6608L22.462 46.9823L25.1502 48.5273C25.5521 48.7595 26.0103 48.8577 26.4604 48.8243C26.6104 48.8122 26.7604 48.7841 26.9069 48.7425L46.7484 12.4121C46.5966 12.2468 46.4189 12.1084 46.2197 11.9923L33.9015 4.87895L27.3901 1.13248C27.2052 1.02531 27.0047 0.949398 26.8006 0.895813L5.6543 37.0731Z" fill="white"/>
</mask>
<g mask="url(#mask1_1095_238)">
<path d="M-17.2598 17.8352L20.1714 68.4965L69.6748 31.9222L32.2414 -18.7377L-17.2598 17.8352Z" fill="url(#paint1_linear_1095_238)"/>
</g>
<mask id="mask2_1095_238" style="mask-type:luminance" maskUnits="userSpaceOnUse" x="6" y="0" width="42" height="49">
<path d="M26.0526 0.84381C25.7369 0.875068 25.4283 0.973303 25.1439 1.13495L6.38477 11.9622L26.613 48.8062C26.8943 48.766 27.1712 48.6722 27.4212 48.5275L46.234 37.6606C46.8145 37.3239 47.2119 36.7541 47.3325 36.1084L26.7113 0.88087C26.5594 0.850951 26.4076 0.835327 26.2513 0.835327C26.1888 0.835327 26.1263 0.838448 26.0638 0.844253" fill="white"/>
</mask>
<g mask="url(#mask2_1095_238)">
<path d="M6.38477 0.835327V48.8071H47.3249V0.835327H6.38477Z" fill="url(#paint2_linear_1095_238)"/>
</g>
<defs>
<linearGradient id="paint0_linear_1095_238" x1="39.8599" y1="-2.8829" x2="12.6809" y2="52.562" gradientUnits="userSpaceOnUse">
<stop offset="0.3" stop-color="#3E863D"/>
<stop offset="0.5" stop-color="#55934F"/>
<stop offset="0.8" stop-color="#5AAD45"/>
</linearGradient>
<linearGradient id="paint1_linear_1095_238" x1="1.68014" y1="43.4562" x2="51.1855" y2="6.87767" gradientUnits="userSpaceOnUse">
<stop offset="0.57" stop-color="#3E863D"/>
<stop offset="0.72" stop-color="#619857"/>
<stop offset="1" stop-color="#76AC64"/>
</linearGradient>
<linearGradient id="paint2_linear_1095_238" x1="6.39858" y1="24.8225" x2="47.3326" y2="24.8225" gradientUnits="userSpaceOnUse">
<stop offset="0.16" stop-color="#6BBF47"/>
<stop offset="0.38" stop-color="#79B461"/>
<stop offset="0.47" stop-color="#75AC64"/>
<stop offset="0.7" stop-color="#659E5A"/>
<stop offset="0.9" stop-color="#3E863D"/>
</linearGradient>
</defs>
</svg>
