<svg width="216" height="191" viewBox="0 0 216 191" fill="none" xmlns="http://www.w3.org/2000/svg">
<rect width="215.86" height="190.663" rx="17.5188" fill="white"/>
<path d="M33.7036 139.851V147.557H29.1973V125.683H37.7255C39.3654 125.683 40.8142 125.985 42.0585 126.585C43.3029 127.185 44.2628 128.043 44.9339 129.145C45.6049 130.251 45.9382 131.513 45.9382 132.922C45.9382 135.064 45.205 136.757 43.7384 137.993C42.2719 139.228 40.2453 139.851 37.65 139.851H33.7036ZM33.7036 136.197H37.7255C38.9165 136.197 39.8276 135.917 40.4542 135.358C41.0808 134.798 41.3919 133.993 41.3919 132.953C41.3919 131.882 41.0764 131.016 40.4453 130.353C39.8143 129.691 38.9432 129.354 37.8277 129.336H33.7036V136.197ZM56.2308 147.859C53.8443 147.859 51.9067 147.126 50.409 145.663C48.9114 144.201 48.1647 142.255 48.1647 139.819V139.397C48.1647 137.766 48.4758 136.309 49.1069 135.02C49.738 133.731 50.6357 132.74 51.7911 132.047C52.9466 131.349 54.2665 131.002 55.7464 131.002C57.9729 131.002 59.7194 131.704 60.9993 133.104C62.2748 134.509 62.9148 136.491 62.9148 139.064V140.837H52.5644C52.7066 141.899 53.1288 142.753 53.8354 143.393C54.5421 144.032 55.4353 144.357 56.5152 144.357C58.1862 144.357 59.4972 143.752 60.4349 142.535L62.5681 144.926C61.9148 145.846 61.0394 146.566 59.9239 147.081C58.8129 147.601 57.5818 147.859 56.2308 147.859ZM55.7331 134.518C54.8709 134.518 54.1732 134.811 53.6399 135.389C53.1022 135.966 52.76 136.797 52.6089 137.882H58.6484V137.535C58.6306 136.575 58.3684 135.829 57.8663 135.309C57.3685 134.78 56.653 134.518 55.7331 134.518ZM72.8563 147.859C70.4742 147.859 68.5321 147.126 67.0345 145.663C65.5412 144.201 64.7902 142.255 64.7902 139.819V139.397C64.7902 137.766 65.1057 136.309 65.7368 135.02C66.3634 133.731 67.2611 132.74 68.4166 132.047C69.5765 131.349 70.892 131.002 72.3719 131.002C74.5984 131.002 76.3493 131.704 77.6248 133.104C78.9002 134.509 79.5402 136.491 79.5402 139.064V140.837H69.1899C69.3321 141.899 69.7543 142.753 70.4609 143.393C71.1675 144.032 72.0608 144.357 73.1407 144.357C74.8161 144.357 76.1227 143.752 77.0604 142.535L79.1936 144.926C78.5403 145.846 77.6648 146.566 76.5538 147.081C75.4383 147.601 74.2073 147.859 72.8563 147.859ZM72.3585 134.518C71.4963 134.518 70.7986 134.811 70.2653 135.389C69.7276 135.966 69.3854 136.797 69.2343 137.882H75.2739V137.535C75.2561 136.575 74.9939 135.829 74.4917 135.309C73.9939 134.78 73.2829 134.518 72.3585 134.518ZM96.6323 139.579C96.6323 142.086 96.0634 144.09 94.9257 145.597C93.7925 147.103 92.2548 147.859 90.3216 147.859C88.6817 147.859 87.353 147.29 86.3441 146.143V153.805H82.0022V131.305H86.0286L86.1797 132.896C87.233 131.629 88.6017 131.002 90.2905 131.002C92.2948 131.002 93.8547 131.744 94.9657 133.224C96.0768 134.709 96.6323 136.749 96.6323 139.353V139.579ZM92.2904 139.259C92.2904 137.748 92.0237 136.584 91.486 135.758C90.9527 134.94 90.175 134.526 89.1528 134.526C87.7885 134.526 86.8552 135.051 86.3441 136.091V142.748C86.873 143.819 87.8196 144.357 89.1839 144.357C91.2549 144.357 92.2904 142.659 92.2904 139.259ZM109.054 145.903C107.978 147.206 106.498 147.859 104.605 147.859C102.863 147.859 101.534 147.357 100.619 146.357C99.7032 145.357 99.2321 143.886 99.2143 141.953V131.305H103.556V141.802C103.556 143.495 104.329 144.339 105.867 144.339C107.338 144.339 108.356 143.828 108.902 142.806V131.305H113.262V147.557H109.174L109.054 145.903ZM121.115 147.557H116.755V124.483H121.115V147.557ZM144.98 143.05H137.078L135.576 147.557H130.79L138.927 125.683H143.104L151.29 147.557H146.5L144.98 143.05ZM138.296 139.397H143.767L141.016 131.211L138.296 139.397ZM152.415 139.313C152.415 136.815 153.01 134.806 154.192 133.282C155.383 131.758 156.983 131.002 158.992 131.002C160.774 131.002 162.165 131.611 163.156 132.838L163.334 131.305H167.271V147.01C167.271 148.437 166.947 149.672 166.303 150.725C165.658 151.774 164.747 152.574 163.574 153.13C162.401 153.676 161.032 153.952 159.459 153.952C158.268 153.952 157.103 153.716 155.979 153.241C154.846 152.765 153.988 152.152 153.41 151.401L155.33 148.761C156.415 149.97 157.721 150.574 159.263 150.574C160.419 150.574 161.312 150.268 161.956 149.65C162.596 149.037 162.912 148.161 162.912 147.032V146.161C161.912 147.294 160.596 147.859 158.965 147.859C157.014 147.859 155.432 147.094 154.224 145.566C153.019 144.037 152.415 142.015 152.415 139.491V139.313ZM156.757 139.624C156.757 141.095 157.054 142.25 157.641 143.086C158.232 143.921 159.041 144.339 160.072 144.339C161.396 144.339 162.343 143.841 162.912 142.855V136.015C162.334 135.024 161.396 134.526 160.103 134.526C159.063 134.526 158.241 134.953 157.65 135.806C157.054 136.655 156.757 137.926 156.757 139.624ZM179.737 135.366C179.146 135.291 178.622 135.251 178.177 135.251C176.529 135.251 175.453 135.806 174.946 136.917V147.557H170.605V131.305H174.706L174.822 133.242C175.693 131.749 176.897 131.002 178.444 131.002C178.924 131.002 179.377 131.069 179.795 131.193L179.737 135.366ZM186.403 147.557H182.048V131.305H186.403V147.557ZM181.79 127.1C181.79 126.447 182.013 125.909 182.448 125.487C182.884 125.069 183.479 124.861 184.226 124.861C184.968 124.861 185.559 125.069 185.999 125.487C186.439 125.909 186.661 126.447 186.661 127.1C186.661 127.754 186.435 128.3 185.99 128.718C185.546 129.14 184.959 129.349 184.226 129.349C183.493 129.349 182.91 129.14 182.461 128.718C182.017 128.3 181.79 127.754 181.79 127.1Z" fill="#05A155"/>
<path fill-rule="evenodd" clip-rule="evenodd" d="M84.6588 70.5625C82.4323 71.8468 79.6014 71.9401 77.2105 70.5625C74.824 69.1848 73.4908 66.6827 73.4863 64.114C75.7173 62.8297 78.5482 62.7364 80.9347 64.114C83.3212 65.4917 84.6588 67.9938 84.6588 70.5625Z" fill="#05A155"/>
<path fill-rule="evenodd" clip-rule="evenodd" d="M79.8056 84.0594C78.5212 86.286 76.1125 87.7836 73.3571 87.7836C70.6018 87.7836 68.1931 86.286 66.9043 84.0594C68.1931 81.8374 70.6018 80.3397 73.3571 80.3397C76.1125 80.3397 78.5212 81.8374 79.8056 84.0594Z" fill="#05A155"/>
<path fill-rule="evenodd" clip-rule="evenodd" d="M107.926 56.7411C110.424 55.2923 112.108 52.5903 112.108 49.4927C112.108 46.3996 110.424 43.6976 107.926 42.2488C105.424 43.6976 103.744 46.3996 103.744 49.4927C103.744 52.5903 105.424 55.2923 107.926 56.7411Z" fill="#05A155"/>
<path fill-rule="evenodd" clip-rule="evenodd" d="M132.275 70.0024C134.502 71.2868 137.333 71.3801 139.724 70.0024C142.11 68.6247 143.443 66.1227 143.448 63.554C141.217 62.2696 138.386 62.1763 136 63.554C133.613 64.9317 132.275 67.4337 132.275 70.0024Z" fill="#05A155"/>
<path fill-rule="evenodd" clip-rule="evenodd" d="M136.035 84.0594C137.324 86.286 139.728 87.7836 142.488 87.7836C145.243 87.7836 147.648 86.286 148.936 84.0594C147.648 81.8374 145.243 80.3397 142.488 80.3397C139.728 80.3397 137.324 81.8374 136.035 84.0594Z" fill="#05A155"/>
<path fill-rule="evenodd" clip-rule="evenodd" d="M98.5754 49.173C100.393 47.3553 101.215 44.64 100.504 41.978C99.7887 39.3159 97.7222 37.3783 95.2379 36.7117C93.4203 38.5338 92.5981 41.2447 93.3092 43.9067C94.0247 46.5687 96.0956 48.5064 98.5754 49.173Z" fill="#05A155"/>
<path fill-rule="evenodd" clip-rule="evenodd" d="M82.3853 58.5233C83.0475 56.0346 82.4075 53.2748 80.4566 51.3283C78.51 49.3773 75.7458 48.7373 73.2615 49.3995C72.5994 51.8838 73.2438 54.6436 75.1903 56.5945C77.1412 58.5411 79.901 59.1855 82.3853 58.5233Z" fill="#05A155"/>
<path fill-rule="evenodd" clip-rule="evenodd" d="M73.0394 74.713C72.3684 72.2288 70.4307 70.1578 67.7687 69.4468C65.1067 68.7313 62.3958 69.5579 60.5781 71.3755C61.2447 73.8553 63.1824 75.9263 65.8444 76.6418C68.5064 77.3529 71.2173 76.5307 73.0394 74.713Z" fill="#05A155"/>
<path fill-rule="evenodd" clip-rule="evenodd" d="M73.0394 93.4091C71.2173 91.5914 68.5064 90.7692 65.8444 91.4803C63.1824 92.1958 61.2447 94.2623 60.5781 96.7466C62.3958 98.5642 65.1067 99.3864 67.7687 98.6753C70.4307 97.9598 72.3684 95.8933 73.0394 93.4091Z" fill="#05A155"/>
<path fill-rule="evenodd" clip-rule="evenodd" d="M117.274 49.173C119.759 48.5064 121.83 46.5687 122.541 43.9067C123.256 41.2447 122.43 38.5338 120.616 36.7117C118.132 37.3783 116.061 39.3159 115.35 41.978C114.635 44.64 115.461 47.3553 117.274 49.173Z" fill="#05A155"/>
<path fill-rule="evenodd" clip-rule="evenodd" d="M133.465 58.5233C135.95 59.1855 138.709 58.5411 140.656 56.5945C142.607 54.6436 143.247 51.8838 142.585 49.3995C140.1 48.7373 137.341 49.3773 135.39 51.3283C133.443 53.2748 132.799 56.0346 133.465 58.5233Z" fill="#05A155"/>
<path fill-rule="evenodd" clip-rule="evenodd" d="M142.811 74.7132C144.633 76.5308 147.344 77.353 150.006 76.6375C152.668 75.9264 154.605 73.8554 155.272 71.3756C153.454 69.558 150.739 68.7314 148.077 69.4469C145.415 70.1579 143.477 72.2289 142.811 74.7132Z" fill="#05A155"/>
<path fill-rule="evenodd" clip-rule="evenodd" d="M142.811 93.4092C143.477 95.8934 145.415 97.96 148.077 98.6755C150.739 99.3865 153.454 98.5644 155.272 96.7467C154.605 94.2624 152.668 92.1959 150.006 91.4804C147.344 90.7694 144.633 91.5915 142.811 93.4092Z" fill="#05A155"/>
<path fill-rule="evenodd" clip-rule="evenodd" d="M96.251 64.4473C93.1134 64.4473 90.0648 62.8163 88.3849 59.9054C86.7006 56.9945 86.8161 53.5369 88.3804 50.8171C91.518 50.8216 94.5711 52.4481 96.251 55.3635C97.9308 58.2744 97.8197 61.7319 96.251 64.4473Z" fill="#05A155"/>
<path fill-rule="evenodd" clip-rule="evenodd" d="M119.595 64.4473C122.733 64.4473 125.786 62.8163 127.466 59.9054C129.146 56.9945 129.035 53.5369 127.466 50.8171C124.328 50.8216 121.28 52.4481 119.6 55.3635C117.915 58.2744 118.031 61.7319 119.595 64.4473Z" fill="#05A155"/>
<path fill-rule="evenodd" clip-rule="evenodd" d="M132.275 98.12C132.275 100.689 133.613 103.191 136 104.568C138.386 105.946 141.217 105.853 143.448 104.568C143.443 101.995 142.11 99.4977 139.724 98.12C137.333 96.7423 134.502 96.8357 132.275 98.12Z" fill="#05A155"/>
<path fill-rule="evenodd" clip-rule="evenodd" d="M83.5787 98.12C83.5743 100.689 82.2411 103.191 79.8546 104.568C77.4681 105.946 74.6328 105.853 72.4062 104.568C72.4062 101.995 73.7439 99.4977 76.1304 98.12C78.5169 96.7423 81.3522 96.8357 83.5787 98.12Z" fill="#05A155"/>
<path d="M124.902 95.485H120.365L115.747 100.098V113.679H140.319V116.883H112.543V98.7736L119.036 92.2808H124.902V95.485Z" fill="#A05148"/>
<path d="M106.809 92.5164L113.253 86.0725V77.5442L116.683 74.1089L118.937 76.3754L116.457 78.8552V86.7346L115.986 87.8679L109.075 94.7829L106.809 92.5164Z" fill="#A05148"/>
<path d="M128.844 82.0367L122.542 88.3385H114.85V85.1343H121.218L126.578 79.7747L128.844 82.0367Z" fill="#A05148"/>
<path d="M127.724 92.2277C127.497 92.2277 127.284 92.2677 127.097 92.3477C126.902 92.4277 126.724 92.5477 126.569 92.7032C126.271 93.001 126.089 93.4098 126.089 93.8587C126.089 94.0898 126.133 94.3031 126.209 94.4898C126.289 94.6809 126.413 94.8631 126.569 95.0186C126.724 95.1697 126.902 95.2941 127.097 95.3741C127.284 95.4497 127.497 95.4941 127.724 95.4941C127.955 95.4941 128.164 95.4497 128.355 95.3741C128.546 95.2941 128.724 95.1697 128.879 95.0186C129.035 94.8631 129.159 94.6809 129.239 94.4898C129.315 94.3031 129.359 94.0898 129.359 93.8587C129.359 93.6365 129.315 93.4232 129.239 93.2365V93.2321C129.159 93.041 129.035 92.8588 128.879 92.7032C128.724 92.5477 128.546 92.4277 128.355 92.3477C128.164 92.2677 127.955 92.2277 127.724 92.2277ZM126.195 90.1567C126.671 89.9568 127.191 89.8501 127.724 89.8501C128.262 89.8501 128.777 89.9568 129.253 90.1567C129.75 90.3612 130.195 90.6589 130.559 91.0233C130.924 91.3878 131.221 91.8277 131.426 92.3255H131.43C131.626 92.801 131.737 93.321 131.737 93.8587C131.737 94.3964 131.626 94.912 131.43 95.3919C131.221 95.8897 130.924 96.3341 130.559 96.6985C130.195 97.0629 129.755 97.3607 129.253 97.5651C128.777 97.7606 128.262 97.8717 127.724 97.8717C127.191 97.8717 126.671 97.7606 126.195 97.5651C125.697 97.3607 125.253 97.0629 124.889 96.6985C124.524 96.3341 124.226 95.8897 124.018 95.3919C123.822 94.912 123.711 94.3964 123.711 93.8587C123.711 92.7521 124.16 91.7477 124.889 91.0233C125.253 90.6589 125.697 90.3612 126.195 90.1567Z" fill="#A05148"/>
<path d="M129.708 77.2729C129.481 77.2729 129.268 77.3173 129.081 77.3973C128.89 77.4728 128.708 77.5973 128.552 77.7528C128.397 77.9084 128.277 78.0861 128.197 78.2817C128.117 78.4683 128.077 78.6817 128.077 78.9083C128.077 79.1394 128.117 79.3483 128.197 79.5394C128.277 79.7305 128.397 79.9082 128.552 80.0638C128.708 80.2193 128.89 80.3438 129.081 80.4238C129.268 80.4993 129.481 80.5437 129.708 80.5437C129.939 80.5437 130.152 80.4993 130.339 80.4238C130.53 80.3438 130.708 80.2193 130.863 80.0638C131.019 79.9082 131.143 79.7305 131.223 79.5394C131.299 79.3483 131.343 79.1394 131.343 78.9083C131.343 78.6817 131.299 78.4683 131.223 78.2817C131.143 78.0861 131.019 77.9084 130.863 77.7528C130.708 77.5973 130.53 77.4728 130.339 77.3973C130.152 77.3173 129.939 77.2729 129.708 77.2729ZM128.179 75.2019C128.655 75.0064 129.175 74.8953 129.708 74.8953C130.246 74.8953 130.761 75.0064 131.241 75.2019C131.739 75.4108 132.183 75.7085 132.548 76.073C132.912 76.4374 133.21 76.8818 133.414 77.3795C133.614 77.855 133.721 78.375 133.721 78.9083C133.721 79.446 133.614 79.9616 133.414 80.4371C133.21 80.9393 132.912 81.3792 132.548 81.7436C132.183 82.1081 131.739 82.4058 131.241 82.6147C130.761 82.8102 130.246 82.9213 129.708 82.9213C129.175 82.9213 128.655 82.8102 128.179 82.6147C127.681 82.4058 127.237 82.1081 126.872 81.7436C126.508 81.3792 126.21 80.9393 126.006 80.4371C125.806 79.9616 125.699 79.446 125.699 78.9083C125.699 78.375 125.806 77.855 126.006 77.3795C126.21 76.8818 126.508 76.4374 126.872 76.073C127.237 75.7085 127.681 75.4108 128.179 75.2019Z" fill="#A05148"/>
<path d="M119.804 71.6112C119.577 71.6112 119.369 71.6557 119.182 71.7312H119.177C118.982 71.8112 118.804 71.9357 118.649 72.0912C118.493 72.2468 118.369 72.4245 118.289 72.6156C118.213 72.8067 118.169 73.0156 118.169 73.2467C118.169 73.4733 118.213 73.6867 118.289 73.8733C118.369 74.0688 118.493 74.2466 118.649 74.4022C118.942 74.6999 119.351 74.8821 119.804 74.8821C120.035 74.8821 120.244 74.8377 120.435 74.7621C120.626 74.6821 120.804 74.5577 120.96 74.4022C121.115 74.2466 121.24 74.0688 121.319 73.8733C121.395 73.6867 121.439 73.4733 121.439 73.2467C121.439 73.0156 121.395 72.8067 121.319 72.6156C121.24 72.4245 121.115 72.2468 120.96 72.0912C120.804 71.9357 120.626 71.8112 120.435 71.7312C120.244 71.6557 120.035 71.6112 119.804 71.6112ZM118.271 69.5447V69.5403C118.746 69.3447 119.266 69.2336 119.804 69.2336C120.342 69.2336 120.857 69.3447 121.333 69.5403C121.831 69.7492 122.275 70.0469 122.639 70.4113C123.004 70.7757 123.302 71.2202 123.51 71.7179C123.706 72.1934 123.817 72.7089 123.817 73.2467C123.817 73.7844 123.706 74.2999 123.51 74.7755C123.302 75.2732 123.004 75.7176 122.639 76.082C122.275 76.4465 121.835 76.7442 121.333 76.9531C120.857 77.1486 120.342 77.2597 119.804 77.2597C118.697 77.2597 117.693 76.8109 116.969 76.082C116.604 75.7176 116.307 75.2732 116.098 74.7755C115.902 74.2999 115.791 73.7844 115.791 73.2467C115.791 72.7089 115.902 72.1934 116.098 71.7179C116.307 71.2157 116.604 70.7757 116.969 70.4113C117.333 70.0469 117.773 69.7492 118.271 69.5447Z" fill="#A05148"/>
<path d="M107.898 64.2117C107.667 64.2117 107.453 64.2561 107.267 64.3317C107.076 64.4117 106.898 64.5361 106.742 64.6917L106.738 64.6872C106.587 64.8428 106.467 65.0205 106.382 65.2161C106.307 65.4027 106.262 65.6161 106.262 65.8471C106.262 66.0738 106.307 66.2871 106.382 66.4738C106.462 66.6693 106.587 66.8471 106.742 67.0026C106.898 67.1582 107.076 67.2782 107.267 67.3581C107.453 67.4381 107.667 67.4826 107.898 67.4826C108.124 67.4826 108.338 67.4381 108.524 67.3581C108.716 67.2826 108.898 67.1582 109.053 67.0026C109.209 66.8471 109.329 66.6693 109.409 66.4738C109.489 66.2871 109.533 66.0738 109.533 65.8471C109.533 65.6161 109.489 65.4027 109.409 65.2161C109.329 65.0205 109.209 64.8428 109.053 64.6872V64.6917C108.898 64.5361 108.716 64.4117 108.524 64.3317C108.338 64.2561 108.124 64.2117 107.898 64.2117ZM106.369 62.1408C106.845 61.9452 107.36 61.8341 107.898 61.8341C108.431 61.8341 108.951 61.9452 109.427 62.1408C109.924 62.3452 110.369 62.6474 110.733 63.0074V63.0118C111.098 63.3807 111.4 63.8251 111.6 64.3184C111.8 64.7939 111.906 65.3094 111.906 65.8471C111.906 66.3804 111.8 66.9004 111.6 67.3759C111.395 67.8737 111.098 68.3181 110.733 68.6825C110.369 69.0469 109.924 69.3447 109.427 69.5491C108.951 69.7491 108.431 69.8557 107.898 69.8557C107.36 69.8557 106.845 69.7491 106.369 69.5491C105.867 69.3447 105.427 69.0469 105.062 68.6825C104.694 68.3181 104.4 67.8737 104.191 67.3759C103.996 66.9004 103.885 66.3804 103.885 65.8471C103.885 65.3094 103.996 64.7939 104.191 64.3184C104.396 63.8251 104.694 63.3807 105.062 63.0118V63.0074C105.427 62.6474 105.867 62.3452 106.369 62.1408Z" fill="#A05148"/>
<path d="M106.289 116.883V68.6687H109.502V116.883H106.289Z" fill="#A05148"/>
<path d="M75.5332 113.679H100.06V105.578L96.2828 101.8H93.403V98.5961H97.6116L103.264 104.254V116.884H75.5332V113.679Z" fill="#A05148"/>
<path d="M90.5814 98.5293C90.3547 98.5293 90.1414 98.5738 89.9548 98.6538C89.7592 98.7293 89.5815 98.8538 89.4259 99.0093C89.2704 99.1648 89.1459 99.3426 89.066 99.5382C88.9904 99.7248 88.946 99.9381 88.946 100.165C88.946 100.396 88.9904 100.605 89.066 100.796C89.1459 100.987 89.2704 101.165 89.4259 101.32C89.5815 101.476 89.7592 101.6 89.9548 101.68C90.1414 101.756 90.3547 101.8 90.5814 101.8C90.8125 101.8 91.0214 101.756 91.2125 101.68C91.4036 101.6 91.5813 101.476 91.7369 101.32C91.8924 101.165 92.0168 100.987 92.0968 100.796C92.1724 100.605 92.2168 100.396 92.2168 100.165C92.2168 99.9381 92.1724 99.7248 92.0968 99.5382C92.0168 99.3426 91.8924 99.1648 91.7369 99.0093C91.5813 98.8538 91.4036 98.7293 91.2125 98.6538C91.0214 98.5738 90.8125 98.5293 90.5814 98.5293ZM89.0526 96.4584C89.5281 96.2628 90.0437 96.1517 90.5814 96.1517C91.1191 96.1517 91.6347 96.2628 92.1102 96.4584C92.6079 96.6673 93.0523 96.965 93.4167 97.3294C93.7812 97.6938 94.0789 98.1383 94.2878 98.636C94.4833 99.1115 94.5944 99.6315 94.5944 100.165C94.5944 100.703 94.4833 101.218 94.2878 101.694C94.0789 102.196 93.7812 102.636 93.4167 103C93.0523 103.365 92.6079 103.662 92.1102 103.871C91.6347 104.067 91.1191 104.178 90.5814 104.178C90.0437 104.178 89.5281 104.067 89.0526 103.871C88.5549 103.662 88.1105 103.365 87.746 103C87.3816 102.636 87.0839 102.196 86.875 101.694C86.6795 101.218 86.5684 100.703 86.5684 100.165C86.5684 99.6315 86.6795 99.1115 86.875 98.636C87.0839 98.1383 87.3816 97.6938 87.746 97.3294C88.1105 96.965 88.5549 96.6673 89.0526 96.4584Z" fill="#A05148"/>
<path d="M106.735 101.307L98.665 92.734L98.2294 91.6407V82.5703L94.252 76.9529L96.8562 75.113L101.434 81.5792V91.0096L109.064 99.1157L106.735 101.307Z" fill="#A05148"/>
<path d="M90.2617 87.0721L92.8571 90.0364H99.8254V93.2406H91.4172L87.8574 89.1742L90.2617 87.0721Z" fill="#A05148"/>
<path d="M87.4726 81.9969C88.0148 82.0325 88.5258 82.1791 88.9836 82.4058C89.4591 82.6413 89.8768 82.9657 90.2235 83.3613C90.5657 83.7523 90.8368 84.2145 91.0056 84.7212C91.1701 85.2056 91.2456 85.73 91.2101 86.2677C91.1745 86.8055 91.0279 87.3165 90.8012 87.7743C90.5657 88.2498 90.2413 88.672 89.8457 89.0142C89.4502 89.3608 88.9925 89.6319 88.4903 89.8008H88.4858C88.0014 89.9608 87.477 90.0363 86.9393 90.0008C86.4015 89.9652 85.8905 89.823 85.4327 89.5964C84.9572 89.3608 84.535 89.032 84.1928 88.6364C83.8462 88.2453 83.5795 87.7876 83.4107 87.281L83.4062 87.2854C83.2418 86.7966 83.1707 86.2722 83.2062 85.7344C83.2418 85.1922 83.384 84.6812 83.6106 84.2234C83.8462 83.7479 84.175 83.3257 84.5661 82.9835C84.9616 82.6369 85.4238 82.3702 85.9216 82.2013H85.926C86.4149 82.0369 86.9348 81.9614 87.4726 81.9969ZM87.9348 84.5301C87.7481 84.4412 87.5392 84.379 87.317 84.3656C87.0948 84.3523 86.8815 84.379 86.686 84.4456C86.4771 84.5167 86.286 84.6278 86.1305 84.7656C85.9705 84.9078 85.8371 85.0767 85.7394 85.2722C85.646 85.4589 85.5883 85.6678 85.5749 85.89C85.5616 86.1122 85.5883 86.3255 85.6549 86.521V86.5255C85.726 86.7299 85.8327 86.9165 85.9749 87.0765C86.1127 87.2365 86.286 87.3698 86.4815 87.4676C86.6682 87.5609 86.8771 87.6187 87.0993 87.632C87.3215 87.6454 87.5348 87.6187 87.7303 87.5521C87.9392 87.481 88.1259 87.3698 88.2859 87.2321C88.4458 87.0943 88.5792 86.921 88.6769 86.7255C88.7658 86.5388 88.8236 86.3299 88.8414 86.1077C88.8547 85.8855 88.8236 85.6678 88.7569 85.4722C88.6903 85.2678 88.5792 85.0811 88.4414 84.9211C88.2992 84.7612 88.1303 84.6278 87.9348 84.5301Z" fill="#A05148"/>
<path d="M94.5969 69.7757C95.1302 69.8646 95.6235 70.0601 96.059 70.3357C96.5034 70.6157 96.89 70.9845 97.1922 71.4156C97.4944 71.8422 97.7166 72.3311 97.8322 72.8422C97.9477 73.3443 97.9655 73.8732 97.8766 74.402C97.7833 74.9353 97.5877 75.4286 97.3167 75.8642C97.0322 76.313 96.6634 76.6952 96.2412 76.9974H96.2367C95.8057 77.2996 95.3213 77.5218 94.8057 77.6374C94.308 77.7529 93.7791 77.7707 93.2458 77.6818C92.7126 77.5885 92.2193 77.3929 91.7882 77.1174C91.3349 76.833 90.9482 76.4641 90.646 76.0375H90.6505C90.3483 75.6153 90.1305 75.1264 90.0105 74.6109C89.8994 74.1087 89.8772 73.5799 89.9705 73.051C90.0594 72.5177 90.255 72.0244 90.5305 71.5889C90.8105 71.1445 91.1793 70.7579 91.6104 70.4557V70.4512C92.0326 70.1535 92.517 69.9357 93.037 69.8157C93.5392 69.7046 94.068 69.6824 94.5969 69.7757ZM94.7968 72.34C94.6235 72.2289 94.4191 72.1533 94.2013 72.1133C93.9747 72.0778 93.7614 72.0822 93.5614 72.1311C93.3525 72.1755 93.1525 72.2689 92.9748 72.3933L92.9703 72.3889C92.8014 72.5088 92.6548 72.6688 92.5348 72.8555C92.4281 73.0288 92.3481 73.2288 92.3126 73.451C92.2726 73.6732 92.2815 73.891 92.3259 74.091C92.3704 74.2998 92.4592 74.4954 92.5837 74.6687L92.5881 74.6731C92.7126 74.8509 92.8681 74.9976 93.0503 75.1131C93.2236 75.2242 93.4236 75.2998 93.6458 75.3398C93.868 75.3753 94.0858 75.3709 94.2858 75.3264C94.4991 75.2775 94.6946 75.1887 94.8679 75.0687V75.0642C95.0413 74.9398 95.1924 74.7798 95.3079 74.5976C95.419 74.4243 95.499 74.2243 95.5346 74.0021C95.5746 73.7799 95.5657 73.5621 95.5212 73.3621C95.4723 73.1488 95.3835 72.9488 95.259 72.7799C95.139 72.6066 94.9835 72.4555 94.7968 72.34Z" fill="#A05148"/>
</svg>
