<svg width="53" height="53" viewBox="0 0 53 53" fill="none" xmlns="http://www.w3.org/2000/svg">
<path d="M37.0264 34.9844C37.2809 32.865 37.2047 32.5549 38.7839 32.8986L39.1716 32.9335C40.3864 32.9891 41.9721 32.7397 42.9065 32.3054C44.9135 31.375 46.1037 29.819 44.1252 30.2274C39.6097 31.1578 39.2996 29.6303 39.2996 29.6303C44.0683 22.5561 46.0585 13.5756 44.3397 11.3787C39.6485 5.38222 31.5249 8.2189 31.3905 8.29256L31.3478 8.30032C30.4561 8.11551 29.4572 8.00308 28.3367 7.98628C26.2948 7.95268 24.744 8.52131 23.5551 9.41431C23.5551 9.41431 9.06539 3.44372 9.72707 16.9228C9.86923 19.7892 13.8367 38.6159 18.5666 32.9296C20.2958 30.849 21.9655 29.0914 21.9655 29.0914C22.7952 29.6432 23.7748 29.9237 24.8306 29.8229L24.9107 29.7544C24.8865 30.0243 24.8974 30.2962 24.943 30.5634C23.7243 31.9242 24.0823 32.1659 21.6476 32.666C19.1831 33.1739 20.6305 34.0785 21.5765 34.315C22.7228 34.6019 25.376 35.0077 27.1658 32.4993L27.0948 32.7862C27.5729 33.1687 27.5406 35.535 27.6078 37.2254C27.675 38.9157 27.7887 40.495 28.1338 41.4254C28.4789 42.3559 28.8834 44.7519 32.0883 44.0657C34.7635 43.4919 36.8105 42.6674 36.9966 34.9896" fill="white"/>
<path d="M37.0264 34.9844C37.2809 32.865 37.2047 32.5549 38.7839 32.8986L39.1716 32.9335C40.3864 32.9891 41.9721 32.7397 42.9065 32.3054C44.9135 31.375 46.1037 29.819 44.1252 30.2274C39.6097 31.1578 39.2996 29.6303 39.2996 29.6303C44.0683 22.5561 46.0585 13.5756 44.3397 11.3787C39.6485 5.38222 31.5249 8.2189 31.3905 8.29256L31.3478 8.30032C30.4561 8.11551 29.4572 8.00308 28.3367 7.98628C26.2948 7.95268 24.744 8.52131 23.5551 9.41431C23.5551 9.41431 9.06539 3.44372 9.72707 16.9228C9.86923 19.7892 13.8367 38.6159 18.5666 32.9296C20.2958 30.849 21.9655 29.0914 21.9655 29.0914C22.7952 29.6432 23.7748 29.9237 24.8306 29.8229L24.9107 29.7544C24.8865 30.0243 24.8974 30.2962 24.943 30.5634C23.7243 31.9242 24.0823 32.1659 21.6476 32.666C19.1831 33.1739 20.6305 34.0785 21.5765 34.315C22.7228 34.6019 25.376 35.0077 27.1658 32.4993L27.0948 32.7862C27.5729 33.1687 27.5406 35.535 27.6078 37.2254C27.675 38.9157 27.7887 40.495 28.1338 41.4254C28.4789 42.3559 28.8834 44.7519 32.0883 44.0657C34.7635 43.4919 36.8105 42.6674 36.9966 34.9896" stroke="white" stroke-width="3.35749"/>
<path d="M44.1362 30.2272C39.6208 31.1577 39.3106 29.6301 39.3106 29.6301C44.0793 22.5559 46.0695 13.5755 44.3507 11.3772C39.6596 5.38076 31.5359 8.21743 31.4015 8.2911L31.3576 8.29885C30.4659 8.11405 29.4669 8.00161 28.3465 7.98481C26.3046 7.95121 24.7538 8.51984 23.5648 9.41284C23.5648 9.41284 9.07516 3.44226 9.73683 16.9213C9.87899 19.7903 13.8465 38.6145 18.5764 32.9282C20.3056 30.8475 21.9753 29.0899 21.9753 29.0899C22.8049 29.6418 23.7974 29.9222 24.8391 29.8214L24.9205 29.7529C24.8946 30.0114 24.9076 30.2634 24.9528 30.5619C23.7341 31.9227 24.0921 32.1644 21.6573 32.6645C19.1929 33.1724 20.6403 34.0771 21.5863 34.3136C22.7326 34.6005 25.3857 35.0063 27.1756 32.4978L27.1045 32.7847C27.5827 33.1673 27.9187 35.2725 27.8605 37.1787C27.8024 39.0849 27.7675 40.3966 28.1449 41.4201C28.5222 42.4436 28.8944 44.7466 32.0994 44.0603C34.7745 43.4866 36.1625 42.0004 36.3551 39.5217C36.492 37.7589 36.8022 38.02 36.8203 36.4459L37.0684 35.7002C37.3553 33.3094 37.1137 32.5405 38.7614 32.8997L39.1491 32.9346C40.3639 32.9902 41.9509 32.7408 42.8839 32.3066C44.8909 31.3761 46.0812 29.8201 44.1026 30.2285L44.1362 30.2272Z" fill="#417BA2"/>
<path d="M27.3986 31.5971C27.2745 36.0427 27.4296 40.5181 27.8639 41.6062C28.2981 42.6944 29.2298 44.8112 32.4335 44.1237C35.1087 43.5499 36.0831 42.4398 36.5044 39.9882L37.493 32.1528M23.5733 9.31337C23.5733 9.31337 9.0733 3.38672 9.74531 16.8632C9.87455 19.7322 13.8549 38.5576 18.5849 32.8713C20.314 30.8036 21.8765 29.1623 21.8765 29.1623M31.3919 8.23168C30.875 8.38935 39.4561 5.10035 44.3256 11.3333C46.0444 13.5303 44.0671 22.512 39.2855 29.5862" stroke="white" stroke-width="1.11916" stroke-linecap="round" stroke-linejoin="round"/>
<path d="M39.2869 29.5745C39.2869 29.5745 39.5971 31.1034 44.1138 30.1716C46.0911 29.7632 44.8892 31.3179 42.8951 32.2497C41.2487 33.0121 37.5578 33.2099 37.4958 32.154C37.3407 29.4272 39.4394 30.2569 39.2869 29.5745ZM39.2869 29.5745C39.1499 28.9594 38.2117 28.3559 37.5914 26.8516C37.0486 25.5373 30.1605 15.4635 39.504 16.96C39.8465 16.889 37.0667 8.07265 28.3228 7.9292C19.5788 7.78575 19.8683 18.6814 19.8683 18.6814" stroke="white" stroke-width="1.11916" stroke-linecap="round" stroke-linejoin="bevel"/>
<path d="M24.9511 30.5052C23.7325 31.866 24.0904 32.1077 21.6557 32.6078C19.1912 33.1157 20.6386 34.0204 21.5846 34.2569C22.7309 34.5438 25.3841 34.9496 27.174 32.4411C27.7193 31.6787 27.1714 30.4587 26.4218 30.1472C26.06 29.9973 25.5753 29.8112 24.9537 30.5052H24.9511Z" stroke="white" stroke-width="1.11916" stroke-linejoin="round"/>
<path d="M24.8697 30.4819C24.747 29.6807 25.1334 28.7295 25.5456 27.6129C26.1659 25.9406 27.6134 24.2684 26.4541 18.9646C25.6012 15.0127 19.8658 18.1414 19.8632 18.6777C19.8606 19.214 20.1217 21.3942 19.7676 23.9336C19.3024 27.2472 21.8741 30.0503 24.8374 29.7621" stroke="white" stroke-width="1.11916" stroke-linecap="round" stroke-linejoin="round"/>
<path d="M23.4954 18.5989C23.4696 18.7824 23.8314 19.2709 24.3006 19.3355C24.7697 19.4001 25.1729 19.0189 25.1974 18.8366C25.222 18.6544 24.8614 18.4515 24.391 18.3843C23.9206 18.3171 23.5187 18.4141 23.4941 18.5976L23.4954 18.5989Z" fill="white" stroke="white" stroke-width="0.373485"/>
<path d="M37.8062 18.2253C37.832 18.4088 37.4702 18.8973 37.001 18.9619C36.5319 19.0266 36.1287 18.6453 36.1029 18.4631C36.077 18.2809 36.4389 18.078 36.9093 18.0134C37.3797 17.9488 37.7816 18.0431 37.8075 18.2266L37.8062 18.2253Z" fill="white" stroke="white" stroke-width="0.186096"/>
<path d="M39.4924 16.9589C39.57 18.3934 39.1823 19.3729 39.1344 20.9005C39.0621 23.1233 40.1942 25.6653 38.4883 28.2112" stroke="white" stroke-width="1.11916" stroke-linecap="round" stroke-linejoin="round"/>
</svg>
