<svg width="53" height="53" viewBox="0 0 53 53" fill="none" xmlns="http://www.w3.org/2000/svg">
<path d="M16.9854 0.000810006C16.7174 0.00907606 16.4289 0.108107 16.1015 0.366299C15.3001 0.0572137 14.5224 -0.050245 13.8272 0.57911C12.7538 0.439883 12.405 0.72725 12.1406 1.06275C11.905 1.05789 10.3774 0.820446 9.67671 1.86553C7.9162 1.65726 7.35979 2.90106 7.99027 4.06106C7.63062 4.61764 7.258 5.16758 8.09887 6.22888C7.80145 6.81982 7.9859 7.46101 8.68657 8.23688C8.5018 9.06786 8.86518 9.65394 9.51723 10.1108C9.39518 11.2478 10.5599 11.909 10.9075 12.1445C11.0411 12.8069 11.3194 13.4322 12.6496 13.7777C12.869 14.7651 13.6684 14.9356 14.4427 15.1428C11.8839 16.6302 9.68968 18.587 9.70459 23.3886L9.3297 24.0571C6.39574 25.8413 3.75611 31.576 7.88395 36.2371C8.15349 37.6961 8.60569 38.7441 9.0083 39.904C9.61042 44.5777 13.5404 46.7663 14.577 47.0251C16.0959 48.182 17.7136 49.2798 19.903 50.0489C21.9664 52.1771 24.2021 52.9883 26.45 52.987C26.4831 52.987 31.0331 52.1773 33.0969 50.0489C35.2859 49.2798 36.9036 48.182 38.4228 47.0251C39.4591 46.7663 43.3891 44.5777 43.9912 39.904C44.3938 38.7441 44.846 37.6961 45.1157 36.2371C49.2432 31.5755 46.6038 25.8407 43.67 24.0565L43.2944 23.3879C43.3093 18.5868 41.1151 16.6298 38.5564 15.1421C39.3305 14.935 40.1302 14.7645 40.3493 13.7771C41.6795 13.4314 41.9579 12.8062 42.0913 12.1438C42.4391 11.9083 43.6037 11.2472 43.482 10.1102C44.1337 9.65329 44.4972 9.06705 44.3123 8.23623C45.0131 7.46036 45.1974 6.81917 44.9 6.22807C45.7412 5.16742 45.3679 4.61748 45.0088 4.0609C45.6389 2.9009 45.0828 1.65694 43.3217 1.86537C42.6215 0.820284 41.094 1.05757 40.8577 1.06243C40.5935 0.727088 40.2447 0.439721 39.1713 0.578948C38.4761 -0.0504071 37.6988 0.0568895 36.897 0.366137C35.9449 -0.385101 35.3151 0.217024 34.5955 0.444746C33.4428 0.068073 33.1791 0.583972 32.6127 0.794189C31.3557 0.528541 30.9736 1.10684 30.3712 1.71723L29.67 1.70329C27.774 2.82067 26.832 5.09594 26.4981 6.26567C26.1642 5.09578 25.2244 2.82051 23.3287 1.70329L22.6277 1.71723C22.0243 1.10684 21.6424 0.528541 20.3853 0.794189C19.8188 0.583972 19.5563 0.068073 18.4026 0.444746C17.9303 0.295308 17.4959 -0.0152359 16.9846 0.000647927L3.9707 22.8532" fill="black"/>
<path d="M13.2103 4.91649C18.2406 7.50992 21.165 9.60788 22.7672 11.3946C21.9467 14.6831 17.6665 14.8332 16.1015 14.7409C16.4219 14.5918 16.6894 14.413 16.7842 14.1386C16.3914 13.8595 14.999 14.1091 14.0269 13.5631C14.4003 13.4856 14.575 13.4103 14.7496 13.1347C13.8312 12.8418 12.8419 12.5893 12.26 12.1041C12.574 12.108 12.8672 12.1744 13.2773 11.89C12.4547 11.4467 11.5769 11.0953 10.8948 10.4176C11.3201 10.4073 11.7787 10.4134 11.9121 10.257C11.1592 9.79054 10.5238 9.27189 9.99806 8.70445C10.5932 8.77625 10.8446 8.71449 10.9885 8.61076C10.4193 8.02776 9.69902 7.53553 9.35558 6.81719C9.79741 6.96955 10.2018 7.0279 10.4932 6.8039C10.2999 6.36758 9.4713 6.1102 8.99414 5.09056C9.45947 5.13578 9.95284 5.19202 10.0515 5.09056C9.83566 4.21079 9.46514 3.71612 9.10176 3.20363C10.0974 3.18888 11.6061 3.20752 11.5378 3.1234L10.9221 2.49437C11.8947 2.23245 12.8899 2.53635 13.6124 2.76196C13.9368 2.50604 13.6066 2.18237 13.2108 1.85189C14.0374 1.96226 14.7843 2.15222 15.4595 2.41398C15.8201 2.08836 15.2253 1.76258 14.9374 1.43696C16.2145 1.67911 16.7555 2.01964 17.2931 2.36049C17.6832 1.98657 17.3155 1.66874 17.0522 1.34328C18.0152 1.69986 18.5111 2.16032 19.0332 2.61479C19.2102 2.37589 19.483 2.20068 19.1536 1.62433C19.8373 2.01834 20.3522 2.4827 20.7331 3.00297C21.1561 2.7336 20.9851 2.36535 20.9874 2.0258C21.6979 2.60377 22.1488 3.21886 22.7007 3.81937C22.8119 3.73833 22.9092 3.46393 22.9952 3.02972C24.6901 4.67401 27.0851 8.81596 23.6108 10.4581C20.654 8.0195 17.1226 6.24683 13.2092 4.91713L13.2103 4.91649ZM39.9012 4.91649C34.8716 7.51024 31.9472 9.60755 30.3452 11.3946C31.1656 14.6831 35.4457 14.8332 37.0107 14.7409C36.6903 14.5918 36.4229 14.413 36.3282 14.1386C36.7209 13.8595 38.1133 14.1091 39.0853 13.5631C38.7119 13.4856 38.5373 13.4103 38.3626 13.1347C39.2811 12.8418 40.2705 12.5893 40.8522 12.1041C40.5382 12.108 40.245 12.1744 39.835 11.89C40.6577 11.4467 41.5355 11.0953 42.2175 10.4176C41.7921 10.4073 41.3335 10.4134 41.2003 10.257C41.9532 9.79054 42.5885 9.27189 43.1143 8.70445C42.519 8.77625 42.2678 8.71449 42.1238 8.61076C42.6929 8.02776 43.4133 7.53553 43.7568 6.81719C43.3148 6.96955 42.9104 7.0279 42.619 6.8039C42.8124 6.36758 43.6411 6.1102 44.1181 5.09056C43.6529 5.13578 43.1594 5.19202 43.0607 5.09056C43.277 4.21047 43.6476 3.7158 44.0109 3.20331C43.0153 3.18856 41.5066 3.20719 41.5749 3.12308L42.1906 2.49388C41.218 2.23212 40.2228 2.53602 39.5003 2.76164C39.1759 2.50571 39.5059 2.18204 39.9017 1.85156C39.0753 1.96178 38.3283 2.1519 37.6532 2.41365C37.2924 2.08804 37.8874 1.76226 38.1753 1.43664C36.8982 1.67879 36.3572 2.01931 35.8194 2.36017C35.4293 1.98625 35.7972 1.66841 36.0604 1.34296C35.0975 1.69953 34.6016 2.16 34.0795 2.61447C33.9024 2.37557 33.6297 2.20036 33.9589 1.624C33.2754 2.01802 32.7605 2.48238 32.3796 3.00265C31.9566 2.73327 32.1276 2.36487 32.1253 2.02547C31.4148 2.60345 30.9639 3.21838 30.412 3.81905C30.3008 3.73801 30.2035 3.4636 30.1175 3.02923C28.4226 4.67369 26.0276 8.81563 29.5019 10.4578C32.4571 8.01853 35.9883 6.24619 39.9019 4.91649H39.9012Z" fill="#75A928"/>
<path d="M32.6469 38.4019C32.6644 41.4706 29.9809 43.9713 26.6532 43.9874C23.3254 44.0036 20.6135 41.5291 20.596 38.4604C20.5958 38.4409 20.5958 38.4214 20.596 38.4019C20.5785 35.3334 23.2619 32.8327 26.5897 32.8165C29.9175 32.8003 32.6292 35.2748 32.6469 38.3434V38.4019ZM23.135 22.5296C25.6316 24.1655 26.0817 27.8733 24.1402 30.8111C22.1986 33.7491 18.6008 34.8049 16.1041 33.1692C13.6074 31.5333 13.1575 27.8256 15.0989 24.8877C17.0404 21.9497 20.6383 20.8939 23.135 22.5296ZM29.8736 22.2335C27.3771 23.8692 26.927 27.5771 28.8684 30.515C30.8099 33.453 34.4077 34.5088 36.9044 32.8729C39.4011 31.2372 39.8512 27.5295 37.9096 24.5915C35.9683 21.6536 32.3704 20.5978 29.8736 22.2335ZM10.6568 25.204C13.3523 24.4814 11.5669 36.3555 9.37359 35.3813C6.96104 33.4408 6.18403 27.7582 10.6568 25.204ZM41.8077 25.056C39.1118 24.3336 40.8976 36.2082 43.0908 35.2339C45.5034 33.2934 46.2804 27.61 41.8077 25.056ZM32.649 16.2134C37.3009 15.428 41.1716 18.1918 41.0154 23.236C40.8624 25.1699 30.9352 16.5014 32.649 16.2134ZM19.7961 16.0654C15.144 15.2798 11.2735 18.0443 11.4297 23.0882C11.5827 25.0219 21.5101 16.3534 19.7961 16.0654ZM26.4783 14.8891C23.7019 14.8168 21.0373 16.9496 21.0308 18.1867C21.0232 19.6899 23.226 21.229 26.4973 21.268C29.8378 21.2918 31.9694 20.0361 31.9801 18.4848C31.9924 16.7272 28.9419 14.862 26.4783 14.8891ZM26.6479 45.7133C29.0685 45.6077 32.3166 46.4929 32.3231 47.6675C32.3633 48.8079 29.3773 51.3847 26.4874 51.3349C23.4944 51.4641 20.5597 48.8833 20.5981 47.9888C20.5532 46.6772 24.2423 45.6532 26.6479 45.7133ZM17.7069 38.7528C19.4303 40.8291 20.2161 44.4768 18.7778 45.5522C17.4171 46.3732 14.1128 46.0351 11.7643 42.6611C10.1803 39.8299 10.3843 36.9489 11.4965 36.1025C13.1596 35.0895 15.7292 36.458 17.7071 38.7528H17.7069ZM35.2439 38.0946C33.3792 40.2787 32.3409 44.2622 33.7011 45.5453C35.0018 46.5421 38.4933 46.4027 41.0723 42.8241C42.945 40.4206 42.3176 36.4067 41.2478 35.3409C39.6588 34.1119 37.3775 35.6848 35.2439 38.094V38.0946Z" fill="#BC1142"/>
</svg>
